<svg width="288" height="69" viewBox="0 0 288 69" fill="none" xmlns="http://www.w3.org/2000/svg">
<mask id="path-1-outside-1_1132_3" maskUnits="userSpaceOnUse" x="-0.225586" y="0" width="287" height="69" fill="black">
<rect fill="white" x="-0.225586" width="287" height="69"/>
<path d="M13.1038 3.71627H21.174L29.5404 30H22.2105L20.6187 24.8543H13.622L12.0672 30H4.70038L13.1038 3.71627ZM19.4711 20.0418L17.1389 10.787L14.6956 20.0418H19.4711ZM41.1641 17.0802V30H33.9454V3.71627H39.5723L50.1228 17.0802V3.71627H57.3416V30H51.6036L41.1641 17.0802ZM71.2944 17.0802V30H64.0756V3.71627H69.7026L80.2531 17.0802V3.71627H87.4719V30H81.7339L71.2944 17.0802ZM105.682 30.2221C103.584 30.2221 101.783 29.8766 100.277 29.1856C98.7716 28.4945 97.5377 27.5444 96.5751 26.3351C95.6373 25.1258 94.9463 23.7437 94.5021 22.1889C94.0578 20.6094 93.8357 18.9559 93.8357 17.2283V3.71627H101.054V17.2283C101.054 18.0921 101.141 18.9189 101.314 19.7086C101.486 20.4984 101.758 21.2017 102.128 21.8187C102.498 22.4357 102.967 22.9293 103.535 23.2995C104.127 23.645 104.843 23.8178 105.682 23.8178C106.546 23.8178 107.274 23.645 107.866 23.2995C108.458 22.9293 108.927 22.4357 109.273 21.8187C109.643 21.1771 109.914 20.4613 110.087 19.6716C110.26 18.8819 110.346 18.0674 110.346 17.2283V3.71627H117.565V17.2283C117.565 19.0546 117.318 20.7575 116.825 22.337C116.356 23.9165 115.64 25.2985 114.678 26.4832C113.715 27.6678 112.481 28.5933 110.976 29.2596C109.495 29.9013 107.73 30.2221 105.682 30.2221ZM128.997 3.71627H137.068L145.434 30H138.104L136.512 24.8543H129.516L127.961 30H120.594L128.997 3.71627ZM135.365 20.0418L133.033 10.787L130.589 20.0418H135.365ZM149.839 30V3.71627H157.058V23.7067H168.978V30H149.839ZM7.03259 65V38.7163H19.1009C20.3842 38.7163 21.5689 38.9754 22.6548 39.4937C23.7407 40.0119 24.6785 40.7153 25.4682 41.6038C26.258 42.4676 26.8626 43.4424 27.2822 44.5283C27.7264 45.6142 27.9485 46.7124 27.9485 47.823C27.9485 48.8349 27.8004 49.8097 27.5043 50.7476C27.2081 51.6854 26.7762 52.5492 26.2086 53.3389C25.641 54.104 24.9623 54.7703 24.1726 55.338L29.7255 65H21.8033L17.1759 56.9298H14.2514V65H7.03259ZM14.2514 50.6365H18.8047C19.1009 50.6365 19.3847 50.5254 19.6562 50.3033C19.9277 50.0812 20.1498 49.7604 20.3225 49.3408C20.52 48.9213 20.6187 48.4153 20.6187 47.823C20.6187 47.206 20.5076 46.7001 20.2855 46.3052C20.0881 45.8857 19.8289 45.5648 19.5081 45.3427C19.212 45.1206 18.9158 45.0096 18.6196 45.0096H14.2514V50.6365ZM52.9664 58.7067V65H34.2346V38.7163H52.6332V45.0096H41.4534V48.7115H51.0043V54.5605H41.4534V58.7067H52.9664ZM56.703 51.636C56.703 50.0318 56.9992 48.4647 57.5915 46.9346C58.2085 45.3797 59.0969 43.973 60.2569 42.7144C61.4168 41.4557 62.8235 40.4562 64.4771 39.7158C66.1553 38.9507 68.0433 38.5682 70.141 38.5682C72.6583 38.5682 74.8548 39.0988 76.7305 40.16C78.6061 41.1966 80.0005 42.5786 80.9137 44.3062L75.3978 48.2302C75.0769 47.3665 74.608 46.7001 73.991 46.2312C73.3987 45.7623 72.7447 45.4414 72.029 45.2687C71.338 45.0713 70.6593 44.9725 69.9929 44.9725C68.9564 44.9725 68.0556 45.1823 67.2905 45.6019C66.5502 45.9967 65.9332 46.5273 65.4396 47.1937C64.9707 47.86 64.6128 48.6004 64.366 49.4149C64.1439 50.2293 64.0328 51.0437 64.0328 51.8581C64.0328 52.7713 64.1686 53.6474 64.44 54.4865C64.7115 55.3256 65.1064 56.0783 65.6247 56.7447C66.1429 57.3864 66.7723 57.8923 67.5127 58.2625C68.2777 58.6327 69.1292 58.8178 70.067 58.8178C70.7333 58.8178 71.412 58.7191 72.1031 58.5216C72.7941 58.2995 73.4234 57.954 73.991 57.4851C74.5587 57.0162 74.9906 56.3868 75.2867 55.5971L81.1728 59.1139C80.6545 60.3973 79.7907 61.4955 78.5814 62.4086C77.3721 63.3218 76.0024 64.0252 74.4723 64.5187C72.9422 64.9877 71.4244 65.2221 69.9189 65.2221C67.9692 65.2221 66.18 64.8396 64.5511 64.0745C62.9469 63.2848 61.5525 62.2482 60.3679 60.9649C59.208 59.6569 58.3072 58.2008 57.6655 56.5966C57.0238 54.9678 56.703 53.3142 56.703 51.636ZM97.4118 65.2221C95.4128 65.2221 93.5988 64.8519 91.97 64.1115C90.3411 63.3465 88.9344 62.3346 87.7498 61.0759C86.5899 59.7926 85.689 58.3612 85.0474 56.7817C84.4304 55.1775 84.1219 53.524 84.1219 51.8211C84.1219 50.0689 84.4551 48.403 85.1214 46.8235C85.7878 45.244 86.7133 43.8373 87.8979 42.6033C89.1072 41.3446 90.5262 40.3575 92.1551 39.6417C93.8086 38.926 95.6102 38.5682 97.5599 38.5682C99.559 38.5682 101.373 38.9507 103.002 39.7158C104.631 40.4562 106.025 41.468 107.185 42.7514C108.345 44.0347 109.233 45.4785 109.85 47.0826C110.492 48.6621 110.813 50.291 110.813 51.9692C110.813 53.6968 110.48 55.3503 109.813 56.9298C109.172 58.5093 108.246 59.9283 107.037 61.187C105.852 62.421 104.446 63.4082 102.817 64.1486C101.188 64.8643 99.3862 65.2221 97.4118 65.2221ZM91.4517 51.8952C91.4517 52.7836 91.5751 53.6474 91.8219 54.4865C92.0687 55.3009 92.4389 56.0413 92.9325 56.7077C93.4261 57.3493 94.0431 57.8676 94.7835 58.2625C95.5485 58.6327 96.4493 58.8178 97.4859 58.8178C98.5224 58.8178 99.4232 58.6203 100.188 58.2255C100.953 57.8306 101.57 57.3 102.039 56.6336C102.533 55.9426 102.891 55.1899 103.113 54.3754C103.36 53.5363 103.483 52.6849 103.483 51.8211C103.483 50.9327 103.36 50.0812 103.113 49.2668C102.866 48.4524 102.496 47.7243 102.002 47.0826C101.509 46.4163 100.879 45.898 100.114 45.5278C99.3492 45.1576 98.4607 44.9725 97.4489 44.9725C96.4123 44.9725 95.5115 45.17 94.7464 45.5648C94.0061 45.9597 93.3891 46.4903 92.8955 47.1567C92.4019 47.7983 92.0317 48.5387 91.7849 49.3778C91.5628 50.1923 91.4517 51.0314 91.4517 51.8952ZM127.459 65.1851C125.756 65.1851 124.127 64.8889 122.572 64.2966C121.042 63.6796 119.684 62.7912 118.5 61.6312C117.315 60.4466 116.377 59.0275 115.686 57.374C115.02 55.6958 114.687 53.7831 114.687 51.636C114.687 49.7851 115.032 48.0698 115.723 46.4903C116.414 44.9108 117.365 43.5288 118.574 42.3442C119.808 41.1349 121.239 40.197 122.868 39.5307C124.497 38.8643 126.262 38.5312 128.162 38.5312C130.531 38.5312 132.678 39.0494 134.603 40.086C136.528 41.0978 137.96 42.4922 138.898 44.2692L133.53 48.3783C133.011 47.3418 132.234 46.515 131.197 45.898C130.161 45.2563 129.063 44.9355 127.903 44.9355C127.039 44.9355 126.249 45.1083 125.534 45.4538C124.818 45.7993 124.188 46.2806 123.646 46.8975C123.127 47.5145 122.72 48.2549 122.424 49.1187C122.152 49.9578 122.017 50.8833 122.017 51.8952C122.017 52.9317 122.165 53.8695 122.461 54.7086C122.757 55.5477 123.164 56.2758 123.683 56.8928C124.226 57.4851 124.867 57.954 125.608 58.2995C126.348 58.6203 127.175 58.7808 128.088 58.7808C129.248 58.7808 130.358 58.4969 131.42 57.9293C132.481 57.337 133.443 56.5102 134.307 55.449V62.4827C132.333 64.2843 130.05 65.1851 127.459 65.1851ZM133.937 56.1894H129.087V51.0067H139.897V65H133.937V56.1894ZM152.9 52.0802V65H145.682V38.7163H151.309L161.859 52.0802V38.7163H169.078V65H163.34L152.9 52.0802ZM175.812 65V38.7163H183.031V65H175.812ZM210.254 45.0096H202.702V65H195.483V45.0096H187.894V38.7163H210.254V45.0096ZM215.104 65V38.7163H222.323V65H215.104ZM240.921 65.2221C238.922 65.2221 237.108 64.8519 235.479 64.1115C233.85 63.3465 232.444 62.3346 231.259 61.0759C230.099 59.7926 229.198 58.3612 228.557 56.7817C227.94 55.1775 227.631 53.524 227.631 51.8211C227.631 50.0689 227.964 48.403 228.631 46.8235C229.297 45.244 230.222 43.8373 231.407 42.6033C232.616 41.3446 234.035 40.3575 235.664 39.6417C237.318 38.926 239.119 38.5682 241.069 38.5682C243.068 38.5682 244.882 38.9507 246.511 39.7158C248.14 40.4562 249.534 41.468 250.694 42.7514C251.854 44.0347 252.743 45.4785 253.36 47.0826C254.001 48.6621 254.322 50.291 254.322 51.9692C254.322 53.6968 253.989 55.3503 253.323 56.9298C252.681 58.5093 251.755 59.9283 250.546 61.187C249.361 62.421 247.955 63.4082 246.326 64.1486C244.697 64.8643 242.895 65.2221 240.921 65.2221ZM234.961 51.8952C234.961 52.7836 235.084 53.6474 235.331 54.4865C235.578 55.3009 235.948 56.0413 236.442 56.7077C236.935 57.3493 237.552 57.8676 238.293 58.2625C239.058 58.6327 239.959 58.8178 240.995 58.8178C242.032 58.8178 242.932 58.6203 243.698 58.2255C244.463 57.8306 245.08 57.3 245.548 56.6336C246.042 55.9426 246.4 55.1899 246.622 54.3754C246.869 53.5363 246.992 52.6849 246.992 51.8211C246.992 50.9327 246.869 50.0812 246.622 49.2668C246.375 48.4524 246.005 47.7243 245.511 47.0826C245.018 46.4163 244.389 45.898 243.623 45.5278C242.858 45.1576 241.97 44.9725 240.958 44.9725C239.922 44.9725 239.021 45.17 238.256 45.5648C237.515 45.9597 236.898 46.4903 236.405 47.1567C235.911 47.7983 235.541 48.5387 235.294 49.3778C235.072 50.1923 234.961 51.0314 234.961 51.8952ZM266.822 52.0802V65H259.603V38.7163H265.23L275.78 52.0802V38.7163H282.999V65H277.261L266.822 52.0802Z"/>
</mask>
<path d="M13.1038 3.71627H21.174L29.5404 30H22.2105L20.6187 24.8543H13.622L12.0672 30H4.70038L13.1038 3.71627ZM19.4711 20.0418L17.1389 10.787L14.6956 20.0418H19.4711ZM41.1641 17.0802V30H33.9454V3.71627H39.5723L50.1228 17.0802V3.71627H57.3416V30H51.6036L41.1641 17.0802ZM71.2944 17.0802V30H64.0756V3.71627H69.7026L80.2531 17.0802V3.71627H87.4719V30H81.7339L71.2944 17.0802ZM105.682 30.2221C103.584 30.2221 101.783 29.8766 100.277 29.1856C98.7716 28.4945 97.5377 27.5444 96.5751 26.3351C95.6373 25.1258 94.9463 23.7437 94.5021 22.1889C94.0578 20.6094 93.8357 18.9559 93.8357 17.2283V3.71627H101.054V17.2283C101.054 18.0921 101.141 18.9189 101.314 19.7086C101.486 20.4984 101.758 21.2017 102.128 21.8187C102.498 22.4357 102.967 22.9293 103.535 23.2995C104.127 23.645 104.843 23.8178 105.682 23.8178C106.546 23.8178 107.274 23.645 107.866 23.2995C108.458 22.9293 108.927 22.4357 109.273 21.8187C109.643 21.1771 109.914 20.4613 110.087 19.6716C110.26 18.8819 110.346 18.0674 110.346 17.2283V3.71627H117.565V17.2283C117.565 19.0546 117.318 20.7575 116.825 22.337C116.356 23.9165 115.64 25.2985 114.678 26.4832C113.715 27.6678 112.481 28.5933 110.976 29.2596C109.495 29.9013 107.73 30.2221 105.682 30.2221ZM128.997 3.71627H137.068L145.434 30H138.104L136.512 24.8543H129.516L127.961 30H120.594L128.997 3.71627ZM135.365 20.0418L133.033 10.787L130.589 20.0418H135.365ZM149.839 30V3.71627H157.058V23.7067H168.978V30H149.839ZM7.03259 65V38.7163H19.1009C20.3842 38.7163 21.5689 38.9754 22.6548 39.4937C23.7407 40.0119 24.6785 40.7153 25.4682 41.6038C26.258 42.4676 26.8626 43.4424 27.2822 44.5283C27.7264 45.6142 27.9485 46.7124 27.9485 47.823C27.9485 48.8349 27.8004 49.8097 27.5043 50.7476C27.2081 51.6854 26.7762 52.5492 26.2086 53.3389C25.641 54.104 24.9623 54.7703 24.1726 55.338L29.7255 65H21.8033L17.1759 56.9298H14.2514V65H7.03259ZM14.2514 50.6365H18.8047C19.1009 50.6365 19.3847 50.5254 19.6562 50.3033C19.9277 50.0812 20.1498 49.7604 20.3225 49.3408C20.52 48.9213 20.6187 48.4153 20.6187 47.823C20.6187 47.206 20.5076 46.7001 20.2855 46.3052C20.0881 45.8857 19.8289 45.5648 19.5081 45.3427C19.212 45.1206 18.9158 45.0096 18.6196 45.0096H14.2514V50.6365ZM52.9664 58.7067V65H34.2346V38.7163H52.6332V45.0096H41.4534V48.7115H51.0043V54.5605H41.4534V58.7067H52.9664ZM56.703 51.636C56.703 50.0318 56.9992 48.4647 57.5915 46.9346C58.2085 45.3797 59.0969 43.973 60.2569 42.7144C61.4168 41.4557 62.8235 40.4562 64.4771 39.7158C66.1553 38.9507 68.0433 38.5682 70.141 38.5682C72.6583 38.5682 74.8548 39.0988 76.7305 40.16C78.6061 41.1966 80.0005 42.5786 80.9137 44.3062L75.3978 48.2302C75.0769 47.3665 74.608 46.7001 73.991 46.2312C73.3987 45.7623 72.7447 45.4414 72.029 45.2687C71.338 45.0713 70.6593 44.9725 69.9929 44.9725C68.9564 44.9725 68.0556 45.1823 67.2905 45.6019C66.5502 45.9967 65.9332 46.5273 65.4396 47.1937C64.9707 47.86 64.6128 48.6004 64.366 49.4149C64.1439 50.2293 64.0328 51.0437 64.0328 51.8581C64.0328 52.7713 64.1686 53.6474 64.44 54.4865C64.7115 55.3256 65.1064 56.0783 65.6247 56.7447C66.1429 57.3864 66.7723 57.8923 67.5127 58.2625C68.2777 58.6327 69.1292 58.8178 70.067 58.8178C70.7333 58.8178 71.412 58.7191 72.1031 58.5216C72.7941 58.2995 73.4234 57.954 73.991 57.4851C74.5587 57.0162 74.9906 56.3868 75.2867 55.5971L81.1728 59.1139C80.6545 60.3973 79.7907 61.4955 78.5814 62.4086C77.3721 63.3218 76.0024 64.0252 74.4723 64.5187C72.9422 64.9877 71.4244 65.2221 69.9189 65.2221C67.9692 65.2221 66.18 64.8396 64.5511 64.0745C62.9469 63.2848 61.5525 62.2482 60.3679 60.9649C59.208 59.6569 58.3072 58.2008 57.6655 56.5966C57.0238 54.9678 56.703 53.3142 56.703 51.636ZM97.4118 65.2221C95.4128 65.2221 93.5988 64.8519 91.97 64.1115C90.3411 63.3465 88.9344 62.3346 87.7498 61.0759C86.5899 59.7926 85.689 58.3612 85.0474 56.7817C84.4304 55.1775 84.1219 53.524 84.1219 51.8211C84.1219 50.0689 84.4551 48.403 85.1214 46.8235C85.7878 45.244 86.7133 43.8373 87.8979 42.6033C89.1072 41.3446 90.5262 40.3575 92.1551 39.6417C93.8086 38.926 95.6102 38.5682 97.5599 38.5682C99.559 38.5682 101.373 38.9507 103.002 39.7158C104.631 40.4562 106.025 41.468 107.185 42.7514C108.345 44.0347 109.233 45.4785 109.85 47.0826C110.492 48.6621 110.813 50.291 110.813 51.9692C110.813 53.6968 110.48 55.3503 109.813 56.9298C109.172 58.5093 108.246 59.9283 107.037 61.187C105.852 62.421 104.446 63.4082 102.817 64.1486C101.188 64.8643 99.3862 65.2221 97.4118 65.2221ZM91.4517 51.8952C91.4517 52.7836 91.5751 53.6474 91.8219 54.4865C92.0687 55.3009 92.4389 56.0413 92.9325 56.7077C93.4261 57.3493 94.0431 57.8676 94.7835 58.2625C95.5485 58.6327 96.4493 58.8178 97.4859 58.8178C98.5224 58.8178 99.4232 58.6203 100.188 58.2255C100.953 57.8306 101.57 57.3 102.039 56.6336C102.533 55.9426 102.891 55.1899 103.113 54.3754C103.36 53.5363 103.483 52.6849 103.483 51.8211C103.483 50.9327 103.36 50.0812 103.113 49.2668C102.866 48.4524 102.496 47.7243 102.002 47.0826C101.509 46.4163 100.879 45.898 100.114 45.5278C99.3492 45.1576 98.4607 44.9725 97.4489 44.9725C96.4123 44.9725 95.5115 45.17 94.7464 45.5648C94.0061 45.9597 93.3891 46.4903 92.8955 47.1567C92.4019 47.7983 92.0317 48.5387 91.7849 49.3778C91.5628 50.1923 91.4517 51.0314 91.4517 51.8952ZM127.459 65.1851C125.756 65.1851 124.127 64.8889 122.572 64.2966C121.042 63.6796 119.684 62.7912 118.5 61.6312C117.315 60.4466 116.377 59.0275 115.686 57.374C115.02 55.6958 114.687 53.7831 114.687 51.636C114.687 49.7851 115.032 48.0698 115.723 46.4903C116.414 44.9108 117.365 43.5288 118.574 42.3442C119.808 41.1349 121.239 40.197 122.868 39.5307C124.497 38.8643 126.262 38.5312 128.162 38.5312C130.531 38.5312 132.678 39.0494 134.603 40.086C136.528 41.0978 137.96 42.4922 138.898 44.2692L133.53 48.3783C133.011 47.3418 132.234 46.515 131.197 45.898C130.161 45.2563 129.063 44.9355 127.903 44.9355C127.039 44.9355 126.249 45.1083 125.534 45.4538C124.818 45.7993 124.188 46.2806 123.646 46.8975C123.127 47.5145 122.72 48.2549 122.424 49.1187C122.152 49.9578 122.017 50.8833 122.017 51.8952C122.017 52.9317 122.165 53.8695 122.461 54.7086C122.757 55.5477 123.164 56.2758 123.683 56.8928C124.226 57.4851 124.867 57.954 125.608 58.2995C126.348 58.6203 127.175 58.7808 128.088 58.7808C129.248 58.7808 130.358 58.4969 131.42 57.9293C132.481 57.337 133.443 56.5102 134.307 55.449V62.4827C132.333 64.2843 130.05 65.1851 127.459 65.1851ZM133.937 56.1894H129.087V51.0067H139.897V65H133.937V56.1894ZM152.9 52.0802V65H145.682V38.7163H151.309L161.859 52.0802V38.7163H169.078V65H163.34L152.9 52.0802ZM175.812 65V38.7163H183.031V65H175.812ZM210.254 45.0096H202.702V65H195.483V45.0096H187.894V38.7163H210.254V45.0096ZM215.104 65V38.7163H222.323V65H215.104ZM240.921 65.2221C238.922 65.2221 237.108 64.8519 235.479 64.1115C233.85 63.3465 232.444 62.3346 231.259 61.0759C230.099 59.7926 229.198 58.3612 228.557 56.7817C227.94 55.1775 227.631 53.524 227.631 51.8211C227.631 50.0689 227.964 48.403 228.631 46.8235C229.297 45.244 230.222 43.8373 231.407 42.6033C232.616 41.3446 234.035 40.3575 235.664 39.6417C237.318 38.926 239.119 38.5682 241.069 38.5682C243.068 38.5682 244.882 38.9507 246.511 39.7158C248.14 40.4562 249.534 41.468 250.694 42.7514C251.854 44.0347 252.743 45.4785 253.36 47.0826C254.001 48.6621 254.322 50.291 254.322 51.9692C254.322 53.6968 253.989 55.3503 253.323 56.9298C252.681 58.5093 251.755 59.9283 250.546 61.187C249.361 62.421 247.955 63.4082 246.326 64.1486C244.697 64.8643 242.895 65.2221 240.921 65.2221ZM234.961 51.8952C234.961 52.7836 235.084 53.6474 235.331 54.4865C235.578 55.3009 235.948 56.0413 236.442 56.7077C236.935 57.3493 237.552 57.8676 238.293 58.2625C239.058 58.6327 239.959 58.8178 240.995 58.8178C242.032 58.8178 242.932 58.6203 243.698 58.2255C244.463 57.8306 245.08 57.3 245.548 56.6336C246.042 55.9426 246.4 55.1899 246.622 54.3754C246.869 53.5363 246.992 52.6849 246.992 51.8211C246.992 50.9327 246.869 50.0812 246.622 49.2668C246.375 48.4524 246.005 47.7243 245.511 47.0826C245.018 46.4163 244.389 45.898 243.623 45.5278C242.858 45.1576 241.97 44.9725 240.958 44.9725C239.922 44.9725 239.021 45.17 238.256 45.5648C237.515 45.9597 236.898 46.4903 236.405 47.1567C235.911 47.7983 235.541 48.5387 235.294 49.3778C235.072 50.1923 234.961 51.0314 234.961 51.8952ZM266.822 52.0802V65H259.603V38.7163H265.23L275.78 52.0802V38.7163H282.999V65H277.261L266.822 52.0802Z" fill="url(#paint0_linear_1132_3)"/>
<path d="M13.1038 3.71627V0.284287H10.5979L9.8348 2.67112L13.1038 3.71627ZM21.174 3.71627L24.4443 2.6753L23.6832 0.284287H21.174V3.71627ZM29.5404 30V33.432H34.2344L32.8107 28.959L29.5404 30ZM22.2105 30L18.9318 31.0143L19.6798 33.432H22.2105V30ZM20.6187 24.8543L23.8974 23.84L23.1494 21.4223H20.6187V24.8543ZM13.622 24.8543V21.4223H11.0738L10.3368 23.8616L13.622 24.8543ZM12.0672 30V33.432H14.6155L15.3525 30.9927L12.0672 30ZM4.70038 30L1.43141 28.9549L-1.19209e-05 33.432H4.70038V30ZM19.4711 20.0418V23.4738H23.8752L22.799 19.2032L19.4711 20.0418ZM17.1389 10.787L20.4668 9.94832L13.8206 9.91093L17.1389 10.787ZM14.6956 20.0418L11.3773 19.1658L10.24 23.4738H14.6956V20.0418ZM13.1038 3.71627V7.14825H21.174V3.71627V0.284287H13.1038V3.71627ZM21.174 3.71627L17.9037 4.75724L26.2701 31.041L29.5404 30L32.8107 28.959L24.4443 2.6753L21.174 3.71627ZM29.5404 30V26.568H22.2105V30V33.432H29.5404V30ZM22.2105 30L25.4892 28.9857L23.8974 23.84L20.6187 24.8543L17.34 25.8686L18.9318 31.0143L22.2105 30ZM20.6187 24.8543V21.4223H13.622V24.8543V28.2863H20.6187V24.8543ZM13.622 24.8543L10.3368 23.8616L8.78194 29.0073L12.0672 30L15.3525 30.9927L16.9073 25.847L13.622 24.8543ZM12.0672 30V26.568H4.70038V30V33.432H12.0672V30ZM4.70038 30L7.96934 31.0451L16.3727 4.76142L13.1038 3.71627L9.8348 2.67112L1.43141 28.9549L4.70038 30ZM19.4711 20.0418L22.799 19.2032L20.4668 9.94832L17.1389 10.787L13.8109 11.6256L16.1432 20.8804L19.4711 20.0418ZM17.1389 10.787L13.8206 9.91093L11.3773 19.1658L14.6956 20.0418L18.0139 20.9178L20.4572 11.663L17.1389 10.787ZM14.6956 20.0418V23.4738H19.4711V20.0418V16.6098H14.6956V20.0418ZM41.1641 17.0802L43.8336 14.9233L37.7322 7.37222V17.0802H41.1641ZM41.1641 30V33.432H44.5961V30H41.1641ZM33.9454 30H30.5134V33.432H33.9454V30ZM33.9454 3.71627V0.284287H30.5134V3.71627H33.9454ZM39.5723 3.71627L42.266 1.58966L41.2355 0.284287H39.5723V3.71627ZM50.1228 17.0802L47.4291 19.2069L53.5548 26.9661V17.0802H50.1228ZM50.1228 3.71627V0.284287H46.6908V3.71627H50.1228ZM57.3416 3.71627H60.7736V0.284287H57.3416V3.71627ZM57.3416 30V33.432H60.7736V30H57.3416ZM51.6036 30L48.9341 32.157L49.9644 33.432H51.6036V30ZM41.1641 17.0802H37.7322V30H41.1641H44.5961V17.0802H41.1641ZM41.1641 30V26.568H33.9454V30V33.432H41.1641V30ZM33.9454 30H37.3773V3.71627H33.9454H30.5134V30H33.9454ZM33.9454 3.71627V7.14825H39.5723V3.71627V0.284287H33.9454V3.71627ZM39.5723 3.71627L36.8786 5.84287L47.4291 19.2069L50.1228 17.0802L52.8165 14.9536L42.266 1.58966L39.5723 3.71627ZM50.1228 17.0802H53.5548V3.71627H50.1228H46.6908V17.0802H50.1228ZM50.1228 3.71627V7.14825H57.3416V3.71627V0.284287H50.1228V3.71627ZM57.3416 3.71627H53.9096V30H57.3416H60.7736V3.71627H57.3416ZM57.3416 30V26.568H51.6036V30V33.432H57.3416V30ZM51.6036 30L54.273 27.843L43.8336 14.9233L41.1641 17.0802L38.4947 19.2372L48.9341 32.157L51.6036 30ZM71.2944 17.0802L73.9639 14.9233L67.8624 7.37222V17.0802H71.2944ZM71.2944 30V33.432H74.7264V30H71.2944ZM64.0756 30H60.6437V33.432H64.0756V30ZM64.0756 3.71627V0.284287H60.6437V3.71627H64.0756ZM69.7026 3.71627L72.3963 1.58966L71.3657 0.284287H69.7026V3.71627ZM80.2531 17.0802L77.5594 19.2069L83.6851 26.9661V17.0802H80.2531ZM80.2531 3.71627V0.284287H76.8211V3.71627H80.2531ZM87.4719 3.71627H90.9038V0.284287H87.4719V3.71627ZM87.4719 30V33.432H90.9038V30H87.4719ZM81.7339 30L79.0644 32.157L80.0947 33.432H81.7339V30ZM71.2944 17.0802H67.8624V30H71.2944H74.7264V17.0802H71.2944ZM71.2944 30V26.568H64.0756V30V33.432H71.2944V30ZM64.0756 30H67.5076V3.71627H64.0756H60.6437V30H64.0756ZM64.0756 3.71627V7.14825H69.7026V3.71627V0.284287H64.0756V3.71627ZM69.7026 3.71627L67.0089 5.84287L77.5594 19.2069L80.2531 17.0802L82.9468 14.9536L72.3963 1.58966L69.7026 3.71627ZM80.2531 17.0802H83.6851V3.71627H80.2531H76.8211V17.0802H80.2531ZM80.2531 3.71627V7.14825H87.4719V3.71627V0.284287H80.2531V3.71627ZM87.4719 3.71627H84.0399V30H87.4719H90.9038V3.71627H87.4719ZM87.4719 30V26.568H81.7339V30V33.432H87.4719V30ZM81.7339 30L84.4033 27.843L73.9639 14.9233L71.2944 17.0802L68.625 19.2372L79.0644 32.157L81.7339 30ZM100.277 29.1856L101.709 26.0665L100.277 29.1856ZM96.5751 26.3351L93.8631 28.4383L93.8764 28.4554L93.8899 28.4723L96.5751 26.3351ZM94.5021 22.1889L91.1983 23.1181L91.2002 23.1249L91.2021 23.1318L94.5021 22.1889ZM93.8357 3.71627V0.284287H90.4037V3.71627H93.8357ZM101.054 3.71627H104.486V0.284287H101.054V3.71627ZM101.314 19.7086L104.666 18.9752V18.9752L101.314 19.7086ZM102.128 21.8187L99.1852 23.5845V23.5845L102.128 21.8187ZM103.535 23.2995L101.66 26.1742L101.732 26.2209L101.806 26.264L103.535 23.2995ZM107.866 23.2995L109.595 26.264L109.641 26.2376L109.685 26.2098L107.866 23.2995ZM109.273 21.8187L106.3 20.1037L106.289 20.1227L106.278 20.1418L109.273 21.8187ZM110.346 3.71627V0.284287H106.914V3.71627H110.346ZM117.565 3.71627H120.997V0.284287H117.565V3.71627ZM116.825 22.337L113.549 21.3133L113.542 21.3367L113.535 21.3603L116.825 22.337ZM114.678 26.4832L112.014 24.319V24.319L114.678 26.4832ZM110.976 29.2596L112.34 32.4086L112.353 32.4033L112.365 32.3979L110.976 29.2596ZM105.682 30.2221V26.7901C103.951 26.7901 102.662 26.5041 101.709 26.0665L100.277 29.1856L98.8454 32.3047C100.903 33.2491 103.217 33.6541 105.682 33.6541V30.2221ZM100.277 29.1856L101.709 26.0665C100.656 25.5835 99.864 24.9562 99.2604 24.1978L96.5751 26.3351L93.8899 28.4723C95.2113 30.1325 96.8868 31.4056 98.8454 32.3047L100.277 29.1856ZM96.5751 26.3351L99.2872 24.2319C98.6325 23.3877 98.1329 22.4043 97.802 21.2461L94.5021 22.1889L91.2021 23.1318C91.7597 25.0831 92.6422 26.8639 93.8631 28.4383L96.5751 26.3351ZM94.5021 22.1889L97.8059 21.2597C97.4511 19.9982 97.2677 18.6584 97.2677 17.2283H93.8357H90.4037C90.4037 19.2534 90.6646 21.2206 91.1983 23.1181L94.5021 22.1889ZM93.8357 17.2283H97.2677V3.71627H93.8357H90.4037V17.2283H93.8357ZM93.8357 3.71627V7.14825H101.054V3.71627V0.284287H93.8357V3.71627ZM101.054 3.71627H97.6225V17.2283H101.054H104.486V3.71627H101.054ZM101.054 17.2283H97.6225C97.6225 18.322 97.732 19.3955 97.9609 20.442L101.314 19.7086L104.666 18.9752C104.55 18.4422 104.486 17.8623 104.486 17.2283H101.054ZM101.314 19.7086L97.9609 20.442C98.2036 21.5514 98.6011 22.6111 99.1852 23.5845L102.128 21.8187L105.071 20.053C104.915 19.7924 104.769 19.4454 104.666 18.9752L101.314 19.7086ZM102.128 21.8187L99.1852 23.5845C99.8059 24.619 100.63 25.5026 101.66 26.1742L103.535 23.2995L105.41 20.4248C105.304 20.356 105.191 20.2524 105.071 20.053L102.128 21.8187ZM103.535 23.2995L101.806 26.264C103.028 26.9773 104.37 27.2498 105.682 27.2498V23.8178V20.3858C105.315 20.3858 105.226 20.3127 105.264 20.335L103.535 23.2995ZM105.682 23.8178V27.2498C106.998 27.2498 108.358 26.9856 109.595 26.264L107.866 23.2995L106.137 20.335C106.189 20.3045 106.094 20.3858 105.682 20.3858V23.8178ZM107.866 23.2995L109.685 26.2098C110.773 25.5299 111.643 24.6095 112.267 23.4956L109.273 21.8187L106.278 20.1418C106.211 20.2619 106.144 20.3287 106.047 20.3892L107.866 23.2995ZM109.273 21.8187L112.246 23.5338C112.807 22.5598 113.199 21.5082 113.44 20.405L110.087 19.6716L106.735 18.9382C106.63 19.4145 106.479 19.7943 106.3 20.1037L109.273 21.8187ZM110.087 19.6716L113.44 20.405C113.667 19.3654 113.778 18.3047 113.778 17.2283H110.346H106.914C106.914 17.8302 106.853 18.3983 106.735 18.9382L110.087 19.6716ZM110.346 17.2283H113.778V3.71627H110.346H106.914V17.2283H110.346ZM110.346 3.71627V7.14825H117.565V3.71627V0.284287H110.346V3.71627ZM117.565 3.71627H114.133V17.2283H117.565H120.997V3.71627H117.565ZM117.565 17.2283H114.133C114.133 18.7431 113.929 20.0976 113.549 21.3133L116.825 22.337L120.1 23.3607C120.708 21.4174 120.997 19.3661 120.997 17.2283H117.565ZM116.825 22.337L113.535 21.3603C113.184 22.5413 112.67 23.5121 112.014 24.319L114.678 26.4832L117.341 28.6473C118.611 27.0849 119.528 25.2917 120.115 23.3137L116.825 22.337ZM114.678 26.4832L112.014 24.319C111.42 25.0502 110.636 25.6568 109.587 26.1213L110.976 29.2596L112.365 32.3979C114.326 31.5297 116.01 30.2854 117.341 28.6473L114.678 26.4832ZM110.976 29.2596L109.611 26.1106C108.66 26.5226 107.383 26.7901 105.682 26.7901V30.2221V33.6541C108.078 33.6541 110.33 33.28 112.34 32.4086L110.976 29.2596ZM128.997 3.71627V0.284287H126.492L125.728 2.67112L128.997 3.71627ZM137.068 3.71627L140.338 2.6753L139.577 0.284287H137.068V3.71627ZM145.434 30V33.432H150.128L148.704 28.959L145.434 30ZM138.104 30L134.826 31.0143L135.573 33.432H138.104V30ZM136.512 24.8543L139.791 23.84L139.043 21.4223H136.512V24.8543ZM129.516 24.8543V21.4223H126.967L126.23 23.8616L129.516 24.8543ZM127.961 30V33.432H130.509L131.246 30.9927L127.961 30ZM120.594 30L117.325 28.9549L115.894 33.432H120.594V30ZM135.365 20.0418V23.4738H139.769L138.693 19.2032L135.365 20.0418ZM133.033 10.787L136.36 9.94832L129.714 9.91093L133.033 10.787ZM130.589 20.0418L127.271 19.1658L126.134 23.4738H130.589V20.0418ZM128.997 3.71627V7.14825H137.068V3.71627V0.284287H128.997V3.71627ZM137.068 3.71627L133.797 4.75724L142.164 31.041L145.434 30L148.704 28.959L140.338 2.6753L137.068 3.71627ZM145.434 30V26.568H138.104V30V33.432H145.434V30ZM138.104 30L141.383 28.9857L139.791 23.84L136.512 24.8543L133.234 25.8686L134.826 31.0143L138.104 30ZM136.512 24.8543V21.4223H129.516V24.8543V28.2863H136.512V24.8543ZM129.516 24.8543L126.23 23.8616L124.676 29.0073L127.961 30L131.246 30.9927L132.801 25.847L129.516 24.8543ZM127.961 30V26.568H120.594V30V33.432H127.961V30ZM120.594 30L123.863 31.0451L132.266 4.76142L128.997 3.71627L125.728 2.67112L117.325 28.9549L120.594 30ZM135.365 20.0418L138.693 19.2032L136.36 9.94832L133.033 10.787L129.705 11.6256L132.037 20.8804L135.365 20.0418ZM133.033 10.787L129.714 9.91093L127.271 19.1658L130.589 20.0418L133.908 20.9178L136.351 11.663L133.033 10.787ZM130.589 20.0418V23.4738H135.365V20.0418V16.6098H130.589V20.0418ZM149.839 30H146.407V33.432H149.839V30ZM149.839 3.71627V0.284287H146.407V3.71627H149.839ZM157.058 3.71627H160.49V0.284287H157.058V3.71627ZM157.058 23.7067H153.626V27.1387H157.058V23.7067ZM168.978 23.7067H172.41V20.2747H168.978V23.7067ZM168.978 30V33.432H172.41V30H168.978ZM149.839 30H153.271V3.71627H149.839H146.407V30H149.839ZM149.839 3.71627V7.14825H157.058V3.71627V0.284287H149.839V3.71627ZM157.058 3.71627H153.626V23.7067H157.058H160.49V3.71627H157.058ZM157.058 23.7067V27.1387H168.978V23.7067V20.2747H157.058V23.7067ZM168.978 23.7067H165.546V30H168.978H172.41V23.7067H168.978ZM168.978 30V26.568H149.839V30V33.432H168.978V30ZM7.03259 65H3.60061V68.432H7.03259V65ZM7.03259 38.7163V35.2843H3.60061V38.7163H7.03259ZM22.6548 39.4937L21.1765 42.591L21.1765 42.591L22.6548 39.4937ZM25.4682 41.6038L22.9031 43.8839L22.9191 43.9018L22.9353 43.9196L25.4682 41.6038ZM27.2822 44.5283L24.0808 45.7652L24.093 45.7966L24.1057 45.8278L27.2822 44.5283ZM27.5043 50.7476L24.2316 49.7141L24.2316 49.7141L27.5043 50.7476ZM26.2086 53.3389L28.9648 55.3838L28.9803 55.363L28.9954 55.3419L26.2086 53.3389ZM24.1726 55.338L22.1695 52.5511L19.6523 54.3604L21.197 57.048L24.1726 55.338ZM29.7255 65V68.432H35.6562L32.701 63.2899L29.7255 65ZM21.8033 65L18.826 66.7071L19.8151 68.432H21.8033V65ZM17.1759 56.9298L20.1532 55.2226L19.1642 53.4978H17.1759V56.9298ZM14.2514 56.9298V53.4978H10.8194V56.9298H14.2514ZM14.2514 65V68.432H17.6833V65H14.2514ZM14.2514 50.6365H10.8194V54.0685H14.2514V50.6365ZM19.6562 50.3033L17.4829 47.6471L17.4829 47.6471L19.6562 50.3033ZM20.3225 49.3408L17.2172 47.8795L17.1812 47.956L17.1491 48.0341L20.3225 49.3408ZM20.2855 46.3052L17.1802 47.7666L17.2332 47.8793L17.2943 47.9878L20.2855 46.3052ZM19.5081 45.3427L17.4489 48.0883L17.501 48.1274L17.5546 48.1645L19.5081 45.3427ZM14.2514 45.0096V41.5776H10.8194V45.0096H14.2514ZM7.03259 65H10.4646V38.7163H7.03259H3.60061V65H7.03259ZM7.03259 38.7163V42.1482H19.1009V38.7163V35.2843H7.03259V38.7163ZM19.1009 38.7163V42.1482C19.9075 42.1482 20.5826 42.3075 21.1765 42.591L22.6548 39.4937L24.133 36.3964C22.5551 35.6433 20.861 35.2843 19.1009 35.2843V38.7163ZM22.6548 39.4937L21.1765 42.591C21.8544 42.9145 22.4213 43.3418 22.9031 43.8839L25.4682 41.6038L28.0333 39.3237C26.9356 38.0888 25.6269 37.1094 24.133 36.3964L22.6548 39.4937ZM25.4682 41.6038L22.9353 43.9196C23.4387 44.4701 23.8159 45.0795 24.0808 45.7652L27.2822 44.5283L30.4835 43.2914C29.9093 41.8053 29.0772 40.465 28.0011 39.288L25.4682 41.6038ZM27.2822 44.5283L24.1057 45.8278C24.3909 46.5248 24.5165 47.1829 24.5165 47.823H27.9485H31.3805C31.3805 46.242 31.0619 44.7036 30.4586 43.2288L27.2822 44.5283ZM27.9485 47.823H24.5165C24.5165 48.4945 24.4192 49.1202 24.2316 49.7141L27.5043 50.7476L30.777 51.781C31.1817 50.4993 31.3805 49.1753 31.3805 47.823H27.9485ZM27.5043 50.7476L24.2316 49.7141C24.0438 50.309 23.7747 50.8449 23.4218 51.3359L26.2086 53.3389L28.9954 55.3419C29.7778 54.2535 30.3725 53.0618 30.777 51.781L27.5043 50.7476ZM26.2086 53.3389L23.4524 51.294C23.1004 51.7684 22.6775 52.186 22.1695 52.5511L24.1726 55.338L26.1756 58.1248C27.2471 57.3546 28.1815 56.4396 28.9648 55.3838L26.2086 53.3389ZM24.1726 55.338L21.197 57.048L26.7499 66.7101L29.7255 65L32.701 63.2899L27.1481 53.6279L24.1726 55.338ZM29.7255 65V61.568H21.8033V65V68.432H29.7255V65ZM21.8033 65L24.7806 63.2929L20.1532 55.2226L17.1759 56.9298L14.1986 58.6369L18.826 66.7071L21.8033 65ZM17.1759 56.9298V53.4978H14.2514V56.9298V60.3618H17.1759V56.9298ZM14.2514 56.9298H10.8194V65H14.2514H17.6833V56.9298H14.2514ZM14.2514 65V61.568H7.03259V65V68.432H14.2514V65ZM14.2514 50.6365V54.0685H18.8047V50.6365V47.2045H14.2514V50.6365ZM18.8047 50.6365V54.0685C20.0333 54.0685 21.0628 53.5867 21.8295 52.9595L19.6562 50.3033L17.4829 47.6471C17.7066 47.4641 18.1685 47.2045 18.8047 47.2045V50.6365ZM19.6562 50.3033L21.8294 52.9595C22.6514 52.2871 23.1685 51.4429 23.496 50.6475L20.3225 49.3408L17.1491 48.0341C17.1311 48.0778 17.204 47.8753 17.4829 47.6471L19.6562 50.3033ZM20.3225 49.3408L23.4279 50.8021C23.8914 49.817 24.0507 48.7852 24.0507 47.823H20.6187H17.1867C17.1867 47.9304 17.1776 47.9822 17.1762 47.9894C17.1751 47.9951 17.1828 47.9525 17.2172 47.8795L20.3225 49.3408ZM20.6187 47.823H24.0507C24.0507 46.8208 23.8737 45.6839 23.2767 44.6227L20.2855 46.3052L17.2943 47.9878C17.217 47.8504 17.1903 47.7488 17.1832 47.7167C17.1768 47.6873 17.1867 47.7165 17.1867 47.823H20.6187ZM20.2855 46.3052L23.3908 44.8439C22.9847 43.9808 22.3658 43.1469 21.4616 42.521L19.5081 45.3427L17.5546 48.1645C17.2921 47.9828 17.1915 47.7906 17.1802 47.7666L20.2855 46.3052ZM19.5081 45.3427L21.5673 42.5971C20.8278 42.0425 19.827 41.5776 18.6196 41.5776V45.0096V48.4415C18.0046 48.4415 17.5961 48.1987 17.4489 48.0883L19.5081 45.3427ZM18.6196 45.0096V41.5776H14.2514V45.0096V48.4415H18.6196V45.0096ZM14.2514 45.0096H10.8194V50.6365H14.2514H17.6833V45.0096H14.2514ZM52.9664 58.7067H56.3983V55.2747H52.9664V58.7067ZM52.9664 65V68.432H56.3983V65H52.9664ZM34.2346 65H30.8026V68.432H34.2346V65ZM34.2346 38.7163V35.2843H30.8026V38.7163H34.2346ZM52.6332 38.7163H56.0652V35.2843H52.6332V38.7163ZM52.6332 45.0096V48.4415H56.0652V45.0096H52.6332ZM41.4534 45.0096V41.5776H38.0214V45.0096H41.4534ZM41.4534 48.7115H38.0214V52.1435H41.4534V48.7115ZM51.0043 48.7115H54.4363V45.2795H51.0043V48.7115ZM51.0043 54.5605V57.9925H54.4363V54.5605H51.0043ZM41.4534 54.5605V51.1286H38.0214V54.5605H41.4534ZM41.4534 58.7067H38.0214V62.1387H41.4534V58.7067ZM52.9664 58.7067H49.5344V65H52.9664H56.3983V58.7067H52.9664ZM52.9664 65V61.568H34.2346V65V68.432H52.9664V65ZM34.2346 65H37.6666V38.7163H34.2346H30.8026V65H34.2346ZM34.2346 38.7163V42.1482H52.6332V38.7163V35.2843H34.2346V38.7163ZM52.6332 38.7163H49.2012V45.0096H52.6332H56.0652V38.7163H52.6332ZM52.6332 45.0096V41.5776H41.4534V45.0096V48.4415H52.6332V45.0096ZM41.4534 45.0096H38.0214V48.7115H41.4534H44.8853V45.0096H41.4534ZM41.4534 48.7115V52.1435H51.0043V48.7115V45.2795H41.4534V48.7115ZM51.0043 48.7115H47.5724V54.5605H51.0043H54.4363V48.7115H51.0043ZM51.0043 54.5605V51.1286H41.4534V54.5605V57.9925H51.0043V54.5605ZM41.4534 54.5605H38.0214V58.7067H41.4534H44.8853V54.5605H41.4534ZM41.4534 58.7067V62.1387H52.9664V58.7067V55.2747H41.4534V58.7067ZM57.5915 46.9346L54.4015 45.6687L54.3961 45.6821L54.3909 45.6956L57.5915 46.9346ZM60.2569 42.7144L57.7331 40.3886L60.2569 42.7144ZM64.4771 39.7158L65.8796 42.8481L65.8902 42.8434L65.9007 42.8386L64.4771 39.7158ZM76.7305 40.16L75.0404 43.147L75.0554 43.1555L75.0705 43.1638L76.7305 40.16ZM80.9137 44.3062L82.9031 47.1027L85.3526 45.3601L83.9479 42.7024L80.9137 44.3062ZM75.3978 48.2302L72.1805 49.4252L73.7393 53.6219L77.3872 51.0268L75.3978 48.2302ZM73.991 46.2312L71.8608 48.922L71.8874 48.9431L71.9144 48.9636L73.991 46.2312ZM72.029 45.2687L71.0862 48.5686L71.1546 48.5882L71.2237 48.6049L72.029 45.2687ZM67.2905 45.6019L68.9056 48.6301L68.9232 48.6207L68.9407 48.6111L67.2905 45.6019ZM65.4396 47.1937L62.6818 45.1509L62.6569 45.1845L62.6329 45.2186L65.4396 47.1937ZM64.366 49.4149L61.0815 48.4196L61.0676 48.4655L61.055 48.5118L64.366 49.4149ZM64.44 54.4865L61.1747 55.5429V55.5429L64.44 54.4865ZM65.6247 56.7447L62.9156 58.8517L62.935 58.8766L62.9548 58.9011L65.6247 56.7447ZM67.5127 58.2625L65.9778 61.3321L65.9978 61.3421L66.0178 61.3518L67.5127 58.2625ZM72.1031 58.5216L73.0459 61.8215L73.0998 61.8061L73.1533 61.789L72.1031 58.5216ZM73.991 57.4851L76.1768 60.131V60.131L73.991 57.4851ZM75.2867 55.5971L77.047 52.6509L73.5171 50.5419L72.0733 54.392L75.2867 55.5971ZM81.1728 59.1139L84.3551 60.3991L85.4553 57.6747L82.9331 56.1678L81.1728 59.1139ZM78.5814 62.4086L80.6496 65.1475L78.5814 62.4086ZM74.4723 64.5187L75.4779 67.8001L75.5019 67.7927L75.5259 67.785L74.4723 64.5187ZM64.5511 64.0745L63.0353 67.1536L63.0635 67.1675L63.092 67.1809L64.5511 64.0745ZM60.3679 60.9649L57.8002 63.242L57.8229 63.2676L57.8461 63.2927L60.3679 60.9649ZM57.6655 56.5966L54.4724 57.8545L54.4757 57.8629L54.479 57.8712L57.6655 56.5966ZM56.703 51.636H60.135C60.135 50.4653 60.3491 49.3177 60.792 48.1735L57.5915 46.9346L54.3909 45.6956C53.6492 47.6117 53.271 49.5984 53.271 51.636H56.703ZM57.5915 46.9346L60.7815 48.2004C61.2396 47.046 61.8991 45.9967 62.7806 45.0401L60.2569 42.7144L57.7331 40.3886C56.2948 41.9494 55.1773 43.7135 54.4015 45.6687L57.5915 46.9346ZM60.2569 42.7144L62.7806 45.0401C63.6071 44.1433 64.6254 43.4097 65.8796 42.8481L64.4771 39.7158L63.0745 36.5835C61.0217 37.5026 59.2265 38.7681 57.7331 40.3886L60.2569 42.7144ZM64.4771 39.7158L65.9007 42.8386C67.0744 42.3035 68.467 42.0002 70.141 42.0002V38.5682V35.1362C67.6195 35.1362 65.2362 35.5979 63.0534 36.593L64.4771 39.7158ZM70.141 38.5682V42.0002C72.1664 42.0002 73.7611 42.4232 75.0404 43.147L76.7305 40.16L78.4205 37.173C75.9485 35.7744 73.1503 35.1362 70.141 35.1362V38.5682ZM76.7305 40.16L75.0705 43.1638C76.4204 43.9098 77.3084 44.8296 77.8795 45.91L80.9137 44.3062L83.9479 42.7024C82.6926 40.3277 80.7918 38.4833 78.3905 37.1562L76.7305 40.16ZM80.9137 44.3062L78.9242 41.5097L73.4083 45.4337L75.3978 48.2302L77.3872 51.0268L82.9031 47.1027L80.9137 44.3062ZM75.3978 48.2302L78.615 47.0353C78.1109 45.678 77.294 44.4308 76.0677 43.4988L73.991 46.2312L71.9144 48.9636C71.9221 48.9694 72.043 49.0549 72.1805 49.4252L75.3978 48.2302ZM73.991 46.2312L76.1213 43.5404C75.1497 42.7712 74.046 42.225 72.8343 41.9325L72.029 45.2687L71.2237 48.6049C71.4435 48.6579 71.6477 48.7534 71.8608 48.922L73.991 46.2312ZM72.029 45.2687L72.9718 41.9688C71.9982 41.6906 71.0022 41.5406 69.993 41.5406V44.9725V48.4045C70.3164 48.4045 70.6778 48.4519 71.0862 48.5686L72.029 45.2687ZM69.993 44.9725V41.5406C68.4879 41.5406 66.9984 41.8479 65.6403 42.5927L67.2905 45.6019L68.9407 48.6111C69.1128 48.5167 69.4249 48.4045 69.993 48.4045V44.9725ZM67.2905 45.6019L65.6755 42.5736C64.4913 43.2052 63.4822 44.0704 62.6818 45.1509L65.4396 47.1937L68.1974 49.2365C68.3842 48.9843 68.609 48.7883 68.9056 48.6301L67.2905 45.6019ZM65.4396 47.1937L62.6329 45.2186C61.9443 46.1971 61.4296 47.2708 61.0815 48.4196L64.366 49.4149L67.6505 50.4102C67.796 49.93 67.997 49.523 68.2463 49.1688L65.4396 47.1937ZM64.366 49.4149L61.055 48.5118C60.7555 49.6098 60.6009 50.7277 60.6009 51.8581H64.0328H67.4648C67.4648 51.3597 67.5323 50.8488 67.6771 50.3179L64.366 49.4149ZM64.0328 51.8581H60.6009C60.6009 53.1171 60.7889 54.3506 61.1747 55.5429L64.44 54.4865L67.7054 53.4301C67.5482 52.9442 67.4648 52.4254 67.4648 51.8581H64.0328ZM64.44 54.4865L61.1747 55.5429C61.5635 56.7447 62.1414 57.8562 62.9156 58.8517L65.6247 56.7447L68.3337 54.6377C68.0714 54.3004 67.8595 53.9065 67.7054 53.4301L64.44 54.4865ZM65.6247 56.7447L62.9548 58.9011C63.7828 59.9263 64.7997 60.7431 65.9778 61.3321L67.5127 58.2625L69.0475 55.1928C68.7448 55.0415 68.503 54.8464 68.2945 54.5882L65.6247 56.7447ZM67.5127 58.2625L66.0178 61.3518C67.2954 61.97 68.6656 62.2497 70.067 62.2497V58.8178V55.3858C69.5927 55.3858 69.26 55.2954 69.0075 55.1732L67.5127 58.2625ZM70.067 58.8178V62.2497C71.0762 62.2497 72.0722 62.0997 73.0459 61.8215L72.1031 58.5216L71.1602 55.2217C70.7519 55.3384 70.3905 55.3858 70.067 55.3858V58.8178ZM72.1031 58.5216L73.1533 61.789C74.2648 61.4317 75.2784 60.8731 76.1768 60.131L73.991 57.4851L71.8053 54.8391C71.5684 55.0348 71.3233 55.1673 71.0528 55.2543L72.1031 58.5216ZM73.991 57.4851L76.1768 60.131C77.2709 59.2271 78.0244 58.0708 78.5002 56.8021L75.2867 55.5971L72.0733 54.392C71.9567 54.7029 71.8464 54.8052 71.8053 54.8391L73.991 57.4851ZM75.2867 55.5971L73.5264 58.5433L79.4125 62.0601L81.1728 59.1139L82.9331 56.1678L77.047 52.6509L75.2867 55.5971ZM81.1728 59.1139L77.9905 57.8288C77.7269 58.4816 77.275 59.0947 76.5133 59.6698L78.5814 62.4086L80.6496 65.1475C82.3065 63.8964 83.5822 62.3129 84.3551 60.3991L81.1728 59.1139ZM78.5814 62.4086L76.5133 59.6698C75.6286 60.3379 74.6059 60.8695 73.4187 61.2525L74.4723 64.5187L75.5259 67.785C77.3989 67.1808 79.1157 66.3057 80.6496 65.1475L78.5814 62.4086ZM74.4723 64.5187L73.4667 61.2374C72.2419 61.6127 71.0627 61.7901 69.9189 61.7901V65.2221V68.6541C71.786 68.6541 73.6424 68.3626 75.4779 67.8001L74.4723 64.5187ZM69.9189 65.2221V61.7901C68.4309 61.7901 67.1453 61.5013 66.0102 60.9681L64.5511 64.0745L63.092 67.1809C65.2146 68.1778 67.5076 68.6541 69.9189 68.6541V65.2221ZM64.5511 64.0745L66.067 60.9954C64.8323 60.3876 63.7812 59.6028 62.8898 58.637L60.3679 60.9649L57.8461 63.2927C59.3239 64.8936 61.0616 66.1819 63.0353 67.1536L64.5511 64.0745ZM60.3679 60.9649L62.9357 58.6878C62.0351 57.6722 61.345 56.5544 60.852 55.322L57.6655 56.5966L54.479 57.8712C55.2694 59.8471 56.3809 61.6415 57.8002 63.242L60.3679 60.9649ZM57.6655 56.5966L60.8587 55.3387C60.3679 54.0929 60.135 52.8652 60.135 51.636H56.703H53.271C53.271 53.7633 53.6798 55.8426 54.4724 57.8545L57.6655 56.5966ZM91.97 64.1115L90.5109 67.2179L90.5303 67.227L90.5498 67.2359L91.97 64.1115ZM87.7498 61.076L85.2037 63.3772L85.2269 63.4029L85.2506 63.4281L87.7498 61.076ZM85.0474 56.7817L81.8442 58.0137L81.8557 58.0437L81.8678 58.0734L85.0474 56.7817ZM85.1214 46.8235L81.9593 45.4895L85.1214 46.8235ZM87.8979 42.6033L85.4231 40.2255L85.4221 40.2265L87.8979 42.6033ZM92.1551 39.6418L90.7918 36.4921L90.7832 36.4959L90.7745 36.4997L92.1551 39.6418ZM103.002 39.7158L101.543 42.8222L101.562 42.8313L101.582 42.8401L103.002 39.7158ZM107.185 42.7514L104.639 45.0527L107.185 42.7514ZM109.85 47.0826L106.647 48.3146L106.659 48.3446L106.671 48.3744L109.85 47.0826ZM109.813 56.9298L106.651 55.5958L106.642 55.6169L106.634 55.6381L109.813 56.9298ZM107.037 61.187L104.562 58.8092L104.561 58.8103L107.037 61.187ZM102.817 64.1486L104.197 67.2906L104.217 67.2819L104.237 67.2729L102.817 64.1486ZM91.8219 54.4865L88.5294 55.4549L88.5334 55.4684L88.5374 55.4818L91.8219 54.4865ZM92.9325 56.7077L90.1747 58.7505L90.1932 58.7755L90.2122 58.8002L92.9325 56.7077ZM94.7835 58.2625L93.1684 61.2907L93.2279 61.3224L93.2886 61.3518L94.7835 58.2625ZM100.188 58.2255L101.762 61.2752L100.188 58.2255ZM102.039 56.6336L99.2465 54.6388L99.2395 54.6487L99.2326 54.6585L102.039 56.6336ZM103.113 54.3755L99.8203 53.4071L99.8107 53.4397L99.8018 53.4724L103.113 54.3755ZM103.113 49.2668L99.8283 50.2621L103.113 49.2668ZM102.002 47.0826L99.2444 49.1254L99.263 49.1505L99.282 49.1752L102.002 47.0826ZM100.114 45.5278L101.609 42.4385H101.609L100.114 45.5278ZM94.7465 45.5648L93.1724 42.5151L93.1518 42.5257L93.1314 42.5366L94.7465 45.5648ZM92.8955 47.1567L95.6158 49.2492L95.6347 49.2245L95.6533 49.1995L92.8955 47.1567ZM91.7849 49.3778L88.4924 48.4095L88.4828 48.442L88.4739 48.4748L91.7849 49.3778ZM97.4118 65.2221V61.7901C95.845 61.7901 94.5233 61.5022 93.3902 60.9872L91.97 64.1115L90.5498 67.2359C92.6744 68.2016 94.9806 68.6541 97.4118 68.6541V65.2221ZM91.97 64.1115L93.4291 61.0051C92.1749 60.4161 91.1253 59.6549 90.249 58.7238L87.7498 61.076L85.2506 63.4281C86.7435 65.0143 88.5074 66.2768 90.5109 67.2179L91.97 64.1115ZM87.7498 61.076L90.2959 58.7747C89.4004 57.7839 88.7158 56.6931 88.227 55.49L85.0474 56.7817L81.8678 58.0734C82.6623 60.0293 83.7793 61.8013 85.2037 63.3772L87.7498 61.076ZM85.0474 56.7817L88.2506 55.5497C87.7834 54.3349 87.5539 53.0988 87.5539 51.8211H84.1219H80.6899C80.6899 53.9492 81.0774 56.0201 81.8442 58.0137L85.0474 56.7817ZM84.1219 51.8211H87.5539C87.5539 50.5167 87.7993 49.3053 88.2835 48.1575L85.1214 46.8235L81.9593 45.4895C81.1109 47.5007 80.6899 49.621 80.6899 51.8211H84.1219ZM85.1214 46.8235L88.2835 48.1575C88.7871 46.9638 89.4803 45.9107 90.3737 44.9801L87.8979 42.6033L85.4221 40.2265C83.9462 41.7639 82.7884 43.5243 81.9593 45.4895L85.1214 46.8235ZM87.8979 42.6033L90.3727 44.9811C91.2647 44.0527 92.31 43.3224 93.5357 42.7838L92.1551 39.6418L90.7745 36.4997C88.7425 37.3925 86.9497 38.6366 85.4231 40.2255L87.8979 42.6033ZM92.1551 39.6418L93.5184 42.7914C94.7072 42.2768 96.0403 42.0002 97.5599 42.0002V38.5682V35.1362C95.1802 35.1362 92.9101 35.5753 90.7918 36.4921L92.1551 39.6418ZM97.5599 38.5682V42.0002C99.111 42.0002 100.419 42.2943 101.543 42.8222L103.002 39.7158L104.461 36.6094C102.327 35.6072 100.007 35.1362 97.5599 35.1362V38.5682ZM103.002 39.7158L101.582 42.8401C102.798 43.393 103.805 44.1299 104.639 45.0527L107.185 42.7514L109.731 40.4501C108.245 38.8062 106.463 37.5194 104.422 36.5914L103.002 39.7158ZM107.185 42.7514L104.639 45.0527C105.518 46.0251 106.183 47.1069 106.647 48.3146L109.85 47.0826L113.054 45.8506C112.284 43.8501 111.172 42.0444 109.731 40.4501L107.185 42.7514ZM109.85 47.0826L106.671 48.3744C107.148 49.5503 107.381 50.741 107.381 51.9692H110.813H114.245C114.245 49.841 113.836 47.774 113.03 45.7909L109.85 47.0826ZM110.813 51.9692H107.381C107.381 53.2422 107.138 54.4418 106.651 55.5958L109.813 56.9298L112.975 58.2638C113.821 56.2588 114.245 54.1513 114.245 51.9692H110.813ZM109.813 56.9298L106.634 55.6381C106.16 56.8044 105.477 57.857 104.562 58.8092L107.037 61.187L109.512 63.5648C111.015 61.9997 112.183 60.2141 112.993 58.2215L109.813 56.9298ZM107.037 61.187L104.561 58.8103C103.692 59.716 102.648 60.4554 101.396 61.0242L102.817 64.1486L104.237 67.2729C106.243 66.3609 108.013 65.1259 109.513 63.5638L107.037 61.187ZM102.817 64.1486L101.436 61.0065C100.288 61.511 98.9633 61.7901 97.4118 61.7901V65.2221V68.6541C99.8091 68.6541 102.088 68.2175 104.197 67.2906L102.817 64.1486ZM91.4517 51.8952H88.0197C88.0197 53.1062 88.1886 54.2963 88.5294 55.4549L91.8219 54.4865L95.1144 53.5181C94.9616 52.9985 94.8837 52.4611 94.8837 51.8952H91.4517ZM91.8219 54.4865L88.5374 55.4818C88.8954 56.663 89.4406 57.7594 90.1747 58.7505L92.9325 56.7077L95.6903 54.6649C95.4372 54.3232 95.2421 53.9389 95.1064 53.4912L91.8219 54.4865ZM92.9325 56.7077L90.2122 58.8002C91.0144 59.843 92.0134 60.6747 93.1684 61.2907L94.7835 58.2625L96.3985 55.2343C96.0728 55.0605 95.8378 54.8556 95.6528 54.6152L92.9325 56.7077ZM94.7835 58.2625L93.2886 61.3518C94.6108 61.9916 96.0433 62.2497 97.4859 62.2497V58.8178V55.3858C96.8554 55.3858 96.4863 55.2738 96.2783 55.1732L94.7835 58.2625ZM97.4859 58.8178V62.2497C98.9594 62.2497 100.421 61.9675 101.762 61.2752L100.188 58.2255L98.6142 55.1757C98.4255 55.2731 98.0854 55.3858 97.4859 55.3858V58.8178ZM100.188 58.2255L101.762 61.2752C102.99 60.6415 104.041 59.753 104.846 58.6087L102.039 56.6336L99.2326 54.6585C99.1 54.8469 98.9165 55.0197 98.6142 55.1757L100.188 58.2255ZM102.039 56.6336L104.832 58.6284C105.56 57.609 106.094 56.487 106.424 55.2785L103.113 54.3755L99.8018 53.4724C99.6871 53.8928 99.5056 54.2762 99.2465 54.6388L102.039 56.6336ZM103.113 54.3755L106.405 55.3438C106.743 54.1943 106.915 53.0168 106.915 51.8211H103.483H100.051C100.051 52.353 99.9758 52.8784 99.8203 53.4071L103.113 54.3755ZM103.483 51.8211H106.915C106.915 50.6104 106.746 49.4226 106.397 48.2715L103.113 49.2668L99.8283 50.2621C99.9731 50.7398 100.051 51.2549 100.051 51.8211H103.483ZM103.113 49.2668L106.397 48.2715C106.036 47.0808 105.482 45.977 104.723 44.9901L102.002 47.0826L99.282 49.1752C99.51 49.4716 99.6956 49.8239 99.8283 50.2621L103.113 49.2668ZM102.002 47.0826L104.76 45.0398C103.928 43.9163 102.861 43.0441 101.609 42.4385L100.114 45.5278L98.6194 48.6172C98.898 48.752 99.0895 48.9163 99.2444 49.1254L102.002 47.0826ZM100.114 45.5278L101.609 42.4385C100.297 41.8038 98.8808 41.5406 97.4489 41.5406V44.9725V48.4045C98.0406 48.4045 98.401 48.5115 98.6194 48.6172L100.114 45.5278ZM97.4489 44.9725V41.5406C95.9753 41.5406 94.5138 41.8228 93.1724 42.5151L94.7465 45.5648L96.3205 48.6146C96.5092 48.5172 96.8493 48.4045 97.4489 48.4045V44.9725ZM94.7465 45.5648L93.1314 42.5366C91.9472 43.1682 90.9381 44.0333 90.1377 45.1139L92.8955 47.1567L95.6533 49.1995C95.8401 48.9473 96.0649 48.7513 96.3615 48.5931L94.7465 45.5648ZM92.8955 47.1567L90.1752 45.0642C89.4029 46.0681 88.8492 47.1964 88.4924 48.4095L91.7849 49.3778L95.0774 50.3462C95.2142 49.8811 95.4008 49.5286 95.6158 49.2492L92.8955 47.1567ZM91.7849 49.3778L88.4739 48.4748C88.1696 49.5904 88.0197 50.7335 88.0197 51.8952H91.4517H94.8837C94.8837 51.3293 94.956 50.7942 95.096 50.2809L91.7849 49.3778ZM122.572 64.2966L121.289 67.4796L121.319 67.492L121.35 67.5038L122.572 64.2966ZM118.5 61.6312L116.073 64.058L116.086 64.0708L116.099 64.0834L118.5 61.6312ZM115.686 57.374L112.497 58.6405L112.508 58.669L112.52 58.6974L115.686 57.374ZM115.723 46.4903L118.868 47.8659L115.723 46.4903ZM118.574 42.3442L120.976 44.7958L120.976 44.7953L118.574 42.3442ZM122.868 39.5307L124.168 42.7071L122.868 39.5307ZM134.603 40.086L132.976 43.1077L132.991 43.1159L133.006 43.1238L134.603 40.086ZM138.898 44.2692L140.984 46.9943L143.286 45.2317L141.933 42.6673L138.898 44.2692ZM133.53 48.3783L130.46 49.9131L132.318 53.6283L135.616 51.1035L133.53 48.3783ZM131.197 45.898L129.391 48.8161L129.416 48.8318L129.442 48.8471L131.197 45.898ZM125.534 45.4538L127.026 48.5445L127.026 48.5445L125.534 45.4538ZM123.646 46.8975L121.069 44.6303L121.043 44.6599L121.018 44.6901L123.646 46.8975ZM122.424 49.1187L119.177 48.0056L119.168 48.0339L119.159 48.0623L122.424 49.1187ZM122.461 54.7086L125.697 53.5664L122.461 54.7086ZM123.683 56.8928L121.055 59.1002L121.102 59.1571L121.153 59.2118L123.683 56.8928ZM125.608 58.2995L124.156 61.4095L124.199 61.4296L124.243 61.4485L125.608 58.2995ZM131.42 57.9293L133.038 60.9556L133.065 60.9411L133.092 60.9261L131.42 57.9293ZM134.307 55.449H137.739V45.796L131.645 53.2825L134.307 55.449ZM134.307 62.4827L136.62 65.0178L137.739 63.9971V62.4827H134.307ZM133.937 56.1894H137.369V52.7574H133.937V56.1894ZM129.087 56.1894H125.655V59.6214H129.087V56.1894ZM129.087 51.0067V47.5747H125.655V51.0067H129.087ZM139.897 51.0067H143.329V47.5747H139.897V51.0067ZM139.897 65V68.432H143.329V65H139.897ZM133.937 65H130.505V68.432H133.937V65ZM127.459 65.1851V61.7531C126.163 61.7531 124.949 61.5296 123.794 61.0895L122.572 64.2966L121.35 67.5038C123.304 68.2482 125.348 68.6171 127.459 68.6171V65.1851ZM122.572 64.2966L123.855 61.1137C122.744 60.6656 121.766 60.0262 120.901 59.1791L118.5 61.6312L116.099 64.0834C117.603 65.5562 119.34 66.6937 121.289 67.4796L122.572 64.2966ZM118.5 61.6312L120.927 59.2045C120.08 58.3575 119.384 57.3208 118.853 56.0507L115.686 57.374L112.52 58.6974C113.371 60.7343 114.551 62.5357 116.073 64.058L118.5 61.6312ZM115.686 57.374L118.876 56.1075C118.397 54.9008 118.119 53.4297 118.119 51.636H114.687H111.255C111.255 54.1365 111.643 56.4908 112.497 58.6405L115.686 57.374ZM114.687 51.636H118.119C118.119 50.2232 118.38 48.9804 118.868 47.8659L115.723 46.4903L112.579 45.1147C111.685 47.1592 111.255 49.3469 111.255 51.636H114.687ZM115.723 46.4903L118.868 47.8659C119.386 46.6818 120.086 45.6669 120.976 44.7958L118.574 42.3442L116.172 39.8925C114.643 41.3907 113.443 43.1399 112.579 45.1147L115.723 46.4903ZM118.574 42.3442L120.976 44.7953C121.887 43.9027 122.942 43.2086 124.168 42.7071L122.868 39.5307L121.569 36.3542C119.537 37.1855 117.729 38.367 116.172 39.893L118.574 42.3442ZM122.868 39.5307L124.168 42.7071C125.352 42.2226 126.671 41.9632 128.162 41.9632V38.5312V35.0992C125.852 35.0992 123.642 35.5061 121.569 36.3542L122.868 39.5307ZM128.162 38.5312V41.9632C130.012 41.9632 131.592 42.3627 132.976 43.1077L134.603 40.086L136.23 37.0642C133.764 35.7362 131.05 35.0992 128.162 35.0992V38.5312ZM134.603 40.086L133.006 43.1238C134.371 43.8411 135.275 44.758 135.862 45.8711L138.898 44.2692L141.933 42.6673C140.645 40.2265 138.686 38.3546 136.2 37.0481L134.603 40.086ZM138.898 44.2692L136.811 41.544L131.444 45.6532L133.53 48.3783L135.616 51.1035L140.984 46.9943L138.898 44.2692ZM133.53 48.3783L136.599 46.8435C135.775 45.1947 134.53 43.8874 132.953 42.9489L131.197 45.898L129.442 48.8471C129.939 49.1426 130.248 49.4889 130.46 49.9131L133.53 48.3783ZM131.197 45.898L133.004 42.9799C131.454 42.0203 129.734 41.5035 127.903 41.5035V44.9355V48.3675C128.391 48.3675 128.868 48.4924 129.391 48.8161L131.197 45.898ZM127.903 44.9355V41.5035C126.568 41.5035 125.262 41.7739 124.041 42.3631L125.534 45.4538L127.026 48.5445C127.237 48.4426 127.51 48.3675 127.903 48.3675V44.9355ZM125.534 45.4538L124.041 42.3631C122.899 42.9148 121.904 43.6812 121.069 44.6303L123.646 46.8975L126.222 49.1648C126.473 48.88 126.737 48.6838 127.026 48.5445L125.534 45.4538ZM123.646 46.8975L121.018 44.6901C120.194 45.6709 119.593 46.7949 119.177 48.0056L122.424 49.1187L125.67 50.2318C125.848 49.7149 126.061 49.3582 126.273 49.105L123.646 46.8975ZM122.424 49.1187L119.159 48.0623C118.762 49.2887 118.585 50.5765 118.585 51.8952H122.017H125.449C125.449 51.1901 125.543 50.6269 125.689 50.1751L122.424 49.1187ZM122.017 51.8952H118.585C118.585 53.2579 118.78 54.5899 119.225 55.8509L122.461 54.7086L125.697 53.5664C125.55 53.1491 125.449 52.6055 125.449 51.8952H122.017ZM122.461 54.7086L119.225 55.8509C119.644 57.0382 120.245 58.1363 121.055 59.1002L123.683 56.8928L126.31 54.6853C126.084 54.4153 125.87 54.0572 125.697 53.5664L122.461 54.7086ZM123.683 56.8928L121.153 59.2118C122.005 60.1417 123.015 60.8769 124.156 61.4095L125.608 58.2995L127.059 55.1895C126.719 55.0311 126.446 54.8285 126.212 54.5737L123.683 56.8928ZM125.608 58.2995L124.243 61.4485C125.467 61.9791 126.767 62.2127 128.088 62.2127V58.7808V55.3488C127.582 55.3488 127.229 55.2616 126.972 55.1505L125.608 58.2995ZM128.088 58.7808V62.2127C129.834 62.2127 131.499 61.7792 133.038 60.9556L131.42 57.9293L129.801 54.903C129.218 55.2147 128.661 55.3488 128.088 55.3488V58.7808ZM131.42 57.9293L133.092 60.9261C134.577 60.0971 135.865 58.9714 136.969 57.6155L134.307 55.449L131.645 53.2825C131.021 54.0491 130.384 54.5769 129.747 54.9325L131.42 57.9293ZM134.307 55.449H130.875V62.4827H134.307H137.739V55.449H134.307ZM134.307 62.4827L131.994 59.9475C130.63 61.1922 129.165 61.7531 127.459 61.7531V65.1851V68.6171C130.935 68.6171 134.036 67.3764 136.62 65.0178L134.307 62.4827ZM133.937 56.1894V52.7574H129.087V56.1894V59.6214H133.937V56.1894ZM129.087 56.1894H132.519V51.0067H129.087H125.655V56.1894H129.087ZM129.087 51.0067V54.4387H139.897V51.0067V47.5747H129.087V51.0067ZM139.897 51.0067H136.465V65H139.897H143.329V51.0067H139.897ZM139.897 65V61.568H133.937V65V68.432H139.897V65ZM133.937 65H137.369V56.1894H133.937H130.505V65H133.937ZM152.9 52.0802L155.57 49.9233L149.468 42.3722V52.0802H152.9ZM152.9 65V68.432H156.332V65H152.9ZM145.682 65H142.25V68.432H145.682V65ZM145.682 38.7163V35.2843H142.25V38.7163H145.682ZM151.309 38.7163L154.002 36.5897L152.972 35.2843H151.309V38.7163ZM161.859 52.0802L159.165 54.2069L165.291 61.9661V52.0802H161.859ZM161.859 38.7163V35.2843H158.427V38.7163H161.859ZM169.078 38.7163H172.51V35.2843H169.078V38.7163ZM169.078 65V68.432H172.51V65H169.078ZM163.34 65L160.67 67.157L161.701 68.432H163.34V65ZM152.9 52.0802H149.468V65H152.9H156.332V52.0802H152.9ZM152.9 65V61.568H145.682V65V68.432H152.9V65ZM145.682 65H149.114V38.7163H145.682H142.25V65H145.682ZM145.682 38.7163V42.1482H151.309V38.7163V35.2843H145.682V38.7163ZM151.309 38.7163L148.615 40.8429L159.165 54.2069L161.859 52.0802L164.553 49.9536L154.002 36.5897L151.309 38.7163ZM161.859 52.0802H165.291V38.7163H161.859H158.427V52.0802H161.859ZM161.859 38.7163V42.1482H169.078V38.7163V35.2843H161.859V38.7163ZM169.078 38.7163H165.646V65H169.078H172.51V38.7163H169.078ZM169.078 65V61.568H163.34V65V68.432H169.078V65ZM163.34 65L166.009 62.843L155.57 49.9233L152.9 52.0802L150.231 54.2372L160.67 67.157L163.34 65ZM175.812 65H172.38V68.432H175.812V65ZM175.812 38.7163V35.2843H172.38V38.7163H175.812ZM183.031 38.7163H186.463V35.2843H183.031V38.7163ZM183.031 65V68.432H186.463V65H183.031ZM175.812 65H179.244V38.7163H175.812H172.38V65H175.812ZM175.812 38.7163V42.1482H183.031V38.7163V35.2843H175.812V38.7163ZM183.031 38.7163H179.599V65H183.031H186.463V38.7163H183.031ZM183.031 65V61.568H175.812V65V68.432H183.031V65ZM210.254 45.0096V48.4415H213.686V45.0096H210.254ZM202.702 45.0096V41.5776H199.27V45.0096H202.702ZM202.702 65V68.432H206.134V65H202.702ZM195.483 65H192.051V68.432H195.483V65ZM195.483 45.0096H198.915V41.5776H195.483V45.0096ZM187.894 45.0096H184.462V48.4415H187.894V45.0096ZM187.894 38.7163V35.2843H184.462V38.7163H187.894ZM210.254 38.7163H213.686V35.2843H210.254V38.7163ZM210.254 45.0096V41.5776H202.702V45.0096V48.4415H210.254V45.0096ZM202.702 45.0096H199.27V65H202.702H206.134V45.0096H202.702ZM202.702 65V61.568H195.483V65V68.432H202.702V65ZM195.483 65H198.915V45.0096H195.483H192.051V65H195.483ZM195.483 45.0096V41.5776H187.894V45.0096V48.4415H195.483V45.0096ZM187.894 45.0096H191.326V38.7163H187.894H184.462V45.0096H187.894ZM187.894 38.7163V42.1482H210.254V38.7163V35.2843H187.894V38.7163ZM210.254 38.7163H206.822V45.0096H210.254H213.686V38.7163H210.254ZM215.104 65H211.672V68.432H215.104V65ZM215.104 38.7163V35.2843H211.672V38.7163H215.104ZM222.323 38.7163H225.755V35.2843H222.323V38.7163ZM222.323 65V68.432H225.755V65H222.323ZM215.104 65H218.536V38.7163H215.104H211.672V65H215.104ZM215.104 38.7163V42.1482H222.323V38.7163V35.2843H215.104V38.7163ZM222.323 38.7163H218.891V65H222.323H225.755V38.7163H222.323ZM222.323 65V61.568H215.104V65V68.432H222.323V65ZM235.479 64.1115L234.02 67.2179L234.04 67.227L234.059 67.2359L235.479 64.1115ZM231.259 61.076L228.713 63.3772L228.736 63.4029L228.76 63.4281L231.259 61.076ZM228.557 56.7817L225.353 58.0137L225.365 58.0437L225.377 58.0734L228.557 56.7817ZM228.631 46.8235L225.469 45.4895L228.631 46.8235ZM231.407 42.6033L228.932 40.2255L228.931 40.2265L231.407 42.6033ZM235.664 39.6418L234.301 36.4921L234.292 36.4959L234.284 36.4997L235.664 39.6418ZM246.511 39.7158L245.052 42.8222L245.071 42.8313L245.091 42.8401L246.511 39.7158ZM250.694 42.7514L248.148 45.0527L250.694 42.7514ZM253.36 47.0826L250.156 48.3146L250.168 48.3446L250.18 48.3744L253.36 47.0826ZM253.323 56.9298L250.16 55.5958L250.152 55.6169L250.143 55.6381L253.323 56.9298ZM250.546 61.187L248.071 58.8092L248.07 58.8103L250.546 61.187ZM246.326 64.1486L247.706 67.2906L247.726 67.2819L247.746 67.2729L246.326 64.1486ZM235.331 54.4865L232.039 55.4549L232.043 55.4684L232.047 55.4818L235.331 54.4865ZM236.442 56.7077L233.684 58.7505L233.702 58.7755L233.721 58.8002L236.442 56.7077ZM238.293 58.2625L236.678 61.2907L236.737 61.3224L236.798 61.3518L238.293 58.2625ZM243.698 58.2255L245.272 61.2752L243.698 58.2255ZM245.548 56.6336L242.756 54.6388L242.749 54.6487L242.742 54.6585L245.548 56.6336ZM246.622 54.3755L243.33 53.4071L243.32 53.4397L243.311 53.4724L246.622 54.3755ZM246.622 49.2668L243.338 50.2621L246.622 49.2668ZM245.511 47.0826L242.754 49.1254L242.772 49.1505L242.791 49.1752L245.511 47.0826ZM243.623 45.5278L245.118 42.4385L243.623 45.5278ZM238.256 45.5648L236.682 42.5151L236.661 42.5257L236.641 42.5366L238.256 45.5648ZM236.405 47.1567L239.125 49.2492L239.144 49.2245L239.163 49.1995L236.405 47.1567ZM235.294 49.3778L232.002 48.4095L231.992 48.442L231.983 48.4748L235.294 49.3778ZM240.921 65.2221V61.7901C239.354 61.7901 238.033 61.5022 236.899 60.9872L235.479 64.1115L234.059 67.2359C236.184 68.2016 238.49 68.6541 240.921 68.6541V65.2221ZM235.479 64.1115L236.938 61.0051C235.684 60.4161 234.635 59.6549 233.758 58.7238L231.259 61.076L228.76 63.4281C230.253 65.0143 232.017 66.2768 234.02 67.2179L235.479 64.1115ZM231.259 61.076L233.805 58.7747C232.91 57.7839 232.225 56.6931 231.736 55.49L228.557 56.7817L225.377 58.0734C226.172 60.0293 227.289 61.8013 228.713 63.3772L231.259 61.076ZM228.557 56.7817L231.76 55.5497C231.293 54.3349 231.063 53.0988 231.063 51.8211H227.631H224.199C224.199 53.9492 224.587 56.0201 225.353 58.0137L228.557 56.7817ZM227.631 51.8211H231.063C231.063 50.5167 231.309 49.3053 231.793 48.1575L228.631 46.8235L225.469 45.4895C224.62 47.5007 224.199 49.621 224.199 51.8211H227.631ZM228.631 46.8235L231.793 48.1575C232.296 46.9638 232.99 45.9107 233.883 44.9801L231.407 42.6033L228.931 40.2265C227.455 41.7639 226.298 43.5243 225.469 45.4895L228.631 46.8235ZM231.407 42.6033L233.882 44.9811C234.774 44.0527 235.819 43.3224 237.045 42.7838L235.664 39.6418L234.284 36.4997C232.252 37.3925 230.459 38.6366 228.932 40.2255L231.407 42.6033ZM235.664 39.6418L237.028 42.7914C238.216 42.2768 239.549 42.0002 241.069 42.0002V38.5682V35.1362C238.689 35.1362 236.419 35.5753 234.301 36.4921L235.664 39.6418ZM241.069 38.5682V42.0002C242.62 42.0002 243.928 42.2943 245.052 42.8222L246.511 39.7158L247.97 36.6094C245.836 35.6072 243.516 35.1362 241.069 35.1362V38.5682ZM246.511 39.7158L245.091 42.8401C246.307 43.393 247.314 44.1299 248.148 45.0527L250.694 42.7514L253.24 40.4501C251.754 38.8062 249.973 37.5194 247.931 36.5914L246.511 39.7158ZM250.694 42.7514L248.148 45.0527C249.027 46.0251 249.692 47.1069 250.156 48.3146L253.36 47.0826L256.563 45.8506C255.793 43.8501 254.681 42.0444 253.24 40.4501L250.694 42.7514ZM253.36 47.0826L250.18 48.3744C250.658 49.5503 250.89 50.741 250.89 51.9692H254.322H257.754C257.754 49.841 257.345 47.774 256.539 45.7909L253.36 47.0826ZM254.322 51.9692H250.89C250.89 53.2422 250.647 54.4418 250.16 55.5958L253.323 56.9298L256.485 58.2638C257.331 56.2588 257.754 54.1513 257.754 51.9692H254.322ZM253.323 56.9298L250.143 55.6381C249.669 56.8044 248.986 57.857 248.071 58.8092L250.546 61.187L253.021 63.5648C254.525 61.9997 255.693 60.2141 256.502 58.2215L253.323 56.9298ZM250.546 61.187L248.07 58.8103C247.201 59.716 246.157 60.4554 244.906 61.0242L246.326 64.1486L247.746 67.2729C249.753 66.3609 251.522 65.1259 253.022 63.5638L250.546 61.187ZM246.326 64.1486L244.945 61.0065C243.797 61.511 242.473 61.7901 240.921 61.7901V65.2221V68.6541C243.318 68.6541 245.597 68.2175 247.706 67.2906L246.326 64.1486ZM234.961 51.8952H231.529C231.529 53.1062 231.698 54.2963 232.039 55.4549L235.331 54.4865L238.624 53.5181C238.471 52.9985 238.393 52.4611 238.393 51.8952H234.961ZM235.331 54.4865L232.047 55.4818C232.405 56.663 232.95 57.7594 233.684 58.7505L236.442 56.7077L239.2 54.6649C238.946 54.3232 238.751 53.9389 238.616 53.4912L235.331 54.4865ZM236.442 56.7077L233.721 58.8002C234.524 59.843 235.523 60.6747 236.678 61.2907L238.293 58.2625L239.908 55.2343C239.582 55.0605 239.347 54.8556 239.162 54.6152L236.442 56.7077ZM238.293 58.2625L236.798 61.3518C238.12 61.9916 239.553 62.2497 240.995 62.2497V58.8178V55.3858C240.365 55.3858 239.995 55.2738 239.788 55.1732L238.293 58.2625ZM240.995 58.8178V62.2497C242.469 62.2497 243.93 61.9675 245.272 61.2752L243.698 58.2255L242.123 55.1757C241.935 55.2731 241.595 55.3858 240.995 55.3858V58.8178ZM243.698 58.2255L245.272 61.2752C246.499 60.6415 247.55 59.753 248.355 58.6087L245.548 56.6336L242.742 54.6585C242.609 54.8469 242.426 55.0197 242.123 55.1757L243.698 58.2255ZM245.548 56.6336L248.341 58.6284C249.069 57.609 249.604 56.487 249.933 55.2785L246.622 54.3755L243.311 53.4724C243.196 53.8928 243.015 54.2762 242.756 54.6388L245.548 56.6336ZM246.622 54.3755L249.915 55.3438C250.253 54.1943 250.424 53.0168 250.424 51.8211H246.992H243.56C243.56 52.353 243.485 52.8784 243.33 53.4071L246.622 54.3755ZM246.992 51.8211H250.424C250.424 50.6104 250.255 49.4226 249.907 48.2715L246.622 49.2668L243.338 50.2621C243.482 50.7398 243.56 51.2549 243.56 51.8211H246.992ZM246.622 49.2668L249.907 48.2715C249.546 47.0808 248.991 45.977 248.232 44.9901L245.511 47.0826L242.791 49.1752C243.019 49.4716 243.205 49.8239 243.338 50.2621L246.622 49.2668ZM245.511 47.0826L248.269 45.0398C247.437 43.9163 246.37 43.0441 245.118 42.4385L243.623 45.5278L242.129 48.6172C242.407 48.752 242.599 48.9163 242.754 49.1254L245.511 47.0826ZM243.623 45.5278L245.118 42.4385C243.807 41.8038 242.39 41.5406 240.958 41.5406V44.9725V48.4045C241.55 48.4045 241.91 48.5115 242.129 48.6172L243.623 45.5278ZM240.958 44.9725V41.5406C239.485 41.5406 238.023 41.8228 236.682 42.5151L238.256 45.5648L239.83 48.6146C240.018 48.5172 240.359 48.4045 240.958 48.4045V44.9725ZM238.256 45.5648L236.641 42.5366C235.456 43.1682 234.447 44.0333 233.647 45.1139L236.405 47.1567L239.163 49.1995C239.349 48.9473 239.574 48.7513 239.871 48.5931L238.256 45.5648ZM236.405 47.1567L233.684 45.0642C232.912 46.0681 232.358 47.1964 232.002 48.4095L235.294 49.3778L238.587 50.3462C238.723 49.8811 238.91 49.5286 239.125 49.2492L236.405 47.1567ZM235.294 49.3778L231.983 48.4748C231.679 49.5904 231.529 50.7335 231.529 51.8952H234.961H238.393C238.393 51.3293 238.465 50.7942 238.605 50.2809L235.294 49.3778ZM266.822 52.0802L269.491 49.9233L263.39 42.3722V52.0802H266.822ZM266.822 65V68.432H270.254V65H266.822ZM259.603 65H256.171V68.432H259.603V65ZM259.603 38.7163V35.2843H256.171V38.7163H259.603ZM265.23 38.7163L267.923 36.5897L266.893 35.2843H265.23V38.7163ZM275.78 52.0802L273.087 54.2069L279.212 61.9661V52.0802H275.78ZM275.78 38.7163V35.2843H272.348V38.7163H275.78ZM282.999 38.7163H286.431V35.2843H282.999V38.7163ZM282.999 65V68.432H286.431V65H282.999ZM277.261 65L274.592 67.157L275.622 68.432H277.261V65ZM266.822 52.0802H263.39V65H266.822H270.254V52.0802H266.822ZM266.822 65V61.568H259.603V65V68.432H266.822V65ZM259.603 65H263.035V38.7163H259.603H256.171V65H259.603ZM259.603 38.7163V42.1482H265.23V38.7163V35.2843H259.603V38.7163ZM265.23 38.7163L262.536 40.8429L273.087 54.2069L275.78 52.0802L278.474 49.9536L267.923 36.5897L265.23 38.7163ZM275.78 52.0802H279.212V38.7163H275.78H272.348V52.0802H275.78ZM275.78 38.7163V42.1482H282.999V38.7163V35.2843H275.78V38.7163ZM282.999 38.7163H279.567V65H282.999H286.431V38.7163H282.999ZM282.999 65V61.568H277.261V65V68.432H282.999V65ZM277.261 65L279.931 62.843L269.491 49.9233L266.822 52.0802L264.152 54.2372L274.592 67.157L277.261 65Z" fill="white" mask="url(#path-1-outside-1_1132_3)"/>
<defs>
<linearGradient id="paint0_linear_1132_3" x1="-25.5999" y1="-5.96073" x2="12.7285" y2="146.69" gradientUnits="userSpaceOnUse">
<stop stop-color="#EC6106"/>
<stop offset="1" stop-color="#EB660B"/>
</linearGradient>
</defs>
</svg>
