<svg width="385" height="69" viewBox="0 0 385 69" fill="none" xmlns="http://www.w3.org/2000/svg">
<mask id="path-1-outside-1_1132_2" maskUnits="userSpaceOnUse" x="-0.990112" y="0" width="386" height="69" fill="black">
<rect fill="white" x="-0.990112" width="386" height="69"/>
<path d="M4.82431 16.636C4.82431 15.0318 5.12047 13.4647 5.71278 11.9346C6.32977 10.3797 7.21823 8.97301 8.37817 7.71435C9.53811 6.4557 10.9448 5.45618 12.5984 4.71579C14.2766 3.95072 16.1646 3.56819 18.2623 3.56819C20.7796 3.56819 22.9761 4.0988 24.8518 5.16002C26.7274 6.19656 28.1218 7.57862 29.035 9.30619L23.5191 13.2302C23.1982 12.3665 22.7293 11.7001 22.1123 11.2312C21.52 10.7623 20.866 10.4414 20.1503 10.2687C19.4593 10.0713 18.7806 9.97254 18.1143 9.97254C17.0777 9.97254 16.1769 10.1823 15.4118 10.6019C14.6715 10.9967 14.0545 11.5273 13.5609 12.1937C13.092 12.86 12.7341 13.6004 12.4873 14.4149C12.2652 15.2293 12.1541 16.0437 12.1541 16.8581C12.1541 17.7713 12.2899 18.6474 12.5614 19.4865C12.8328 20.3256 13.2277 21.0783 13.746 21.7447C14.2642 22.3864 14.8936 22.8923 15.634 23.2625C16.399 23.6327 17.2505 23.8178 18.1883 23.8178C18.8546 23.8178 19.5333 23.7191 20.2244 23.5216C20.9154 23.2995 21.5447 22.954 22.1123 22.4851C22.68 22.0162 23.1119 21.3868 23.408 20.5971L29.2941 24.1139C28.7758 25.3973 27.912 26.4955 26.7027 27.4086C25.4934 28.3218 24.1237 29.0252 22.5936 29.5187C21.0635 29.9877 19.5457 30.2221 18.0402 30.2221C16.0905 30.2221 14.3013 29.8396 12.6724 29.0745C11.0682 28.2848 9.67385 27.2482 8.48923 25.9649C7.32929 24.6569 6.42848 23.2008 5.78682 21.5966C5.14515 19.9678 4.82431 18.3142 4.82431 16.636ZM52.8164 23.7067V30H34.0846V3.71627H52.4832V10.0096H41.3034V13.7115H50.8544V19.5605H41.3034V23.7067H52.8164ZM58.3945 30V3.71627H70.4628C71.7461 3.71627 72.9307 3.9754 74.0166 4.49367C75.1025 5.01194 76.0404 5.71531 76.8301 6.60378C77.6199 7.46756 78.2245 8.4424 78.6441 9.5283C79.0883 10.6142 79.3104 11.7124 79.3104 12.823C79.3104 13.8349 79.1623 14.8097 78.8662 15.7476C78.57 16.6854 78.1381 17.5492 77.5705 18.3389C77.0029 19.104 76.3242 19.7703 75.5344 20.338L81.0873 30H73.1652L68.5378 21.9298H65.6133V30H58.3945ZM65.6133 15.6365H70.1666C70.4628 15.6365 70.7466 15.5254 71.0181 15.3033C71.2895 15.0812 71.5117 14.7604 71.6844 14.3408C71.8819 13.9213 71.9806 13.4153 71.9806 12.823C71.9806 12.206 71.8695 11.7001 71.6474 11.3052C71.45 10.8857 71.1908 10.5648 70.87 10.3427C70.5738 10.1206 70.2777 10.0096 69.9815 10.0096H65.6133V15.6365ZM105.707 10.0096H98.1547V30H90.9359V10.0096H83.347V3.71627H105.707V10.0096ZM110.557 30V3.71627H117.776V30H110.557ZM124.528 30V3.71627H142.556V10.0096H131.746V14.3778H140.557V20.2269H131.746V30H124.528ZM147.608 30V3.71627H154.827V30H147.608ZM160.135 16.636C160.135 15.0318 160.431 13.4647 161.023 11.9346C161.64 10.3797 162.529 8.97301 163.689 7.71435C164.849 6.4557 166.255 5.45618 167.909 4.71579C169.587 3.95072 171.475 3.56819 173.573 3.56819C176.09 3.56819 178.287 4.0988 180.162 5.16002C182.038 6.19656 183.432 7.57862 184.346 9.30619L178.83 13.2302C178.509 12.3665 178.04 11.7001 177.423 11.2312C176.831 10.7623 176.177 10.4414 175.461 10.2687C174.77 10.0713 174.091 9.97254 173.425 9.97254C172.388 9.97254 171.488 10.1823 170.722 10.6019C169.982 10.9967 169.365 11.5273 168.871 12.1937C168.403 12.86 168.045 13.6004 167.798 14.4149C167.576 15.2293 167.465 16.0437 167.465 16.8581C167.465 17.7713 167.6 18.6474 167.872 19.4865C168.143 20.3256 168.538 21.0783 169.057 21.7447C169.575 22.3864 170.204 22.8923 170.945 23.2625C171.71 23.6327 172.561 23.8178 173.499 23.8178C174.165 23.8178 174.844 23.7191 175.535 23.5216C176.226 23.2995 176.855 22.954 177.423 22.4851C177.991 22.0162 178.422 21.3868 178.719 20.5971L184.605 24.1139C184.086 25.3973 183.223 26.4955 182.013 27.4086C180.804 28.3218 179.434 29.0252 177.904 29.5187C176.374 29.9877 174.856 30.2221 173.351 30.2221C171.401 30.2221 169.612 29.8396 167.983 29.0745C166.379 28.2848 164.984 27.2482 163.8 25.9649C162.64 24.6569 161.739 23.2008 161.097 21.5966C160.456 19.9678 160.135 18.3142 160.135 16.636ZM195.069 3.71627H203.139L211.505 30H204.175L202.584 24.8543H195.587L194.032 30H186.665L195.069 3.71627ZM201.436 20.0418L199.104 10.787L196.661 20.0418H201.436ZM233.96 10.0096H226.408V30H219.189V10.0096H211.6V3.71627H233.96V10.0096ZM257.542 23.7067V30H238.81V3.71627H257.209V10.0096H246.029V13.7115H255.58V19.5605H246.029V23.7067H257.542ZM285.502 30.2221C283.503 30.2221 281.689 29.8519 280.061 29.1115C278.432 28.3465 277.025 27.3346 275.84 26.0759C274.68 24.7926 273.78 23.3612 273.138 21.7817C272.521 20.1775 272.212 18.524 272.212 16.8211C272.212 15.0689 272.546 13.403 273.212 11.8235C273.878 10.244 274.804 8.83728 275.988 7.6033C277.198 6.34464 278.617 5.35746 280.246 4.64175C281.899 3.92604 283.701 3.56819 285.65 3.56819C287.649 3.56819 289.463 3.95072 291.092 4.71579C292.721 5.45618 294.116 6.46804 295.275 7.75138C296.435 9.03471 297.324 10.4785 297.941 12.0826C298.583 13.6621 298.903 15.291 298.903 16.9692C298.903 18.6968 298.57 20.3503 297.904 21.9298C297.262 23.5093 296.337 24.9283 295.127 26.187C293.943 27.421 292.536 28.4082 290.907 29.1486C289.278 29.8643 287.477 30.2221 285.502 30.2221ZM279.542 16.8952C279.542 17.7836 279.666 18.6474 279.912 19.4865C280.159 20.3009 280.529 21.0413 281.023 21.7077C281.517 22.3493 282.134 22.8676 282.874 23.2625C283.639 23.6327 284.54 23.8178 285.576 23.8178C286.613 23.8178 287.514 23.6203 288.279 23.2255C289.044 22.8306 289.661 22.3 290.13 21.6336C290.623 20.9426 290.981 20.1899 291.203 19.3754C291.45 18.5363 291.574 17.6849 291.574 16.8211C291.574 15.9327 291.45 15.0812 291.203 14.2668C290.957 13.4524 290.586 12.7243 290.093 12.0826C289.599 11.4163 288.97 10.898 288.205 10.5278C287.44 10.1576 286.551 9.97254 285.539 9.97254C284.503 9.97254 283.602 10.17 282.837 10.5648C282.097 10.9597 281.48 11.4903 280.986 12.1567C280.492 12.7983 280.122 13.5387 279.875 14.3778C279.653 15.1923 279.542 16.0314 279.542 16.8952ZM304.184 30V3.71627H322.213V10.0096H311.403V14.3778H320.213V20.2269H311.403V30H304.184ZM22.1864 47.3048C22.1864 47.3048 21.9766 47.1814 21.5571 46.9346C21.1375 46.6878 20.5822 46.4163 19.8912 46.1201C19.2002 45.7993 18.4474 45.5155 17.633 45.2687C16.8186 45.0219 16.0165 44.8985 15.2267 44.8985C14.6098 44.8985 14.1038 44.9972 13.709 45.1947C13.3141 45.3921 13.1166 45.7253 13.1166 46.1942C13.1166 46.6384 13.3141 46.9963 13.709 47.2677C14.1038 47.5392 14.6591 47.786 15.3748 48.0081C16.1152 48.2302 16.9913 48.5017 18.0032 48.8225C19.6321 49.3161 21.0388 49.8838 22.2234 50.5254C23.408 51.1671 24.3212 51.9939 24.9628 53.0057C25.6045 53.9929 25.9253 55.3133 25.9253 56.9668C25.9253 58.5463 25.6415 59.879 25.0739 60.9649C24.5063 62.0261 23.7412 62.8776 22.7787 63.5192C21.8162 64.1609 20.7426 64.6298 19.558 64.926C18.3734 65.1974 17.1641 65.3332 15.9301 65.3332C14.6715 65.3332 13.3511 65.2098 11.969 64.963C10.6117 64.6915 9.29131 64.3337 8.00798 63.8894C6.72464 63.4205 5.55236 62.8776 4.49114 62.2606L7.60076 55.9303C7.60076 55.9303 7.84756 56.0783 8.34115 56.3745C8.83474 56.6706 9.48875 57.0038 10.3032 57.374C11.1176 57.7442 12.0184 58.0774 13.0056 58.3735C14.0174 58.6697 15.0293 58.8178 16.0412 58.8178C16.8309 58.8178 17.3739 58.7191 17.67 58.5216C17.9909 58.2995 18.1513 58.0157 18.1513 57.6702C18.1513 57.1519 17.8798 56.757 17.3369 56.4856C16.7939 56.1894 16.0782 55.9179 15.1897 55.6711C14.3259 55.3997 13.3634 55.0912 12.3022 54.7456C10.7721 54.2274 9.51343 53.6474 8.52625 53.0057C7.53906 52.3394 6.81102 51.562 6.34211 50.6735C5.87319 49.7604 5.63874 48.6621 5.63874 47.3788C5.63874 45.4291 6.09531 43.8003 7.00845 42.4922C7.9216 41.1842 9.11856 40.197 10.5993 39.5307C12.1048 38.8397 13.7213 38.4942 15.4489 38.4942C16.7322 38.4942 17.9662 38.6546 19.1508 38.9754C20.3601 39.2716 21.483 39.6418 22.5196 40.086C23.5808 40.5302 24.5063 40.9498 25.296 41.3446L22.1864 47.3048ZM31.3371 65V38.7163H38.5559V48.7115L46.5521 38.7163H54.6963L45.1453 50.4884L55.3627 65H47.0703L40.5549 55.338L38.5559 57.411V65H31.3371ZM59.1175 65V38.7163H66.3363V65H59.1175ZM73.088 65V38.7163H80.3067V58.7067H92.227V65H73.088ZM96.964 65V38.7163H104.183V58.7067H116.103V65H96.964ZM149.023 58.7067V65H130.292V38.7163H148.69V45.0096H137.51V48.7115H147.061V54.5605H137.51V58.7067H149.023ZM159.747 38.7163L164.523 47.0086L169.298 38.7163H177.072L168.817 52.0432L176.776 65H169.002L164.523 57.0779L160.043 65H152.232L160.191 52.0432L151.936 38.7163H159.747ZM178.552 51.636C178.552 50.0318 178.848 48.4647 179.44 46.9346C180.057 45.3797 180.946 43.973 182.106 42.7144C183.266 41.4557 184.673 40.4562 186.326 39.7158C188.004 38.9507 189.892 38.5682 191.99 38.5682C194.507 38.5682 196.704 39.0988 198.579 40.16C200.455 41.1966 201.85 42.5786 202.763 44.3062L197.247 48.2302C196.926 47.3665 196.457 46.7001 195.84 46.2312C195.248 45.7623 194.594 45.4414 193.878 45.2687C193.187 45.0713 192.508 44.9725 191.842 44.9725C190.805 44.9725 189.905 45.1823 189.14 45.6019C188.399 45.9967 187.782 46.5273 187.289 47.1937C186.82 47.86 186.462 48.6004 186.215 49.4149C185.993 50.2293 185.882 51.0437 185.882 51.8581C185.882 52.7713 186.018 53.6474 186.289 54.4865C186.561 55.3256 186.955 56.0783 187.474 56.7447C187.992 57.3864 188.621 57.8923 189.362 58.2625C190.127 58.6327 190.978 58.8178 191.916 58.8178C192.582 58.8178 193.261 58.7191 193.952 58.5216C194.643 58.2995 195.272 57.954 195.84 57.4851C196.408 57.0162 196.84 56.3868 197.136 55.5971L203.022 59.1139C202.504 60.3973 201.64 61.4955 200.43 62.4086C199.221 63.3218 197.851 64.0252 196.321 64.5187C194.791 64.9877 193.273 65.2221 191.768 65.2221C189.818 65.2221 188.029 64.8396 186.4 64.0745C184.796 63.2848 183.402 62.2482 182.217 60.9649C181.057 59.6569 180.156 58.2008 179.515 56.5966C178.873 54.9678 178.552 53.3142 178.552 51.636ZM226.544 58.7067V65H207.812V38.7163H226.211V45.0096H215.031V48.7115H224.582V54.5605H215.031V58.7067H226.544ZM232.122 65V38.7163H239.341V58.7067H251.261V65H232.122ZM255.998 65V38.7163H263.217V58.7067H275.137V65H255.998ZM298.606 58.7067V65H279.874V38.7163H298.273V45.0096H287.093V48.7115H296.644V54.5605H287.093V58.7067H298.606ZM311.403 52.0802V65H304.184V38.7163H309.811L320.362 52.0802V38.7163H327.58V65H321.842L311.403 52.0802ZM332.871 51.636C332.871 50.0318 333.167 48.4647 333.759 46.9346C334.376 45.3797 335.265 43.973 336.424 42.7144C337.584 41.4557 338.991 40.4562 340.645 39.7158C342.323 38.9507 344.211 38.5682 346.309 38.5682C348.826 38.5682 351.022 39.0988 352.898 40.16C354.774 41.1966 356.168 42.5786 357.081 44.3062L351.565 48.2302C351.245 47.3665 350.776 46.7001 350.159 46.2312C349.566 45.7623 348.912 45.4414 348.197 45.2687C347.506 45.0713 346.827 44.9725 346.161 44.9725C345.124 44.9725 344.223 45.1823 343.458 45.6019C342.718 45.9967 342.101 46.5273 341.607 47.1937C341.138 47.86 340.78 48.6004 340.534 49.4149C340.311 50.2293 340.2 51.0437 340.2 51.8581C340.2 52.7713 340.336 53.6474 340.608 54.4865C340.879 55.3256 341.274 56.0783 341.792 56.7447C342.311 57.3864 342.94 57.8923 343.68 58.2625C344.445 58.6327 345.297 58.8178 346.235 58.8178C346.901 58.8178 347.58 58.7191 348.271 58.5216C348.962 58.2995 349.591 57.954 350.159 57.4851C350.726 57.0162 351.158 56.3868 351.454 55.5971L357.34 59.1139C356.822 60.3973 355.958 61.4955 354.749 62.4086C353.54 63.3218 352.17 64.0252 350.64 64.5187C349.11 64.9877 347.592 65.2221 346.087 65.2221C344.137 65.2221 342.348 64.8396 340.719 64.0745C339.115 63.2848 337.72 62.2482 336.536 60.9649C335.376 59.6569 334.475 58.2008 333.833 56.5966C333.191 54.9678 332.871 53.3142 332.871 51.636ZM380.863 58.7067V65H362.131V38.7163H380.53V45.0096H369.35V48.7115H378.901V54.5605H369.35V58.7067H380.863Z"/>
</mask>
<path d="M4.82431 16.636C4.82431 15.0318 5.12047 13.4647 5.71278 11.9346C6.32977 10.3797 7.21823 8.97301 8.37817 7.71435C9.53811 6.4557 10.9448 5.45618 12.5984 4.71579C14.2766 3.95072 16.1646 3.56819 18.2623 3.56819C20.7796 3.56819 22.9761 4.0988 24.8518 5.16002C26.7274 6.19656 28.1218 7.57862 29.035 9.30619L23.5191 13.2302C23.1982 12.3665 22.7293 11.7001 22.1123 11.2312C21.52 10.7623 20.866 10.4414 20.1503 10.2687C19.4593 10.0713 18.7806 9.97254 18.1143 9.97254C17.0777 9.97254 16.1769 10.1823 15.4118 10.6019C14.6715 10.9967 14.0545 11.5273 13.5609 12.1937C13.092 12.86 12.7341 13.6004 12.4873 14.4149C12.2652 15.2293 12.1541 16.0437 12.1541 16.8581C12.1541 17.7713 12.2899 18.6474 12.5614 19.4865C12.8328 20.3256 13.2277 21.0783 13.746 21.7447C14.2642 22.3864 14.8936 22.8923 15.634 23.2625C16.399 23.6327 17.2505 23.8178 18.1883 23.8178C18.8546 23.8178 19.5333 23.7191 20.2244 23.5216C20.9154 23.2995 21.5447 22.954 22.1123 22.4851C22.68 22.0162 23.1119 21.3868 23.408 20.5971L29.2941 24.1139C28.7758 25.3973 27.912 26.4955 26.7027 27.4086C25.4934 28.3218 24.1237 29.0252 22.5936 29.5187C21.0635 29.9877 19.5457 30.2221 18.0402 30.2221C16.0905 30.2221 14.3013 29.8396 12.6724 29.0745C11.0682 28.2848 9.67385 27.2482 8.48923 25.9649C7.32929 24.6569 6.42848 23.2008 5.78682 21.5966C5.14515 19.9678 4.82431 18.3142 4.82431 16.636ZM52.8164 23.7067V30H34.0846V3.71627H52.4832V10.0096H41.3034V13.7115H50.8544V19.5605H41.3034V23.7067H52.8164ZM58.3945 30V3.71627H70.4628C71.7461 3.71627 72.9307 3.9754 74.0166 4.49367C75.1025 5.01194 76.0404 5.71531 76.8301 6.60378C77.6199 7.46756 78.2245 8.4424 78.6441 9.5283C79.0883 10.6142 79.3104 11.7124 79.3104 12.823C79.3104 13.8349 79.1623 14.8097 78.8662 15.7476C78.57 16.6854 78.1381 17.5492 77.5705 18.3389C77.0029 19.104 76.3242 19.7703 75.5344 20.338L81.0873 30H73.1652L68.5378 21.9298H65.6133V30H58.3945ZM65.6133 15.6365H70.1666C70.4628 15.6365 70.7466 15.5254 71.0181 15.3033C71.2895 15.0812 71.5117 14.7604 71.6844 14.3408C71.8819 13.9213 71.9806 13.4153 71.9806 12.823C71.9806 12.206 71.8695 11.7001 71.6474 11.3052C71.45 10.8857 71.1908 10.5648 70.87 10.3427C70.5738 10.1206 70.2777 10.0096 69.9815 10.0096H65.6133V15.6365ZM105.707 10.0096H98.1547V30H90.9359V10.0096H83.347V3.71627H105.707V10.0096ZM110.557 30V3.71627H117.776V30H110.557ZM124.528 30V3.71627H142.556V10.0096H131.746V14.3778H140.557V20.2269H131.746V30H124.528ZM147.608 30V3.71627H154.827V30H147.608ZM160.135 16.636C160.135 15.0318 160.431 13.4647 161.023 11.9346C161.64 10.3797 162.529 8.97301 163.689 7.71435C164.849 6.4557 166.255 5.45618 167.909 4.71579C169.587 3.95072 171.475 3.56819 173.573 3.56819C176.09 3.56819 178.287 4.0988 180.162 5.16002C182.038 6.19656 183.432 7.57862 184.346 9.30619L178.83 13.2302C178.509 12.3665 178.04 11.7001 177.423 11.2312C176.831 10.7623 176.177 10.4414 175.461 10.2687C174.77 10.0713 174.091 9.97254 173.425 9.97254C172.388 9.97254 171.488 10.1823 170.722 10.6019C169.982 10.9967 169.365 11.5273 168.871 12.1937C168.403 12.86 168.045 13.6004 167.798 14.4149C167.576 15.2293 167.465 16.0437 167.465 16.8581C167.465 17.7713 167.6 18.6474 167.872 19.4865C168.143 20.3256 168.538 21.0783 169.057 21.7447C169.575 22.3864 170.204 22.8923 170.945 23.2625C171.71 23.6327 172.561 23.8178 173.499 23.8178C174.165 23.8178 174.844 23.7191 175.535 23.5216C176.226 23.2995 176.855 22.954 177.423 22.4851C177.991 22.0162 178.422 21.3868 178.719 20.5971L184.605 24.1139C184.086 25.3973 183.223 26.4955 182.013 27.4086C180.804 28.3218 179.434 29.0252 177.904 29.5187C176.374 29.9877 174.856 30.2221 173.351 30.2221C171.401 30.2221 169.612 29.8396 167.983 29.0745C166.379 28.2848 164.984 27.2482 163.8 25.9649C162.64 24.6569 161.739 23.2008 161.097 21.5966C160.456 19.9678 160.135 18.3142 160.135 16.636ZM195.069 3.71627H203.139L211.505 30H204.175L202.584 24.8543H195.587L194.032 30H186.665L195.069 3.71627ZM201.436 20.0418L199.104 10.787L196.661 20.0418H201.436ZM233.96 10.0096H226.408V30H219.189V10.0096H211.6V3.71627H233.96V10.0096ZM257.542 23.7067V30H238.81V3.71627H257.209V10.0096H246.029V13.7115H255.58V19.5605H246.029V23.7067H257.542ZM285.502 30.2221C283.503 30.2221 281.689 29.8519 280.061 29.1115C278.432 28.3465 277.025 27.3346 275.84 26.0759C274.68 24.7926 273.78 23.3612 273.138 21.7817C272.521 20.1775 272.212 18.524 272.212 16.8211C272.212 15.0689 272.546 13.403 273.212 11.8235C273.878 10.244 274.804 8.83728 275.988 7.6033C277.198 6.34464 278.617 5.35746 280.246 4.64175C281.899 3.92604 283.701 3.56819 285.65 3.56819C287.649 3.56819 289.463 3.95072 291.092 4.71579C292.721 5.45618 294.116 6.46804 295.275 7.75138C296.435 9.03471 297.324 10.4785 297.941 12.0826C298.583 13.6621 298.903 15.291 298.903 16.9692C298.903 18.6968 298.57 20.3503 297.904 21.9298C297.262 23.5093 296.337 24.9283 295.127 26.187C293.943 27.421 292.536 28.4082 290.907 29.1486C289.278 29.8643 287.477 30.2221 285.502 30.2221ZM279.542 16.8952C279.542 17.7836 279.666 18.6474 279.912 19.4865C280.159 20.3009 280.529 21.0413 281.023 21.7077C281.517 22.3493 282.134 22.8676 282.874 23.2625C283.639 23.6327 284.54 23.8178 285.576 23.8178C286.613 23.8178 287.514 23.6203 288.279 23.2255C289.044 22.8306 289.661 22.3 290.13 21.6336C290.623 20.9426 290.981 20.1899 291.203 19.3754C291.45 18.5363 291.574 17.6849 291.574 16.8211C291.574 15.9327 291.45 15.0812 291.203 14.2668C290.957 13.4524 290.586 12.7243 290.093 12.0826C289.599 11.4163 288.97 10.898 288.205 10.5278C287.44 10.1576 286.551 9.97254 285.539 9.97254C284.503 9.97254 283.602 10.17 282.837 10.5648C282.097 10.9597 281.48 11.4903 280.986 12.1567C280.492 12.7983 280.122 13.5387 279.875 14.3778C279.653 15.1923 279.542 16.0314 279.542 16.8952ZM304.184 30V3.71627H322.213V10.0096H311.403V14.3778H320.213V20.2269H311.403V30H304.184ZM22.1864 47.3048C22.1864 47.3048 21.9766 47.1814 21.5571 46.9346C21.1375 46.6878 20.5822 46.4163 19.8912 46.1201C19.2002 45.7993 18.4474 45.5155 17.633 45.2687C16.8186 45.0219 16.0165 44.8985 15.2267 44.8985C14.6098 44.8985 14.1038 44.9972 13.709 45.1947C13.3141 45.3921 13.1166 45.7253 13.1166 46.1942C13.1166 46.6384 13.3141 46.9963 13.709 47.2677C14.1038 47.5392 14.6591 47.786 15.3748 48.0081C16.1152 48.2302 16.9913 48.5017 18.0032 48.8225C19.6321 49.3161 21.0388 49.8838 22.2234 50.5254C23.408 51.1671 24.3212 51.9939 24.9628 53.0057C25.6045 53.9929 25.9253 55.3133 25.9253 56.9668C25.9253 58.5463 25.6415 59.879 25.0739 60.9649C24.5063 62.0261 23.7412 62.8776 22.7787 63.5192C21.8162 64.1609 20.7426 64.6298 19.558 64.926C18.3734 65.1974 17.1641 65.3332 15.9301 65.3332C14.6715 65.3332 13.3511 65.2098 11.969 64.963C10.6117 64.6915 9.29131 64.3337 8.00798 63.8894C6.72464 63.4205 5.55236 62.8776 4.49114 62.2606L7.60076 55.9303C7.60076 55.9303 7.84756 56.0783 8.34115 56.3745C8.83474 56.6706 9.48875 57.0038 10.3032 57.374C11.1176 57.7442 12.0184 58.0774 13.0056 58.3735C14.0174 58.6697 15.0293 58.8178 16.0412 58.8178C16.8309 58.8178 17.3739 58.7191 17.67 58.5216C17.9909 58.2995 18.1513 58.0157 18.1513 57.6702C18.1513 57.1519 17.8798 56.757 17.3369 56.4856C16.7939 56.1894 16.0782 55.9179 15.1897 55.6711C14.3259 55.3997 13.3634 55.0912 12.3022 54.7456C10.7721 54.2274 9.51343 53.6474 8.52625 53.0057C7.53906 52.3394 6.81102 51.562 6.34211 50.6735C5.87319 49.7604 5.63874 48.6621 5.63874 47.3788C5.63874 45.4291 6.09531 43.8003 7.00845 42.4922C7.9216 41.1842 9.11856 40.197 10.5993 39.5307C12.1048 38.8397 13.7213 38.4942 15.4489 38.4942C16.7322 38.4942 17.9662 38.6546 19.1508 38.9754C20.3601 39.2716 21.483 39.6418 22.5196 40.086C23.5808 40.5302 24.5063 40.9498 25.296 41.3446L22.1864 47.3048ZM31.3371 65V38.7163H38.5559V48.7115L46.5521 38.7163H54.6963L45.1453 50.4884L55.3627 65H47.0703L40.5549 55.338L38.5559 57.411V65H31.3371ZM59.1175 65V38.7163H66.3363V65H59.1175ZM73.088 65V38.7163H80.3067V58.7067H92.227V65H73.088ZM96.964 65V38.7163H104.183V58.7067H116.103V65H96.964ZM149.023 58.7067V65H130.292V38.7163H148.69V45.0096H137.51V48.7115H147.061V54.5605H137.51V58.7067H149.023ZM159.747 38.7163L164.523 47.0086L169.298 38.7163H177.072L168.817 52.0432L176.776 65H169.002L164.523 57.0779L160.043 65H152.232L160.191 52.0432L151.936 38.7163H159.747ZM178.552 51.636C178.552 50.0318 178.848 48.4647 179.44 46.9346C180.057 45.3797 180.946 43.973 182.106 42.7144C183.266 41.4557 184.673 40.4562 186.326 39.7158C188.004 38.9507 189.892 38.5682 191.99 38.5682C194.507 38.5682 196.704 39.0988 198.579 40.16C200.455 41.1966 201.85 42.5786 202.763 44.3062L197.247 48.2302C196.926 47.3665 196.457 46.7001 195.84 46.2312C195.248 45.7623 194.594 45.4414 193.878 45.2687C193.187 45.0713 192.508 44.9725 191.842 44.9725C190.805 44.9725 189.905 45.1823 189.14 45.6019C188.399 45.9967 187.782 46.5273 187.289 47.1937C186.82 47.86 186.462 48.6004 186.215 49.4149C185.993 50.2293 185.882 51.0437 185.882 51.8581C185.882 52.7713 186.018 53.6474 186.289 54.4865C186.561 55.3256 186.955 56.0783 187.474 56.7447C187.992 57.3864 188.621 57.8923 189.362 58.2625C190.127 58.6327 190.978 58.8178 191.916 58.8178C192.582 58.8178 193.261 58.7191 193.952 58.5216C194.643 58.2995 195.272 57.954 195.84 57.4851C196.408 57.0162 196.84 56.3868 197.136 55.5971L203.022 59.1139C202.504 60.3973 201.64 61.4955 200.43 62.4086C199.221 63.3218 197.851 64.0252 196.321 64.5187C194.791 64.9877 193.273 65.2221 191.768 65.2221C189.818 65.2221 188.029 64.8396 186.4 64.0745C184.796 63.2848 183.402 62.2482 182.217 60.9649C181.057 59.6569 180.156 58.2008 179.515 56.5966C178.873 54.9678 178.552 53.3142 178.552 51.636ZM226.544 58.7067V65H207.812V38.7163H226.211V45.0096H215.031V48.7115H224.582V54.5605H215.031V58.7067H226.544ZM232.122 65V38.7163H239.341V58.7067H251.261V65H232.122ZM255.998 65V38.7163H263.217V58.7067H275.137V65H255.998ZM298.606 58.7067V65H279.874V38.7163H298.273V45.0096H287.093V48.7115H296.644V54.5605H287.093V58.7067H298.606ZM311.403 52.0802V65H304.184V38.7163H309.811L320.362 52.0802V38.7163H327.58V65H321.842L311.403 52.0802ZM332.871 51.636C332.871 50.0318 333.167 48.4647 333.759 46.9346C334.376 45.3797 335.265 43.973 336.424 42.7144C337.584 41.4557 338.991 40.4562 340.645 39.7158C342.323 38.9507 344.211 38.5682 346.309 38.5682C348.826 38.5682 351.022 39.0988 352.898 40.16C354.774 41.1966 356.168 42.5786 357.081 44.3062L351.565 48.2302C351.245 47.3665 350.776 46.7001 350.159 46.2312C349.566 45.7623 348.912 45.4414 348.197 45.2687C347.506 45.0713 346.827 44.9725 346.161 44.9725C345.124 44.9725 344.223 45.1823 343.458 45.6019C342.718 45.9967 342.101 46.5273 341.607 47.1937C341.138 47.86 340.78 48.6004 340.534 49.4149C340.311 50.2293 340.2 51.0437 340.2 51.8581C340.2 52.7713 340.336 53.6474 340.608 54.4865C340.879 55.3256 341.274 56.0783 341.792 56.7447C342.311 57.3864 342.94 57.8923 343.68 58.2625C344.445 58.6327 345.297 58.8178 346.235 58.8178C346.901 58.8178 347.58 58.7191 348.271 58.5216C348.962 58.2995 349.591 57.954 350.159 57.4851C350.726 57.0162 351.158 56.3868 351.454 55.5971L357.34 59.1139C356.822 60.3973 355.958 61.4955 354.749 62.4086C353.54 63.3218 352.17 64.0252 350.64 64.5187C349.11 64.9877 347.592 65.2221 346.087 65.2221C344.137 65.2221 342.348 64.8396 340.719 64.0745C339.115 63.2848 337.72 62.2482 336.536 60.9649C335.376 59.6569 334.475 58.2008 333.833 56.5966C333.191 54.9678 332.871 53.3142 332.871 51.636ZM380.863 58.7067V65H362.131V38.7163H380.53V45.0096H369.35V48.7115H378.901V54.5605H369.35V58.7067H380.863Z" fill="url(#paint0_linear_1132_2)"/>
<path d="M5.71278 11.9346L2.52278 10.6687L2.51745 10.6821L2.51222 10.6956L5.71278 11.9346ZM8.37817 7.71435L5.85444 5.38857L5.85444 5.38857L8.37817 7.71435ZM12.5984 4.71579L14.0009 7.8481L14.0115 7.84337L14.022 7.83857L12.5984 4.71579ZM24.8518 5.16002L23.1618 8.14704L23.1767 8.15551L23.1918 8.16383L24.8518 5.16002ZM29.035 9.30619L31.0244 12.1027L33.4739 10.3601L32.0692 7.7024L29.035 9.30619ZM23.5191 13.2302L20.3019 14.4252L21.8606 18.6219L25.5085 16.0268L23.5191 13.2302ZM22.1123 11.2312L19.9821 13.922L20.0087 13.9431L20.0357 13.9636L22.1123 11.2312ZM20.1503 10.2687L19.2075 13.5686L19.2759 13.5882L19.345 13.6049L20.1503 10.2687ZM15.4118 10.6019L17.0269 13.6301L17.0445 13.6207L17.0621 13.6111L15.4118 10.6019ZM13.5609 12.1937L10.8031 10.1509L10.7782 10.1845L10.7542 10.2186L13.5609 12.1937ZM12.4873 14.4149L9.20283 13.4196L9.1889 13.4655L9.17627 13.5118L12.4873 14.4149ZM12.5614 19.4865L9.29602 20.5429L9.29602 20.5429L12.5614 19.4865ZM13.746 21.7447L11.0369 23.8517L11.0563 23.8766L11.0761 23.9011L13.746 21.7447ZM15.634 23.2625L14.0991 26.3321L14.1191 26.3421L14.1391 26.3518L15.634 23.2625ZM20.2244 23.5216L21.1672 26.8215L21.2212 26.8061L21.2746 26.789L20.2244 23.5216ZM22.1123 22.4851L24.2981 25.131H24.2981L22.1123 22.4851ZM23.408 20.5971L25.1683 17.6509L21.6384 15.5418L20.1946 19.392L23.408 20.5971ZM29.2941 24.1139L32.4764 25.3991L33.5766 22.6747L31.0544 21.1678L29.2941 24.1139ZM26.7027 27.4086L28.7709 30.1475L26.7027 27.4086ZM22.5936 29.5187L23.5992 32.8001L23.6233 32.7927L23.6472 32.785L22.5936 29.5187ZM12.6724 29.0745L11.1566 32.1536L11.1848 32.1675L11.2134 32.1809L12.6724 29.0745ZM8.48923 25.9649L5.92146 28.242L5.94418 28.2676L5.9674 28.2927L8.48923 25.9649ZM5.78682 21.5966L2.59367 22.8545L2.59697 22.8629L2.6003 22.8712L5.78682 21.5966ZM4.82431 16.636H8.25629C8.25629 15.4653 8.47042 14.3177 8.91333 13.1735L5.71278 11.9346L2.51222 10.6956C1.77051 12.6117 1.39233 14.5984 1.39233 16.636H4.82431ZM5.71278 11.9346L8.90277 13.2004C9.3609 12.046 10.0204 10.9967 10.9019 10.0401L8.37817 7.71435L5.85444 5.38857C4.41607 6.94936 3.29864 8.71355 2.52278 10.6687L5.71278 11.9346ZM8.37817 7.71435L10.9019 10.0401C11.7284 9.14329 12.7467 8.4097 14.0009 7.8481L12.5984 4.71579L11.1958 1.58347C9.14302 2.50265 7.34781 3.76811 5.85444 5.38857L8.37817 7.71435ZM12.5984 4.71579L14.022 7.83857C15.1957 7.3035 16.5883 7.00017 18.2623 7.00017V3.56819V0.13621C15.7408 0.13621 13.3575 0.597941 11.1748 1.59301L12.5984 4.71579ZM18.2623 3.56819V7.00017C20.2877 7.00017 21.8824 7.4232 23.1618 8.14704L24.8518 5.16002L26.5418 2.173C24.0699 0.774397 21.2716 0.13621 18.2623 0.13621V3.56819ZM24.8518 5.16002L23.1918 8.16383C24.5417 8.90985 25.4297 9.82957 26.0008 10.91L29.035 9.30619L32.0692 7.7024C30.8139 5.32767 28.9131 3.48328 26.5118 2.15621L24.8518 5.16002ZM29.035 9.30619L27.0455 6.50967L21.5296 10.4337L23.5191 13.2302L25.5085 16.0268L31.0244 12.1027L29.035 9.30619ZM23.5191 13.2302L26.7363 12.0353C26.2322 10.678 25.4153 9.43078 24.189 8.49878L22.1123 11.2312L20.0357 13.9636C20.0434 13.9694 20.1643 14.0549 20.3019 14.4252L23.5191 13.2302ZM22.1123 11.2312L24.2426 8.54036C23.271 7.77121 22.1673 7.225 20.9556 6.93252L20.1503 10.2687L19.345 13.6049C19.5648 13.6579 19.7691 13.7534 19.9821 13.922L22.1123 11.2312ZM20.1503 10.2687L21.0932 6.96876C20.1195 6.69056 19.1235 6.54056 18.1143 6.54056V9.97254V13.4045C18.4377 13.4045 18.7991 13.4519 19.2075 13.5686L20.1503 10.2687ZM18.1143 9.97254V6.54056C16.6093 6.54056 15.1197 6.84791 13.7616 7.59266L15.4118 10.6019L17.0621 13.6111C17.2341 13.5167 17.5462 13.4045 18.1143 13.4045V9.97254ZM15.4118 10.6019L13.7968 7.57365C12.6126 8.2052 11.6035 9.07036 10.8031 10.1509L13.5609 12.1937L16.3187 14.2365C16.5055 13.9843 16.7303 13.7883 17.0269 13.6301L15.4118 10.6019ZM13.5609 12.1937L10.7542 10.2186C10.0656 11.1971 9.55092 12.2708 9.20283 13.4196L12.4873 14.4149L15.7718 15.4102C15.9173 14.93 16.1183 14.523 16.3676 14.1688L13.5609 12.1937ZM12.4873 14.4149L9.17627 13.5118C8.87683 14.6098 8.72216 15.7277 8.72216 16.8581H12.1541H15.5861C15.5861 16.3597 15.6536 15.8488 15.7984 15.3179L12.4873 14.4149ZM12.1541 16.8581H8.72216C8.72216 18.1171 8.91025 19.3506 9.29602 20.5429L12.5614 19.4865L15.8267 18.4301C15.6695 17.9442 15.5861 17.4254 15.5861 16.8581H12.1541ZM12.5614 19.4865L9.29602 20.5429C9.68484 21.7447 10.2627 22.8562 11.0369 23.8517L13.746 21.7447L16.455 19.6377C16.1927 19.3004 15.9808 18.9065 15.8267 18.4301L12.5614 19.4865ZM13.746 21.7447L11.0761 23.9011C11.9041 24.9263 12.921 25.7431 14.0991 26.3321L15.634 23.2625L17.1688 20.1928C16.8661 20.0415 16.6243 19.8464 16.4159 19.5882L13.746 21.7447ZM15.634 23.2625L14.1391 26.3518C15.4167 26.97 16.7869 27.2498 18.1883 27.2498V23.8178V20.3858C17.714 20.3858 17.3814 20.2954 17.1288 20.1732L15.634 23.2625ZM18.1883 23.8178V27.2498C19.1975 27.2498 20.1935 27.0997 21.1672 26.8215L20.2244 23.5216L19.2815 20.2217C18.8732 20.3384 18.5118 20.3858 18.1883 20.3858V23.8178ZM20.2244 23.5216L21.2746 26.789C22.3862 26.4317 23.3997 25.8731 24.2981 25.131L22.1123 22.4851L19.9266 19.8391C19.6897 20.0348 19.4446 20.1673 19.1741 20.2543L20.2244 23.5216ZM22.1123 22.4851L24.2981 25.131C25.3922 24.2271 26.1458 23.0708 26.6215 21.8021L23.408 20.5971L20.1946 19.392C20.078 19.7029 19.9677 19.8052 19.9266 19.8391L22.1123 22.4851ZM23.408 20.5971L21.6477 23.5433L27.5338 27.0601L29.2941 24.1139L31.0544 21.1678L25.1683 17.6509L23.408 20.5971ZM29.2941 24.1139L26.1118 22.8288C25.8482 23.4816 25.3963 24.0947 24.6346 24.6698L26.7027 27.4086L28.7709 30.1475C30.4278 28.8964 31.7035 27.3129 32.4764 25.3991L29.2941 24.1139ZM26.7027 27.4086L24.6346 24.6698C23.7499 25.3379 22.7272 25.8695 21.54 26.2525L22.5936 29.5187L23.6472 32.785C25.5202 32.1808 27.237 31.3057 28.7709 30.1475L26.7027 27.4086ZM22.5936 29.5187L21.588 26.2374C20.3632 26.6127 19.184 26.7901 18.0402 26.7901V30.2221V33.6541C19.9073 33.6541 21.7637 33.3626 23.5992 32.8001L22.5936 29.5187ZM18.0402 30.2221V26.7901C16.5522 26.7901 15.2667 26.5013 14.1315 25.9681L12.6724 29.0745L11.2134 32.1809C13.3359 33.1778 15.6289 33.6541 18.0402 33.6541V30.2221ZM12.6724 29.0745L14.1883 25.9954C12.9536 25.3876 11.9025 24.6028 11.0111 23.637L8.48923 25.9649L5.9674 28.2927C7.44516 29.8936 9.18291 31.1819 11.1566 32.1536L12.6724 29.0745ZM8.48923 25.9649L11.057 23.6878C10.1564 22.6722 9.4663 21.5544 8.97333 20.322L5.78682 21.5966L2.6003 22.8712C3.39067 24.8471 4.50221 26.6415 5.92146 28.242L8.48923 25.9649ZM5.78682 21.5966L8.97996 20.3387C8.48918 19.0929 8.25629 17.8652 8.25629 16.636H4.82431H1.39233C1.39233 18.7633 1.80111 20.8426 2.59367 22.8545L5.78682 21.5966ZM52.8164 23.7067H56.2484V20.2747H52.8164V23.7067ZM52.8164 30V33.432H56.2484V30H52.8164ZM34.0846 30H30.6527V33.432H34.0846V30ZM34.0846 3.71627V0.284287H30.6527V3.71627H34.0846ZM52.4832 3.71627H55.9152V0.284287H52.4832V3.71627ZM52.4832 10.0096V13.4415H55.9152V10.0096H52.4832ZM41.3034 10.0096V6.57758H37.8714V10.0096H41.3034ZM41.3034 13.7115H37.8714V17.1435H41.3034V13.7115ZM50.8544 13.7115H54.2864V10.2795H50.8544V13.7115ZM50.8544 19.5605V22.9925H54.2864V19.5605H50.8544ZM41.3034 19.5605V16.1286H37.8714V19.5605H41.3034ZM41.3034 23.7067H37.8714V27.1387H41.3034V23.7067ZM52.8164 23.7067H49.3844V30H52.8164H56.2484V23.7067H52.8164ZM52.8164 30V26.568H34.0846V30V33.432H52.8164V30ZM34.0846 30H37.5166V3.71627H34.0846H30.6527V30H34.0846ZM34.0846 3.71627V7.14825H52.4832V3.71627V0.284287H34.0846V3.71627ZM52.4832 3.71627H49.0513V10.0096H52.4832H55.9152V3.71627H52.4832ZM52.4832 10.0096V6.57758H41.3034V10.0096V13.4415H52.4832V10.0096ZM41.3034 10.0096H37.8714V13.7115H41.3034H44.7354V10.0096H41.3034ZM41.3034 13.7115V17.1435H50.8544V13.7115V10.2795H41.3034V13.7115ZM50.8544 13.7115H47.4224V19.5605H50.8544H54.2864V13.7115H50.8544ZM50.8544 19.5605V16.1286H41.3034V19.5605V22.9925H50.8544V19.5605ZM41.3034 19.5605H37.8714V23.7067H41.3034H44.7354V19.5605H41.3034ZM41.3034 23.7067V27.1387H52.8164V23.7067V20.2747H41.3034V23.7067ZM58.3945 30H54.9625V33.432H58.3945V30ZM58.3945 3.71627V0.284287H54.9625V3.71627H58.3945ZM74.0166 4.49367L72.5384 7.59097L72.5384 7.59097L74.0166 4.49367ZM76.8301 6.60378L74.265 8.88386L74.281 8.90183L74.2972 8.91957L76.8301 6.60378ZM78.6441 9.5283L75.4427 10.7652L75.4548 10.7966L75.4676 10.8278L78.6441 9.5283ZM78.8662 15.7476L75.5935 14.7141V14.7141L78.8662 15.7476ZM77.5705 18.3389L80.3267 20.3838L80.3422 20.363L80.3573 20.3419L77.5705 18.3389ZM75.5344 20.338L73.5314 17.5511L71.0142 19.3604L72.5589 22.0481L75.5344 20.338ZM81.0873 30V33.432H87.0181L84.0629 28.2899L81.0873 30ZM73.1652 30L70.1879 31.7071L71.1769 33.432H73.1652V30ZM68.5378 21.9298L71.515 20.2226L70.526 18.4978H68.5378V21.9298ZM65.6133 21.9298V18.4978H62.1813V21.9298H65.6133ZM65.6133 30V33.432H69.0452V30H65.6133ZM65.6133 15.6365H62.1813V19.0685H65.6133V15.6365ZM71.0181 15.3033L68.8448 12.6471L68.8448 12.6471L71.0181 15.3033ZM71.6844 14.3408L68.5791 12.8795L68.5431 12.956L68.5109 13.0341L71.6844 14.3408ZM71.6474 11.3052L68.5421 12.7666L68.5951 12.8793L68.6562 12.9878L71.6474 11.3052ZM70.87 10.3427L68.8108 13.0883L68.8629 13.1274L68.9165 13.1645L70.87 10.3427ZM65.6133 10.0096V6.57758H62.1813V10.0096H65.6133ZM58.3945 30H61.8265V3.71627H58.3945H54.9625V30H58.3945ZM58.3945 3.71627V7.14825H70.4628V3.71627V0.284287H58.3945V3.71627ZM70.4628 3.71627V7.14825C71.2693 7.14825 71.9445 7.30753 72.5384 7.59097L74.0166 4.49367L75.4949 1.39638C73.917 0.643272 72.2229 0.284287 70.4628 0.284287V3.71627ZM74.0166 4.49367L72.5384 7.59097C73.2163 7.91453 73.7832 8.34183 74.265 8.88386L76.8301 6.60378L79.3952 4.32369C78.2975 3.0888 76.9888 2.10936 75.4949 1.39638L74.0166 4.49367ZM76.8301 6.60378L74.2972 8.91957C74.8006 9.47014 75.1778 10.0795 75.4427 10.7652L78.6441 9.5283L81.8454 8.29142C81.2712 6.80526 80.4391 5.46498 79.363 4.28798L76.8301 6.60378ZM78.6441 9.5283L75.4676 10.8278C75.7528 11.5248 75.8784 12.1829 75.8784 12.823H79.3104H82.7424C82.7424 11.242 82.4238 9.70359 81.8205 8.22884L78.6441 9.5283ZM79.3104 12.823H75.8784C75.8784 13.4945 75.781 14.1202 75.5935 14.7141L78.8662 15.7476L82.1388 16.781C82.5436 15.4993 82.7424 14.1753 82.7424 12.823H79.3104ZM78.8662 15.7476L75.5935 14.7141C75.4056 15.309 75.1366 15.8449 74.7837 16.3359L77.5705 18.3389L80.3573 20.3419C81.1397 19.2535 81.7344 18.0618 82.1389 16.781L78.8662 15.7476ZM77.5705 18.3389L74.8143 16.294C74.4623 16.7684 74.0394 17.186 73.5314 17.5511L75.5344 20.338L77.5375 23.1248C78.609 22.3546 79.5434 21.4396 80.3267 20.3838L77.5705 18.3389ZM75.5344 20.338L72.5589 22.0481L78.1118 31.7101L81.0873 30L84.0629 28.2899L78.51 18.6279L75.5344 20.338ZM81.0873 30V26.568H73.1652V30V33.432H81.0873V30ZM73.1652 30L76.1425 28.2929L71.515 20.2226L68.5378 21.9298L65.5605 23.6369L70.1879 31.7071L73.1652 30ZM68.5378 21.9298V18.4978H65.6133V21.9298V25.3618H68.5378V21.9298ZM65.6133 21.9298H62.1813V30H65.6133H69.0452V21.9298H65.6133ZM65.6133 30V26.568H58.3945V30V33.432H65.6133V30ZM65.6133 15.6365V19.0685H70.1666V15.6365V12.2045H65.6133V15.6365ZM70.1666 15.6365V19.0685C71.3952 19.0685 72.4247 18.5867 73.1913 17.9595L71.0181 15.3033L68.8448 12.6471C69.0685 12.4641 69.5304 12.2045 70.1666 12.2045V15.6365ZM71.0181 15.3033L73.1913 17.9595C74.0132 17.2871 74.5304 16.4429 74.8579 15.6475L71.6844 14.3408L68.5109 13.0341C68.4929 13.0778 68.5659 12.8753 68.8448 12.6471L71.0181 15.3033ZM71.6844 14.3408L74.7897 15.8021C75.2533 14.817 75.4126 13.7852 75.4126 12.823H71.9806H68.5486C68.5486 12.9304 68.5395 12.9822 68.5381 12.9894C68.537 12.9951 68.5447 12.9525 68.5791 12.8795L71.6844 14.3408ZM71.9806 12.823H75.4126C75.4126 11.8208 75.2356 10.6839 74.6386 9.62266L71.6474 11.3052L68.6562 12.9878C68.5789 12.8504 68.5522 12.7488 68.5451 12.7167C68.5387 12.6873 68.5486 12.7165 68.5486 12.823H71.9806ZM71.6474 11.3052L74.7527 9.84391C74.3465 8.98079 73.7276 8.14692 72.8235 7.52098L70.87 10.3427L68.9165 13.1645C68.654 12.9828 68.5534 12.7906 68.5421 12.7666L71.6474 11.3052ZM70.87 10.3427L72.9292 7.59714C72.1897 7.04255 71.1889 6.57758 69.9815 6.57758V10.0096V13.4415C69.3665 13.4415 68.958 13.1987 68.8108 13.0883L70.87 10.3427ZM69.9815 10.0096V6.57758H65.6133V10.0096V13.4415H69.9815V10.0096ZM65.6133 10.0096H62.1813V15.6365H65.6133H69.0452V10.0096H65.6133ZM105.707 10.0096V13.4415H109.139V10.0096H105.707ZM98.1547 10.0096V6.57758H94.7227V10.0096H98.1547ZM98.1547 30V33.432H101.587V30H98.1547ZM90.9359 30H87.5039V33.432H90.9359V30ZM90.9359 10.0096H94.3679V6.57758H90.9359V10.0096ZM83.347 10.0096H79.915V13.4415H83.347V10.0096ZM83.347 3.71627V0.284287H79.915V3.71627H83.347ZM105.707 3.71627H109.139V0.284287H105.707V3.71627ZM105.707 10.0096V6.57758H98.1547V10.0096V13.4415H105.707V10.0096ZM98.1547 10.0096H94.7227V30H98.1547H101.587V10.0096H98.1547ZM98.1547 30V26.568H90.9359V30V33.432H98.1547V30ZM90.9359 30H94.3679V10.0096H90.9359H87.5039V30H90.9359ZM90.9359 10.0096V6.57758H83.347V10.0096V13.4415H90.9359V10.0096ZM83.347 10.0096H86.7789V3.71627H83.347H79.915V10.0096H83.347ZM83.347 3.71627V7.14825H105.707V3.71627V0.284287H83.347V3.71627ZM105.707 3.71627H102.275V10.0096H105.707H109.139V3.71627H105.707ZM110.557 30H107.125V33.432H110.557V30ZM110.557 3.71627V0.284287H107.125V3.71627H110.557ZM117.776 3.71627H121.208V0.284287H117.776V3.71627ZM117.776 30V33.432H121.208V30H117.776ZM110.557 30H113.989V3.71627H110.557H107.125V30H110.557ZM110.557 3.71627V7.14825H117.776V3.71627V0.284287H110.557V3.71627ZM117.776 3.71627H114.344V30H117.776H121.208V3.71627H117.776ZM117.776 30V26.568H110.557V30V33.432H117.776V30ZM124.528 30H121.096V33.432H124.528V30ZM124.528 3.71627V0.284287H121.096V3.71627H124.528ZM142.556 3.71627H145.988V0.284287H142.556V3.71627ZM142.556 10.0096V13.4415H145.988V10.0096H142.556ZM131.746 10.0096V6.57758H128.314V10.0096H131.746ZM131.746 14.3778H128.314V17.8098H131.746V14.3778ZM140.557 14.3778H143.989V10.9459H140.557V14.3778ZM140.557 20.2269V23.6589H143.989V20.2269H140.557ZM131.746 20.2269V16.7949H128.314V20.2269H131.746ZM131.746 30V33.432H135.178V30H131.746ZM124.528 30H127.959V3.71627H124.528H121.096V30H124.528ZM124.528 3.71627V7.14825H142.556V3.71627V0.284287H124.528V3.71627ZM142.556 3.71627H139.124V10.0096H142.556H145.988V3.71627H142.556ZM142.556 10.0096V6.57758H131.746V10.0096V13.4415H142.556V10.0096ZM131.746 10.0096H128.314V14.3778H131.746H135.178V10.0096H131.746ZM131.746 14.3778V17.8098H140.557V14.3778V10.9459H131.746V14.3778ZM140.557 14.3778H137.125V20.2269H140.557H143.989V14.3778H140.557ZM140.557 20.2269V16.7949H131.746V20.2269V23.6589H140.557V20.2269ZM131.746 20.2269H128.314V30H131.746H135.178V20.2269H131.746ZM131.746 30V26.568H124.528V30V33.432H131.746V30ZM147.608 30H144.176V33.432H147.608V30ZM147.608 3.71627V0.284287H144.176V3.71627H147.608ZM154.827 3.71627H158.259V0.284287H154.827V3.71627ZM154.827 30V33.432H158.259V30H154.827ZM147.608 30H151.04V3.71627H147.608H144.176V30H147.608ZM147.608 3.71627V7.14825H154.827V3.71627V0.284287H147.608V3.71627ZM154.827 3.71627H151.395V30H154.827H158.259V3.71627H154.827ZM154.827 30V26.568H147.608V30V33.432H154.827V30ZM161.023 11.9346L157.833 10.6687L157.828 10.6821L157.823 10.6956L161.023 11.9346ZM163.689 7.71435L161.165 5.38857V5.38857L163.689 7.71435ZM167.909 4.71579L169.311 7.8481L169.322 7.84337L169.333 7.83857L167.909 4.71579ZM180.162 5.16002L178.472 8.14704L178.487 8.15551L178.502 8.16383L180.162 5.16002ZM184.346 9.30619L186.335 12.1027L188.785 10.3601L187.38 7.7024L184.346 9.30619ZM178.83 13.2302L175.612 14.4252L177.171 18.6219L180.819 16.0268L178.83 13.2302ZM177.423 11.2312L175.293 13.922L175.319 13.9431L175.346 13.9636L177.423 11.2312ZM175.461 10.2687L174.518 13.5686L174.586 13.5882L174.656 13.6049L175.461 10.2687ZM170.722 10.6019L172.337 13.6301L172.355 13.6207L172.373 13.6111L170.722 10.6019ZM168.871 12.1937L166.114 10.1509L166.089 10.1845L166.065 10.2186L168.871 12.1937ZM167.798 14.4149L164.513 13.4196L164.499 13.4655L164.487 13.5118L167.798 14.4149ZM167.872 19.4865L164.607 20.5429V20.5429L167.872 19.4865ZM169.057 21.7447L166.348 23.8517L166.367 23.8766L166.387 23.9011L169.057 21.7447ZM170.945 23.2625L169.41 26.3321L169.43 26.3421L169.45 26.3518L170.945 23.2625ZM175.535 23.5216L176.478 26.8215L176.532 26.8061L176.585 26.789L175.535 23.5216ZM177.423 22.4851L179.609 25.131L177.423 22.4851ZM178.719 20.5971L180.479 17.6509L176.949 15.5418L175.505 19.392L178.719 20.5971ZM184.605 24.1139L187.787 25.3991L188.887 22.6747L186.365 21.1678L184.605 24.1139ZM182.013 27.4086L184.081 30.1475L182.013 27.4086ZM177.904 29.5187L178.91 32.8001L178.934 32.7927L178.958 32.785L177.904 29.5187ZM167.983 29.0745L166.467 32.1536L166.495 32.1675L166.524 32.1809L167.983 29.0745ZM163.8 25.9649L161.232 28.242L161.255 28.2676L161.278 28.2927L163.8 25.9649ZM161.097 21.5966L157.904 22.8545L157.908 22.8629L157.911 22.8712L161.097 21.5966ZM160.135 16.636H163.567C163.567 15.4653 163.781 14.3177 164.224 13.1735L161.023 11.9346L157.823 10.6956C157.081 12.6117 156.703 14.5984 156.703 16.636H160.135ZM161.023 11.9346L164.213 13.2004C164.671 12.046 165.331 10.9967 166.212 10.0401L163.689 7.71435L161.165 5.38857C159.727 6.94936 158.609 8.71355 157.833 10.6687L161.023 11.9346ZM163.689 7.71435L166.212 10.0401C167.039 9.14329 168.057 8.4097 169.311 7.8481L167.909 4.71579L166.506 1.58347C164.454 2.50265 162.658 3.76811 161.165 5.38857L163.689 7.71435ZM167.909 4.71579L169.333 7.83857C170.506 7.3035 171.899 7.00017 173.573 7.00017V3.56819V0.13621C171.051 0.13621 168.668 0.597941 166.485 1.59301L167.909 4.71579ZM173.573 3.56819V7.00017C175.598 7.00017 177.193 7.4232 178.472 8.14704L180.162 5.16002L181.852 2.173C179.38 0.774397 176.582 0.13621 173.573 0.13621V3.56819ZM180.162 5.16002L178.502 8.16383C179.852 8.90985 180.74 9.82957 181.311 10.91L184.346 9.30619L187.38 7.7024C186.125 5.32767 184.224 3.48328 181.822 2.15621L180.162 5.16002ZM184.346 9.30619L182.356 6.50967L176.84 10.4337L178.83 13.2302L180.819 16.0268L186.335 12.1027L184.346 9.30619ZM178.83 13.2302L182.047 12.0353C181.543 10.678 180.726 9.43078 179.5 8.49878L177.423 11.2312L175.346 13.9636C175.354 13.9694 175.475 14.0549 175.612 14.4252L178.83 13.2302ZM177.423 11.2312L179.553 8.54036C178.582 7.77121 177.478 7.225 176.266 6.93252L175.461 10.2687L174.656 13.6049C174.875 13.6579 175.08 13.7534 175.293 13.922L177.423 11.2312ZM175.461 10.2687L176.404 6.96876C175.43 6.69056 174.434 6.54056 173.425 6.54056V9.97254V13.4045C173.748 13.4045 174.11 13.4519 174.518 13.5686L175.461 10.2687ZM173.425 9.97254V6.54056C171.92 6.54056 170.43 6.84791 169.072 7.59266L170.722 10.6019L172.373 13.6111C172.545 13.5167 172.857 13.4045 173.425 13.4045V9.97254ZM170.722 10.6019L169.107 7.57365C167.923 8.2052 166.914 9.07036 166.114 10.1509L168.871 12.1937L171.629 14.2365C171.816 13.9843 172.041 13.7883 172.337 13.6301L170.722 10.6019ZM168.871 12.1937L166.065 10.2186C165.376 11.1971 164.862 12.2708 164.513 13.4196L167.798 14.4149L171.082 15.4102C171.228 14.93 171.429 14.523 171.678 14.1688L168.871 12.1937ZM167.798 14.4149L164.487 13.5118C164.187 14.6098 164.033 15.7277 164.033 16.8581H167.465H170.897C170.897 16.3597 170.964 15.8488 171.109 15.3179L167.798 14.4149ZM167.465 16.8581H164.033C164.033 18.1171 164.221 19.3506 164.607 20.5429L167.872 19.4865L171.137 18.4301C170.98 17.9442 170.897 17.4254 170.897 16.8581H167.465ZM167.872 19.4865L164.607 20.5429C164.995 21.7447 165.573 22.8562 166.348 23.8517L169.057 21.7447L171.766 19.6377C171.503 19.3004 171.291 18.9065 171.137 18.4301L167.872 19.4865ZM169.057 21.7447L166.387 23.9011C167.215 24.9263 168.232 25.7431 169.41 26.3321L170.945 23.2625L172.479 20.1928C172.177 20.0415 171.935 19.8464 171.726 19.5882L169.057 21.7447ZM170.945 23.2625L169.45 26.3518C170.727 26.97 172.098 27.2498 173.499 27.2498V23.8178V20.3858C173.025 20.3858 172.692 20.2954 172.439 20.1732L170.945 23.2625ZM173.499 23.8178V27.2498C174.508 27.2498 175.504 27.0997 176.478 26.8215L175.535 23.5216L174.592 20.2217C174.184 20.3384 173.822 20.3858 173.499 20.3858V23.8178ZM175.535 23.5216L176.585 26.789C177.697 26.4317 178.71 25.8731 179.609 25.131L177.423 22.4851L175.237 19.8391C175 20.0348 174.755 20.1673 174.485 20.2543L175.535 23.5216ZM177.423 22.4851L179.609 25.131C180.703 24.2271 181.456 23.0708 181.932 21.8021L178.719 20.5971L175.505 19.392C175.389 19.7029 175.278 19.8052 175.237 19.8391L177.423 22.4851ZM178.719 20.5971L176.958 23.5433L182.844 27.0601L184.605 24.1139L186.365 21.1678L180.479 17.6509L178.719 20.5971ZM184.605 24.1139L181.422 22.8288C181.159 23.4816 180.707 24.0947 179.945 24.6698L182.013 27.4086L184.081 30.1475C185.738 28.8964 187.014 27.3129 187.787 25.3991L184.605 24.1139ZM182.013 27.4086L179.945 24.6698C179.06 25.3379 178.038 25.8695 176.851 26.2525L177.904 29.5187L178.958 32.785C180.831 32.1808 182.548 31.3057 184.081 30.1475L182.013 27.4086ZM177.904 29.5187L176.899 26.2374C175.674 26.6127 174.495 26.7901 173.351 26.7901V30.2221V33.6541C175.218 33.6541 177.074 33.3626 178.91 32.8001L177.904 29.5187ZM173.351 30.2221V26.7901C171.863 26.7901 170.577 26.5013 169.442 25.9681L167.983 29.0745L166.524 32.1809C168.646 33.1778 170.939 33.6541 173.351 33.6541V30.2221ZM167.983 29.0745L169.499 25.9954C168.264 25.3876 167.213 24.6028 166.322 23.637L163.8 25.9649L161.278 28.2927C162.756 29.8936 164.493 31.1819 166.467 32.1536L167.983 29.0745ZM163.8 25.9649L166.368 23.6878C165.467 22.6722 164.777 21.5544 164.284 20.322L161.097 21.5966L157.911 22.8712C158.701 24.8471 159.813 26.6415 161.232 28.242L163.8 25.9649ZM161.097 21.5966L164.291 20.3387C163.8 19.0929 163.567 17.8652 163.567 16.636H160.135H156.703C156.703 18.7633 157.112 20.8426 157.904 22.8545L161.097 21.5966ZM195.069 3.71627V0.284287H192.563L191.8 2.67112L195.069 3.71627ZM203.139 3.71627L206.409 2.6753L205.648 0.284287H203.139V3.71627ZM211.505 30V33.432H216.199L214.776 28.959L211.505 30ZM204.175 30L200.897 31.0143L201.645 33.432H204.175V30ZM202.584 24.8543L205.862 23.84L205.114 21.4223H202.584V24.8543ZM195.587 24.8543V21.4223H193.039L192.302 23.8616L195.587 24.8543ZM194.032 30V33.432H196.58L197.317 30.9927L194.032 30ZM186.665 30L183.396 28.9549L181.965 33.432H186.665V30ZM201.436 20.0418V23.4738H205.84L204.764 19.2032L201.436 20.0418ZM199.104 10.787L202.432 9.94832L195.786 9.91093L199.104 10.787ZM196.661 20.0418L193.342 19.1658L192.205 23.4738H196.661V20.0418ZM195.069 3.71627V7.14825H203.139V3.71627V0.284287H195.069V3.71627ZM203.139 3.71627L199.869 4.75724L208.235 31.041L211.505 30L214.776 28.959L206.409 2.6753L203.139 3.71627ZM211.505 30V26.568H204.175V30V33.432H211.505V30ZM204.175 30L207.454 28.9857L205.862 23.84L202.584 24.8543L199.305 25.8686L200.897 31.0143L204.175 30ZM202.584 24.8543V21.4223H195.587V24.8543V28.2863H202.584V24.8543ZM195.587 24.8543L192.302 23.8616L190.747 29.0073L194.032 30L197.317 30.9927L198.872 25.847L195.587 24.8543ZM194.032 30V26.568H186.665V30V33.432H194.032V30ZM186.665 30L189.934 31.0451L198.338 4.76142L195.069 3.71627L191.8 2.67112L183.396 28.9549L186.665 30ZM201.436 20.0418L204.764 19.2032L202.432 9.94832L199.104 10.787L195.776 11.6256L198.108 20.8804L201.436 20.0418ZM199.104 10.787L195.786 9.91093L193.342 19.1658L196.661 20.0418L199.979 20.9178L202.422 11.663L199.104 10.787ZM196.661 20.0418V23.4738H201.436V20.0418V16.6098H196.661V20.0418ZM233.96 10.0096V13.4415H237.392V10.0096H233.96ZM226.408 10.0096V6.57758H222.976V10.0096H226.408ZM226.408 30V33.432H229.84V30H226.408ZM219.189 30H215.757V33.432H219.189V30ZM219.189 10.0096H222.621V6.57758H219.189V10.0096ZM211.6 10.0096H208.168V13.4415H211.6V10.0096ZM211.6 3.71627V0.284287H208.168V3.71627H211.6ZM233.96 3.71627H237.392V0.284287H233.96V3.71627ZM233.96 10.0096V6.57758H226.408V10.0096V13.4415H233.96V10.0096ZM226.408 10.0096H222.976V30H226.408H229.84V10.0096H226.408ZM226.408 30V26.568H219.189V30V33.432H226.408V30ZM219.189 30H222.621V10.0096H219.189H215.757V30H219.189ZM219.189 10.0096V6.57758H211.6V10.0096V13.4415H219.189V10.0096ZM211.6 10.0096H215.032V3.71627H211.6H208.168V10.0096H211.6ZM211.6 3.71627V7.14825H233.96V3.71627V0.284287H211.6V3.71627ZM233.96 3.71627H230.528V10.0096H233.96H237.392V3.71627H233.96ZM257.542 23.7067H260.974V20.2747H257.542V23.7067ZM257.542 30V33.432H260.974V30H257.542ZM238.81 30H235.378V33.432H238.81V30ZM238.81 3.71627V0.284287H235.378V3.71627H238.81ZM257.209 3.71627H260.641V0.284287H257.209V3.71627ZM257.209 10.0096V13.4415H260.641V10.0096H257.209ZM246.029 10.0096V6.57758H242.597V10.0096H246.029ZM246.029 13.7115H242.597V17.1435H246.029V13.7115ZM255.58 13.7115H259.012V10.2795H255.58V13.7115ZM255.58 19.5605V22.9925H259.012V19.5605H255.58ZM246.029 19.5605V16.1286H242.597V19.5605H246.029ZM246.029 23.7067H242.597V27.1387H246.029V23.7067ZM257.542 23.7067H254.11V30H257.542H260.974V23.7067H257.542ZM257.542 30V26.568H238.81V30V33.432H257.542V30ZM238.81 30H242.242V3.71627H238.81H235.378V30H238.81ZM238.81 3.71627V7.14825H257.209V3.71627V0.284287H238.81V3.71627ZM257.209 3.71627H253.777V10.0096H257.209H260.641V3.71627H257.209ZM257.209 10.0096V6.57758H246.029V10.0096V13.4415H257.209V10.0096ZM246.029 10.0096H242.597V13.7115H246.029H249.461V10.0096H246.029ZM246.029 13.7115V17.1435H255.58V13.7115V10.2795H246.029V13.7115ZM255.58 13.7115H252.148V19.5605H255.58H259.012V13.7115H255.58ZM255.58 19.5605V16.1286H246.029V19.5605V22.9925H255.58V19.5605ZM246.029 19.5605H242.597V23.7067H246.029H249.461V19.5605H246.029ZM246.029 23.7067V27.1387H257.542V23.7067V20.2747H246.029V23.7067ZM280.061 29.1115L278.601 32.2179L278.621 32.227L278.64 32.2359L280.061 29.1115ZM275.84 26.076L273.294 28.3772L273.317 28.4029L273.341 28.4281L275.84 26.076ZM273.138 21.7817L269.935 23.0137L269.946 23.0437L269.958 23.0734L273.138 21.7817ZM273.212 11.8235L270.05 10.4895L273.212 11.8235ZM275.988 7.6033L273.514 5.22553L273.513 5.22654L275.988 7.6033ZM280.246 4.64175L278.882 1.49215L278.874 1.4959L278.865 1.49971L280.246 4.64175ZM291.092 4.71579L289.633 7.82217L289.653 7.83128L289.672 7.84015L291.092 4.71579ZM295.275 7.75138L292.729 10.0527V10.0527L295.275 7.75138ZM297.941 12.0826L294.738 13.3146L294.749 13.3446L294.761 13.3744L297.941 12.0826ZM297.904 21.9298L294.742 20.5958L294.733 20.6169L294.724 20.6381L297.904 21.9298ZM295.127 26.187L292.653 23.8092L292.652 23.8103L295.127 26.187ZM290.907 29.1486L292.288 32.2906L292.308 32.2819L292.327 32.2729L290.907 29.1486ZM279.912 19.4865L276.62 20.4549L276.624 20.4684L276.628 20.4818L279.912 19.4865ZM281.023 21.7077L278.265 23.7505L278.284 23.7755L278.303 23.8002L281.023 21.7077ZM282.874 23.2625L281.259 26.2907L281.318 26.3224L281.379 26.3518L282.874 23.2625ZM288.279 23.2255L289.853 26.2752L288.279 23.2255ZM290.13 21.6336L287.337 19.6388L287.33 19.6487L287.323 19.6585L290.13 21.6336ZM291.203 19.3755L287.911 18.4071L287.901 18.4397L287.892 18.4724L291.203 19.3755ZM291.203 14.2668L287.919 15.2621L291.203 14.2668ZM290.093 12.0826L287.335 14.1254L287.353 14.1505L287.372 14.1752L290.093 12.0826ZM288.205 10.5278L289.7 7.4385V7.4385L288.205 10.5278ZM282.837 10.5648L281.263 7.51512L281.242 7.52573L281.222 7.53663L282.837 10.5648ZM280.986 12.1567L283.706 14.2492L283.725 14.2245L283.744 14.1995L280.986 12.1567ZM279.875 14.3778L276.583 13.4094L276.573 13.442L276.564 13.4748L279.875 14.3778ZM285.502 30.2221V26.7901C283.935 26.7901 282.614 26.5022 281.481 25.9872L280.061 29.1115L278.64 32.2359C280.765 33.2016 283.071 33.6541 285.502 33.6541V30.2221ZM280.061 29.1115L281.52 26.0051C280.265 25.4161 279.216 24.6549 278.339 23.7238L275.84 26.076L273.341 28.4281C274.834 30.0143 276.598 31.2768 278.601 32.2179L280.061 29.1115ZM275.84 26.076L278.386 23.7747C277.491 22.7839 276.806 21.6931 276.318 20.49L273.138 21.7817L269.958 23.0734C270.753 25.0293 271.87 26.8013 273.294 28.3772L275.84 26.076ZM273.138 21.7817L276.341 20.5497C275.874 19.3349 275.644 18.0988 275.644 16.8211H272.212H268.78C268.78 18.9492 269.168 21.0201 269.935 23.0137L273.138 21.7817ZM272.212 16.8211H275.644C275.644 15.5167 275.89 14.3053 276.374 13.1575L273.212 11.8235L270.05 10.4895C269.201 12.5007 268.78 14.621 268.78 16.8211H272.212ZM273.212 11.8235L276.374 13.1575C276.878 11.9638 277.571 10.9107 278.464 9.98005L275.988 7.6033L273.513 5.22654C272.037 6.7639 270.879 8.52425 270.05 10.4895L273.212 11.8235ZM275.988 7.6033L278.463 9.98106C279.355 9.05266 280.4 8.32238 281.626 7.78379L280.246 4.64175L278.865 1.49971C276.833 2.39254 275.04 3.63662 273.514 5.22553L275.988 7.6033ZM280.246 4.64175L281.609 7.79135C282.798 7.27678 284.131 7.00017 285.65 7.00017V3.56819V0.13621C283.271 0.13621 281.001 0.575305 278.882 1.49215L280.246 4.64175ZM285.65 3.56819V7.00017C287.201 7.00017 288.509 7.29428 289.633 7.82217L291.092 4.71579L292.551 1.6094C290.418 0.60717 288.097 0.13621 285.65 0.13621V3.56819ZM291.092 4.71579L289.672 7.84015C290.888 8.39296 291.895 9.12988 292.729 10.0527L295.275 7.75138L297.822 5.4501C296.336 3.80619 294.554 2.51939 292.512 1.59143L291.092 4.71579ZM295.275 7.75138L292.729 10.0527C293.608 11.0251 294.273 12.1069 294.738 13.3146L297.941 12.0826L301.144 10.8506C300.375 8.85007 299.263 7.04436 297.822 5.4501L295.275 7.75138ZM297.941 12.0826L294.761 13.3744C295.239 14.5503 295.471 15.7409 295.471 16.9692H298.903H302.335C302.335 14.841 301.926 12.774 301.12 10.7909L297.941 12.0826ZM298.903 16.9692H295.471C295.471 18.2422 295.229 19.4418 294.742 20.5958L297.904 21.9298L301.066 23.2638C301.912 21.2588 302.335 19.1513 302.335 16.9692H298.903ZM297.904 21.9298L294.724 20.6381C294.25 21.8044 293.568 22.857 292.653 23.8092L295.127 26.187L297.602 28.5648C299.106 26.9997 300.274 25.2141 301.083 23.2215L297.904 21.9298ZM295.127 26.187L292.652 23.8103C291.782 24.716 290.738 25.4554 289.487 26.0242L290.907 29.1486L292.327 32.2729C294.334 31.3609 296.103 30.1259 297.603 28.5638L295.127 26.187ZM290.907 29.1486L289.527 26.0065C288.378 26.511 287.054 26.7901 285.502 26.7901V30.2221V33.6541C287.9 33.6541 290.178 33.2175 292.288 32.2906L290.907 29.1486ZM279.542 16.8952H276.11C276.11 18.1062 276.279 19.2963 276.62 20.4549L279.912 19.4865L283.205 18.5181C283.052 17.9985 282.974 17.4611 282.974 16.8952H279.542ZM279.912 19.4865L276.628 20.4818C276.986 21.663 277.531 22.7594 278.265 23.7505L281.023 21.7077L283.781 19.6649C283.528 19.3232 283.333 18.9389 283.197 18.4912L279.912 19.4865ZM281.023 21.7077L278.303 23.8002C279.105 24.843 280.104 25.6747 281.259 26.2907L282.874 23.2625L284.489 20.2343C284.163 20.0605 283.928 19.8556 283.743 19.6152L281.023 21.7077ZM282.874 23.2625L281.379 26.3518C282.701 26.9916 284.134 27.2498 285.576 27.2498V23.8178V20.3858C284.946 20.3858 284.577 20.2738 284.369 20.1732L282.874 23.2625ZM285.576 23.8178V27.2498C287.05 27.2498 288.511 26.9675 289.853 26.2752L288.279 23.2255L286.705 20.1757C286.516 20.2731 286.176 20.3858 285.576 20.3858V23.8178ZM288.279 23.2255L289.853 26.2752C291.081 25.6415 292.131 24.753 292.936 23.6087L290.13 21.6336L287.323 19.6585C287.191 19.8469 287.007 20.0197 286.705 20.1757L288.279 23.2255ZM290.13 21.6336L292.922 23.6284C293.651 22.609 294.185 21.487 294.514 20.2785L291.203 19.3755L287.892 18.4724C287.778 18.8928 287.596 19.2762 287.337 19.6388L290.13 21.6336ZM291.203 19.3755L294.496 20.3438C294.834 19.1943 295.005 18.0168 295.005 16.8211H291.574H288.142C288.142 17.353 288.066 17.8784 287.911 18.4071L291.203 19.3755ZM291.574 16.8211H295.005C295.005 15.6104 294.837 14.4226 294.488 13.2715L291.203 14.2668L287.919 15.2621C288.064 15.7398 288.142 16.2549 288.142 16.8211H291.574ZM291.203 14.2668L294.488 13.2715C294.127 12.0808 293.572 10.977 292.813 9.99012L290.093 12.0826L287.372 14.1752C287.6 14.4716 287.786 14.8239 287.919 15.2621L291.203 14.2668ZM290.093 12.0826L292.851 10.0398C292.018 8.91629 290.951 8.04407 289.7 7.4385L288.205 10.5278L286.71 13.6172C286.989 13.752 287.18 13.9163 287.335 14.1254L290.093 12.0826ZM288.205 10.5278L289.7 7.4385C288.388 6.80381 286.971 6.54056 285.539 6.54056V9.97254V13.4045C286.131 13.4045 286.491 13.5115 286.71 13.6172L288.205 10.5278ZM285.539 9.97254V6.54056C284.066 6.54056 282.604 6.82278 281.263 7.51512L282.837 10.5648L284.411 13.6146C284.6 13.5172 284.94 13.4045 285.539 13.4045V9.97254ZM282.837 10.5648L281.222 7.53663C280.038 8.16818 279.029 9.03334 278.228 10.1139L280.986 12.1567L283.744 14.1995C283.931 13.9473 284.155 13.7513 284.452 13.5931L282.837 10.5648ZM280.986 12.1567L278.266 10.0642C277.493 11.0681 276.94 12.1964 276.583 13.4094L279.875 14.3778L283.168 15.3462C283.305 14.8811 283.491 14.5286 283.706 14.2492L280.986 12.1567ZM279.875 14.3778L276.564 13.4748C276.26 14.5904 276.11 15.7335 276.11 16.8952H279.542H282.974C282.974 16.3293 283.046 15.7942 283.186 15.2809L279.875 14.3778ZM304.184 30H300.752V33.432H304.184V30ZM304.184 3.71627V0.284287H300.752V3.71627H304.184ZM322.213 3.71627H325.645V0.284287H322.213V3.71627ZM322.213 10.0096V13.4415H325.645V10.0096H322.213ZM311.403 10.0096V6.57758H307.971V10.0096H311.403ZM311.403 14.3778H307.971V17.8098H311.403V14.3778ZM320.214 14.3778H323.645V10.9459H320.214V14.3778ZM320.214 20.2269V23.6589H323.645V20.2269H320.214ZM311.403 20.2269V16.7949H307.971V20.2269H311.403ZM311.403 30V33.432H314.835V30H311.403ZM304.184 30H307.616V3.71627H304.184H300.752V30H304.184ZM304.184 3.71627V7.14825H322.213V3.71627V0.284287H304.184V3.71627ZM322.213 3.71627H318.781V10.0096H322.213H325.645V3.71627H322.213ZM322.213 10.0096V6.57758H311.403V10.0096V13.4415H322.213V10.0096ZM311.403 10.0096H307.971V14.3778H311.403H314.835V10.0096H311.403ZM311.403 14.3778V17.8098H320.214V14.3778V10.9459H311.403V14.3778ZM320.214 14.3778H316.781V20.2269H320.214H323.645V14.3778H320.214ZM320.214 20.2269V16.7949H311.403V20.2269V23.6589H320.214V20.2269ZM311.403 20.2269H307.971V30H311.403H314.835V20.2269H311.403ZM311.403 30V26.568H304.184V30V33.432H311.403V30ZM22.1864 47.3048L20.4463 50.2629L23.5588 52.0938L25.2291 48.8923L22.1864 47.3048ZM21.5571 46.9346L23.2971 43.9764L23.2971 43.9764L21.5571 46.9346ZM19.8912 46.1201L18.4459 49.233L18.4923 49.2545L18.5393 49.2746L19.8912 46.1201ZM17.633 45.2687L18.6283 41.9842L18.6283 41.9842L17.633 45.2687ZM13.709 45.1947L15.2438 48.2643L15.2438 48.2643L13.709 45.1947ZM13.709 47.2677L15.6533 44.4396L15.6533 44.4396L13.709 47.2677ZM15.3748 48.0081L14.3576 51.2859L14.3731 51.2907L14.3887 51.2954L15.3748 48.0081ZM18.0032 48.8225L16.9659 52.094L16.9869 52.1007L17.0079 52.107L18.0032 48.8225ZM22.2234 50.5254L23.858 47.5077L22.2234 50.5254ZM24.9628 53.0057L22.0645 54.8437L22.0748 54.86L22.0853 54.8761L24.9628 53.0057ZM25.0739 60.9649L28.1002 62.5836L28.1078 62.5692L28.1154 62.5548L25.0739 60.9649ZM22.7787 63.5192L24.6824 66.3748L22.7787 63.5192ZM19.558 64.926L20.3246 68.2712L20.3576 68.2637L20.3904 68.2555L19.558 64.926ZM11.969 64.963L11.296 68.3283L11.3308 68.3353L11.3657 68.3415L11.969 64.963ZM8.00798 63.8894L6.83015 67.113L6.85766 67.123L6.88534 67.1326L8.00798 63.8894ZM4.49114 62.2606L1.41075 60.7474L-1.09673e-05 63.6193L2.76616 65.2275L4.49114 62.2606ZM7.60076 55.9303L9.3665 52.9874L6.166 51.0671L4.52038 54.4171L7.60076 55.9303ZM10.3032 57.374L8.88301 60.4984H8.88301L10.3032 57.374ZM13.0056 58.3735L12.0194 61.6608L12.0305 61.6641L12.0415 61.6673L13.0056 58.3735ZM17.67 58.5216L19.5737 61.3772L19.5988 61.3605L19.6235 61.3434L17.67 58.5216ZM17.3369 56.4855L15.6934 59.4985L15.7472 59.5278L15.802 59.5552L17.3369 56.4855ZM15.1897 55.6711L14.1607 58.9452L14.2157 58.9625L14.2712 58.9779L15.1897 55.6711ZM12.3022 54.7456L11.2012 57.9962L11.2204 58.0027L11.2397 58.009L12.3022 54.7456ZM8.52625 53.0057L6.60615 55.8503L6.63086 55.867L6.65586 55.8833L8.52625 53.0057ZM6.34211 50.6735L3.28913 52.2413L3.29793 52.2584L3.30692 52.2754L6.34211 50.6735ZM7.00845 42.4922L4.19438 40.5277L4.19437 40.5277L7.00845 42.4922ZM10.5993 39.5307L12.0077 42.6604L12.0194 42.6551L12.031 42.6498L10.5993 39.5307ZM19.1508 38.9754L18.2536 42.288L18.2939 42.299L18.3344 42.3089L19.1508 38.9754ZM22.5196 40.086L21.1676 43.2405L21.181 43.2462L21.1943 43.2518L22.5196 40.086ZM25.296 41.3446L28.3388 42.9322L29.9539 39.8365L26.8308 38.275L25.296 41.3446ZM22.1864 47.3048C23.9265 44.3466 23.9265 44.3466 23.9265 44.3466C23.9265 44.3466 23.9265 44.3466 23.9265 44.3466C23.9265 44.3466 23.9265 44.3466 23.9264 44.3466C23.9264 44.3466 23.9264 44.3466 23.9264 44.3466C23.9264 44.3466 23.9264 44.3466 23.9264 44.3466C23.9264 44.3466 23.9264 44.3466 23.9264 44.3466C23.9264 44.3466 23.9264 44.3466 23.9264 44.3465C23.9263 44.3465 23.9263 44.3465 23.9263 44.3465C23.9262 44.3465 23.9263 44.3465 23.9261 44.3464C23.926 44.3464 23.926 44.3463 23.9259 44.3463C23.9241 44.3452 23.9262 44.3465 23.924 44.3452C23.9227 44.3444 23.9247 44.3456 23.9234 44.3448C23.9227 44.3444 23.9233 44.3448 23.9226 44.3444C23.9198 44.3427 23.9238 44.3451 23.9209 44.3434C23.9201 44.3429 23.9198 44.3427 23.9189 44.3422C23.9187 44.3421 23.9169 44.341 23.9166 44.3408C23.9108 44.3374 23.9173 44.3412 23.9111 44.3376C23.9048 44.3338 23.9111 44.3376 23.9043 44.3336C23.8926 44.3267 23.9006 44.3314 23.8871 44.3235C23.8842 44.3218 23.7983 44.2712 23.7691 44.2541C23.7574 44.2472 23.4138 44.045 23.2971 43.9764L21.5571 46.9346L19.817 49.8927C19.8535 49.9142 19.9345 49.9618 19.9645 49.9795C20.0409 50.0244 20.0224 50.0135 20.0923 50.0547C20.1379 50.0815 20.2696 50.1589 20.289 50.1703C20.3978 50.2343 20.3244 50.1912 20.407 50.2398C20.4117 50.2426 20.4118 50.2426 20.4162 50.2452C20.4167 50.2455 20.4241 50.2498 20.4242 50.2499C20.4293 50.2529 20.4227 50.249 20.4277 50.252C20.4297 50.2531 20.4265 50.2513 20.4285 50.2524C20.4286 50.2525 20.4293 50.2529 20.4294 50.2529C20.4313 50.2541 20.429 50.2527 20.4309 50.2539C20.4327 50.2549 20.4352 50.2563 20.4365 50.2571C20.4404 50.2594 20.4372 50.2576 20.4408 50.2596C20.4415 50.26 20.441 50.2598 20.4417 50.2602C20.4424 50.2606 20.4417 50.2602 20.4425 50.2606C20.4453 50.2623 20.4411 50.2598 20.4438 50.2614C20.4451 50.2622 20.4448 50.262 20.4457 50.2625C20.4458 50.2626 20.4461 50.2628 20.4461 50.2628C20.4462 50.2629 20.4462 50.2628 20.4463 50.2629C20.4463 50.2629 20.4463 50.2629 20.4463 50.2629C20.4463 50.2629 20.4463 50.2629 20.4463 50.2629C20.4463 50.2629 20.4463 50.2629 22.1864 47.3048ZM21.5571 46.9346L23.2971 43.9764C22.7045 43.6278 22.0042 43.2918 21.2431 42.9656L19.8912 46.1201L18.5393 49.2746C19.1603 49.5408 19.5705 49.7477 19.817 49.8927L21.5571 46.9346ZM19.8912 46.1201L21.3364 43.0073C20.4839 42.6115 19.579 42.2723 18.6283 41.9842L17.633 45.2687L16.6377 48.5532C17.3158 48.7587 17.9164 48.9871 18.4459 49.233L19.8912 46.1201ZM17.633 45.2687L18.6283 41.9842C17.5161 41.6472 16.3788 41.4665 15.2267 41.4665V44.8985V48.3305C15.6542 48.3305 16.1211 48.3966 16.6377 48.5532L17.633 45.2687ZM15.2267 44.8985V41.4665C14.2761 41.4665 13.1964 41.6139 12.1741 42.125L13.709 45.1947L15.2438 48.2643C15.1217 48.3253 15.0439 48.3406 15.0418 48.341C15.0401 48.3413 15.0538 48.3386 15.0854 48.3358C15.117 48.333 15.1635 48.3305 15.2267 48.3305V44.8985ZM13.709 45.1947L12.1741 42.125C11.4719 42.4761 10.7922 43.033 10.3122 43.843C9.83947 44.6407 9.68467 45.4739 9.68467 46.1942H13.1166H16.5486C16.5486 46.4455 16.4925 46.8777 16.2172 47.3422C15.9347 47.819 15.5511 48.1106 15.2438 48.2643L13.709 45.1947ZM13.1166 46.1942H9.68467C9.68467 47.8695 10.5249 49.2435 11.7646 50.0958L13.709 47.2677L15.6533 44.4396C15.8199 44.5542 16.0697 44.7753 16.2697 45.1378C16.4751 45.51 16.5486 45.8882 16.5486 46.1942H13.1166ZM13.709 47.2677L11.7646 50.0958C12.5574 50.6409 13.4757 51.0122 14.3576 51.2859L15.3748 48.0081L16.3921 44.7304C16.1342 44.6503 15.9461 44.5783 15.8154 44.5203C15.6818 44.4609 15.6382 44.4293 15.6533 44.4396L13.709 47.2677ZM15.3748 48.0081L14.3887 51.2954C15.107 51.5109 15.9653 51.7767 16.9659 52.094L18.0032 48.8225L19.0405 45.5511C18.0174 45.2267 17.1234 44.9496 16.361 44.7209L15.3748 48.0081ZM18.0032 48.8225L17.0079 52.107C18.4702 52.5501 19.6527 53.0361 20.5888 53.5431L22.2234 50.5254L23.858 47.5077C22.4249 46.7314 20.7939 46.0821 18.9985 45.5381L18.0032 48.8225ZM22.2234 50.5254L20.5888 53.5431C21.3236 53.9412 21.774 54.3856 22.0645 54.8437L24.9628 53.0057L27.8612 51.1678C26.8684 49.6022 25.4924 48.393 23.858 47.5077L22.2234 50.5254ZM24.9628 53.0057L22.0853 54.8761C22.2465 55.1241 22.4934 55.7196 22.4934 56.9668H25.9253H29.3573C29.3573 54.9069 28.9625 52.8618 27.8404 51.1353L24.9628 53.0057ZM25.9253 56.9668H22.4934C22.4934 58.1479 22.2801 58.9011 22.0324 59.375L25.0739 60.9649L28.1154 62.5548C29.0029 60.8569 29.3573 58.9447 29.3573 56.9668H25.9253ZM25.0739 60.9649L22.0476 59.3462C21.7355 59.9298 21.3478 60.3484 20.875 60.6636L22.7787 63.5192L24.6824 66.3748C26.1345 65.4067 27.2771 64.1224 28.1002 62.5836L25.0739 60.9649ZM22.7787 63.5192L20.875 60.6636C20.2576 61.0752 19.55 61.3904 18.7256 61.5965L19.558 64.926L20.3904 68.2555C21.9353 67.8693 23.3747 67.2466 24.6824 66.3748L22.7787 63.5192ZM19.558 64.926L18.7914 61.5807C17.8621 61.7937 16.9101 61.9012 15.9301 61.9012V65.3332V68.7652C17.4181 68.7652 18.8847 68.6012 20.3246 68.2712L19.558 64.926ZM15.9301 65.3332V61.9012C14.8953 61.9012 13.7777 61.7997 12.5724 61.5844L11.969 64.963L11.3657 68.3415C12.9245 68.6199 14.4476 68.7652 15.9301 68.7652V65.3332ZM11.969 64.963L12.6421 61.5976C11.4342 61.3561 10.2642 61.0387 9.13061 60.6462L8.00798 63.8894L6.88534 67.1326C8.3184 67.6287 9.78909 68.0269 11.296 68.3283L11.969 64.963ZM8.00798 63.8894L9.18581 60.6659C8.07109 60.2586 7.08458 59.7985 6.21612 59.2936L4.49114 62.2606L2.76616 65.2275C4.02014 65.9566 5.37818 66.5824 6.83015 67.113L8.00798 63.8894ZM4.49114 62.2606L7.57153 63.7737L10.6812 57.4434L7.60076 55.9303L4.52038 54.4171L1.41075 60.7474L4.49114 62.2606ZM7.60076 55.9303C5.83503 58.8732 5.83503 58.8732 5.83503 58.8732C5.83503 58.8732 5.83503 58.8732 5.83504 58.8732C5.83504 58.8732 5.83505 58.8732 5.83505 58.8732C5.83506 58.8732 5.83506 58.8732 5.83507 58.8732C5.83508 58.8732 5.83517 58.8732 5.83521 58.8733C5.83905 58.8756 5.83179 58.8712 5.83575 58.8736C5.83648 58.874 5.83671 58.8742 5.83792 58.8749C5.83824 58.8751 5.8391 58.8756 5.83954 58.8759C5.84 58.8761 5.84095 58.8767 5.84153 58.8771C5.84406 58.8786 5.84359 58.8783 5.84659 58.8801C5.85604 58.8858 5.84968 58.882 5.86105 58.8888C5.89962 58.9119 5.8408 58.8766 5.8813 58.9009C5.8893 58.9057 5.8851 58.9032 5.89359 58.9083C5.8975 58.9106 5.90294 58.9139 5.90733 58.9165C5.91384 58.9204 5.9307 58.9306 5.93914 58.9356C6.0179 58.9829 5.93366 58.9323 6.02012 58.9842C6.07153 59.0151 6.06512 59.0112 6.12424 59.0467C6.14719 59.0605 6.22083 59.1046 6.25149 59.123C6.56651 59.312 6.22955 59.1099 6.57541 59.3174L8.34115 56.3745L10.1069 53.4316C9.81056 53.2538 9.72453 53.2022 9.5516 53.0984C9.45704 53.0417 9.47648 53.0533 9.41278 53.0151C9.37421 52.992 9.40893 53.0128 9.37807 52.9943C9.37426 52.992 9.37634 52.9933 9.37301 52.9913C9.37214 52.9907 9.37177 52.9905 9.37102 52.9901C9.37026 52.9896 9.37004 52.9895 9.36939 52.9891C9.36756 52.988 9.36858 52.9886 9.36723 52.9878C9.36686 52.9876 9.36725 52.9878 9.36691 52.9876C9.36684 52.9876 9.36672 52.9875 9.36668 52.9875C9.36664 52.9874 9.36656 52.9874 9.36655 52.9874C9.36654 52.9874 9.36653 52.9874 9.36653 52.9874C9.36652 52.9874 9.36652 52.9874 9.36651 52.9874C9.36651 52.9874 9.36651 52.9874 9.3665 52.9874C9.3665 52.9874 9.3665 52.9874 7.60076 55.9303ZM8.34115 56.3745L6.57541 59.3174C7.22396 59.7065 8.0072 60.1003 8.88301 60.4984L10.3032 57.374L11.7233 54.2497C10.9703 53.9074 10.4455 53.6348 10.1069 53.4316L8.34115 56.3745ZM10.3032 57.374L8.88301 60.4984C9.85753 60.9413 10.9058 61.3267 12.0194 61.6608L13.0056 58.3735L13.9918 55.0863C13.131 54.8281 12.3777 54.5471 11.7233 54.2497L10.3032 57.374ZM13.0056 58.3735L12.0415 61.6673C13.3534 62.0513 14.6896 62.2497 16.0412 62.2497V58.8178V55.3858C15.3691 55.3858 14.6815 55.2881 13.9696 55.0797L13.0056 58.3735ZM16.0412 58.8178V62.2497C16.562 62.2497 17.1147 62.2185 17.6546 62.1204C18.1598 62.0285 18.881 61.839 19.5737 61.3772L17.67 58.5216L15.7663 55.666C15.9796 55.5238 16.1594 55.4502 16.2594 55.4149C16.3617 55.3787 16.4237 55.3677 16.4268 55.3671C16.432 55.3662 16.4036 55.3715 16.3337 55.3767C16.265 55.3817 16.1687 55.3858 16.0412 55.3858V58.8178ZM17.67 58.5216L19.6235 61.3434C20.7311 60.5766 21.5833 59.3013 21.5833 57.6702H18.1513H14.7193C14.7193 57.2878 14.8147 56.8577 15.0432 56.4534C15.2632 56.0642 15.534 55.8262 15.7165 55.6999L17.67 58.5216ZM18.1513 57.6702H21.5833C21.5833 56.7762 21.3372 55.8576 20.7758 55.041C20.2346 54.2539 19.5267 53.7434 18.8717 53.4159L17.3369 56.4855L15.802 59.5552C15.69 59.4992 15.3893 59.3219 15.1196 58.9296C14.8296 58.5079 14.7193 58.0459 14.7193 57.6702H18.1513ZM17.3369 56.4855L18.9803 53.4726C18.1253 53.0063 17.1386 52.6506 16.1083 52.3644L15.1897 55.6711L14.2712 58.9779C15.0178 59.1853 15.4625 59.3725 15.6934 59.4985L17.3369 56.4855ZM15.1897 55.6711L16.2187 52.397C15.3683 52.1298 14.4172 51.825 13.3647 51.4823L12.3022 54.7456L11.2397 58.009C12.3097 58.3574 13.2836 58.6695 14.1607 58.9452L15.1897 55.6711ZM12.3022 54.7456L13.4032 51.4951C12.0513 51.0372 11.0737 50.5683 10.3966 50.1282L8.52625 53.0057L6.65586 55.8833C7.95312 56.7265 9.49283 57.4176 11.2012 57.9962L12.3022 54.7456ZM8.52625 53.0057L10.4463 50.1611C9.84072 49.7523 9.53759 49.3753 9.3773 49.0716L6.34211 50.6735L3.30692 52.2754C4.08445 53.7486 5.23741 54.9264 6.60615 55.8503L8.52625 53.0057ZM6.34211 50.6735L9.39508 49.1058C9.22983 48.784 9.07072 48.2504 9.07072 47.3788H5.63874H2.20676C2.20676 49.0739 2.51656 50.7368 3.28913 52.2413L6.34211 50.6735ZM5.63874 47.3788H9.07072C9.07072 45.9734 9.39361 45.0712 9.82253 44.4568L7.00845 42.4922L4.19437 40.5277C2.79701 42.5293 2.20676 44.8848 2.20676 47.3788H5.63874ZM7.00845 42.4922L9.82253 44.4568C10.3743 43.6664 11.0815 43.0772 12.0077 42.6604L10.5993 39.5307L9.19097 36.401C7.15566 37.3169 5.46892 38.702 4.19438 40.5277L7.00845 42.4922ZM10.5993 39.5307L12.031 42.6498C13.068 42.1738 14.1938 41.9261 15.4489 41.9261V38.4942V35.0622C13.2488 35.0622 11.1416 35.5055 9.16762 36.4116L10.5993 39.5307ZM15.4489 38.4942V41.9261C16.443 41.9261 17.3746 42.05 18.2536 42.288L19.1508 38.9754L20.048 35.6628C18.5578 35.2592 17.0214 35.0622 15.4489 35.0622V38.4942ZM19.1508 38.9754L18.3344 42.3089C19.3793 42.5647 20.3212 42.8777 21.1676 43.2405L22.5196 40.086L23.8715 36.9315C22.6448 36.4058 21.3409 35.9784 19.9672 35.6419L19.1508 38.9754ZM22.5196 40.086L21.1943 43.2518C22.2045 43.6747 23.0571 44.0623 23.7612 44.4143L25.296 41.3446L26.8308 38.275C25.9554 37.8373 24.957 37.3858 23.8448 36.9202L22.5196 40.086ZM25.296 41.3446L22.2533 39.7571L19.1436 45.7172L22.1864 47.3048L25.2291 48.8923L28.3388 42.9322L25.296 41.3446ZM31.3371 65H27.9051V68.432H31.3371V65ZM31.3371 38.7163V35.2843H27.9051V38.7163H31.3371ZM38.5559 38.7163H41.9879V35.2843H38.5559V38.7163ZM38.5559 48.7115H35.1239V58.4953L41.2358 50.8554L38.5559 48.7115ZM46.5521 38.7163V35.2843H44.9026L43.8721 36.5723L46.5521 38.7163ZM54.6963 38.7163L57.3615 40.8786L61.9002 35.2843H54.6963V38.7163ZM45.1453 50.4884L42.4802 48.3261L40.8448 50.3418L42.3391 52.4642L45.1453 50.4884ZM55.3627 65V68.432H61.9764L58.1688 63.0242L55.3627 65ZM47.0703 65L44.2248 66.9188L45.2452 68.432H47.0703V65ZM40.5549 55.338L43.4004 53.4192L41.0288 49.9022L38.0844 52.9557L40.5549 55.338ZM38.5559 57.411L36.0854 55.0288L35.1239 56.0259V57.411H38.5559ZM38.5559 65V68.432H41.9879V65H38.5559ZM31.3371 65H34.7691V38.7163H31.3371H27.9051V65H31.3371ZM31.3371 38.7163V42.1482H38.5559V38.7163V35.2843H31.3371V38.7163ZM38.5559 38.7163H35.1239V48.7115H38.5559H41.9879V38.7163H38.5559ZM38.5559 48.7115L41.2358 50.8554L49.232 40.8602L46.5521 38.7163L43.8721 36.5723L35.8759 46.5675L38.5559 48.7115ZM46.5521 38.7163V42.1482H54.6963V38.7163V35.2843H46.5521V38.7163ZM54.6963 38.7163L52.0312 36.554L42.4802 48.3261L45.1453 50.4884L47.8105 52.6507L57.3615 40.8786L54.6963 38.7163ZM45.1453 50.4884L42.3391 52.4642L52.5565 66.9758L55.3627 65L58.1688 63.0242L47.9515 48.5126L45.1453 50.4884ZM55.3627 65V61.568H47.0703V65V68.432H55.3627V65ZM47.0703 65L49.9158 63.0812L43.4004 53.4192L40.5549 55.338L37.7094 57.2567L44.2248 66.9188L47.0703 65ZM40.5549 55.338L38.0844 52.9557L36.0854 55.0288L38.5559 57.411L41.0264 59.7933L43.0254 57.7202L40.5549 55.338ZM38.5559 57.411H35.1239V65H38.5559H41.9879V57.411H38.5559ZM38.5559 65V61.568H31.3371V65V68.432H38.5559V65ZM59.1175 65H55.6855V68.432H59.1175V65ZM59.1175 38.7163V35.2843H55.6855V38.7163H59.1175ZM66.3363 38.7163H69.7683V35.2843H66.3363V38.7163ZM66.3363 65V68.432H69.7683V65H66.3363ZM59.1175 65H62.5495V38.7163H59.1175H55.6855V65H59.1175ZM59.1175 38.7163V42.1482H66.3363V38.7163V35.2843H59.1175V38.7163ZM66.3363 38.7163H62.9043V65H66.3363H69.7683V38.7163H66.3363ZM66.3363 65V61.568H59.1175V65V68.432H66.3363V65ZM73.088 65H69.656V68.432H73.088V65ZM73.088 38.7163V35.2843H69.656V38.7163H73.088ZM80.3067 38.7163H83.7387V35.2843H80.3067V38.7163ZM80.3067 58.7067H76.8748V62.1387H80.3067V58.7067ZM92.227 58.7067H95.659V55.2747H92.227V58.7067ZM92.227 65V68.432H95.659V65H92.227ZM73.088 65H76.52V38.7163H73.088H69.656V65H73.088ZM73.088 38.7163V42.1482H80.3067V38.7163V35.2843H73.088V38.7163ZM80.3067 38.7163H76.8748V58.7067H80.3067H83.7387V38.7163H80.3067ZM80.3067 58.7067V62.1387H92.227V58.7067V55.2747H80.3067V58.7067ZM92.227 58.7067H88.795V65H92.227H95.659V58.7067H92.227ZM92.227 65V61.568H73.088V65V68.432H92.227V65ZM96.964 65H93.532V68.432H96.964V65ZM96.964 38.7163V35.2843H93.532V38.7163H96.964ZM104.183 38.7163H107.615V35.2843H104.183V38.7163ZM104.183 58.7067H100.751V62.1387H104.183V58.7067ZM116.103 58.7067H119.535V55.2747H116.103V58.7067ZM116.103 65V68.432H119.535V65H116.103ZM96.964 65H100.396V38.7163H96.964H93.532V65H96.964ZM96.964 38.7163V42.1482H104.183V38.7163V35.2843H96.964V38.7163ZM104.183 38.7163H100.751V58.7067H104.183H107.615V38.7163H104.183ZM104.183 58.7067V62.1387H116.103V58.7067V55.2747H104.183V58.7067ZM116.103 58.7067H112.671V65H116.103H119.535V58.7067H116.103ZM116.103 65V61.568H96.964V65V68.432H116.103V65ZM149.023 58.7067H152.455V55.2747H149.023V58.7067ZM149.023 65V68.432H152.455V65H149.023ZM130.292 65H126.86V68.432H130.292V65ZM130.292 38.7163V35.2843H126.86V38.7163H130.292ZM148.69 38.7163H152.122V35.2843H148.69V38.7163ZM148.69 45.0096V48.4415H152.122V45.0096H148.69ZM137.51 45.0096V41.5776H134.078V45.0096H137.51ZM137.51 48.7115H134.078V52.1435H137.51V48.7115ZM147.061 48.7115H150.493V45.2795H147.061V48.7115ZM147.061 54.5605V57.9925H150.493V54.5605H147.061ZM137.51 54.5605V51.1286H134.078V54.5605H137.51ZM137.51 58.7067H134.078V62.1387H137.51V58.7067ZM149.023 58.7067H145.591V65H149.023H152.455V58.7067H149.023ZM149.023 65V61.568H130.292V65V68.432H149.023V65ZM130.292 65H133.724V38.7163H130.292H126.86V65H130.292ZM130.292 38.7163V42.1482H148.69V38.7163V35.2843H130.292V38.7163ZM148.69 38.7163H145.258V45.0096H148.69H152.122V38.7163H148.69ZM148.69 45.0096V41.5776H137.51V45.0096V48.4415H148.69V45.0096ZM137.51 45.0096H134.078V48.7115H137.51H140.942V45.0096H137.51ZM137.51 48.7115V52.1435H147.061V48.7115V45.2795H137.51V48.7115ZM147.061 48.7115H143.629V54.5605H147.061H150.493V48.7115H147.061ZM147.061 54.5605V51.1286H137.51V54.5605V57.9925H147.061V54.5605ZM137.51 54.5605H134.078V58.7067H137.51H140.942V54.5605H137.51ZM137.51 58.7067V62.1387H149.023V58.7067V55.2747H137.51V58.7067ZM159.747 38.7163L162.721 37.0035L161.731 35.2843H159.747V38.7163ZM164.523 47.0086L161.549 48.7213L164.523 53.8856L167.497 48.7213L164.523 47.0086ZM169.298 38.7163V35.2843H167.314L166.324 37.0035L169.298 38.7163ZM177.072 38.7163L179.99 40.5235L183.235 35.2843H177.072V38.7163ZM168.817 52.0432L165.899 50.236L164.784 52.0357L165.893 53.8396L168.817 52.0432ZM176.776 65V68.432H182.912L179.7 63.2036L176.776 65ZM169.002 65L166.014 66.6892L167 68.432H169.002V65ZM164.523 57.0779L167.51 55.3887L164.523 50.105L161.535 55.3887L164.523 57.0779ZM160.043 65V68.432H162.045L163.031 66.6892L160.043 65ZM152.232 65L149.308 63.2036L146.096 68.432H152.232V65ZM160.191 52.0432L163.116 53.8396L164.224 52.0357L163.109 50.236L160.191 52.0432ZM151.936 38.7163V35.2843H145.773L149.018 40.5235L151.936 38.7163ZM159.747 38.7163L156.773 40.429L161.549 48.7213L164.523 47.0086L167.497 45.2959L162.721 37.0035L159.747 38.7163ZM164.523 47.0086L167.497 48.7213L172.272 40.429L169.298 38.7163L166.324 37.0035L161.549 45.2959L164.523 47.0086ZM169.298 38.7163V42.1482H177.072V38.7163V35.2843H169.298V38.7163ZM177.072 38.7163L174.155 36.909L165.899 50.236L168.817 52.0432L171.734 53.8505L179.99 40.5235L177.072 38.7163ZM168.817 52.0432L165.893 53.8396L173.852 66.7964L176.776 65L179.7 63.2036L171.741 50.2469L168.817 52.0432ZM176.776 65V61.568H169.002V65V68.432H176.776V65ZM169.002 65L171.989 63.3108L167.51 55.3887L164.523 57.0779L161.535 58.7671L166.014 66.6892L169.002 65ZM164.523 57.0779L161.535 55.3887L157.056 63.3108L160.043 65L163.031 66.6892L167.51 58.7671L164.523 57.0779ZM160.043 65V61.568H152.232V65V68.432H160.043V65ZM152.232 65L155.156 66.7964L163.116 53.8396L160.191 52.0432L157.267 50.2469L149.308 63.2036L152.232 65ZM160.191 52.0432L163.109 50.236L154.854 36.909L151.936 38.7163L149.018 40.5235L157.274 53.8505L160.191 52.0432ZM151.936 38.7163V42.1482H159.747V38.7163V35.2843H151.936V38.7163ZM179.441 46.9346L176.251 45.6687L176.245 45.6821L176.24 45.6956L179.441 46.9346ZM182.106 42.7144L179.582 40.3886L182.106 42.7144ZM186.326 39.7158L187.729 42.8481L187.739 42.8434L187.75 42.8386L186.326 39.7158ZM198.579 40.16L196.889 43.147L196.904 43.1555L196.919 43.1638L198.579 40.16ZM202.763 44.3062L204.752 47.1027L207.202 45.3601L205.797 42.7024L202.763 44.3062ZM197.247 48.2302L194.03 49.4252L195.588 53.6219L199.236 51.0268L197.247 48.2302ZM195.84 46.2312L193.71 48.922L193.736 48.9431L193.763 48.9636L195.84 46.2312ZM193.878 45.2687L192.935 48.5686L193.004 48.5882L193.073 48.6049L193.878 45.2687ZM189.14 45.6019L190.755 48.6301L190.772 48.6207L190.79 48.6111L189.14 45.6019ZM187.289 47.1937L184.531 45.1509L184.506 45.1845L184.482 45.2186L187.289 47.1937ZM186.215 49.4149L182.931 48.4196L182.917 48.4655L182.904 48.5118L186.215 49.4149ZM186.289 54.4865L183.024 55.5429V55.5429L186.289 54.4865ZM187.474 56.7447L184.765 58.8517L184.784 58.8766L184.804 58.9011L187.474 56.7447ZM189.362 58.2625L187.827 61.3321L187.847 61.3421L187.867 61.3518L189.362 58.2625ZM193.952 58.5216L194.895 61.8215L194.949 61.8061L195.002 61.789L193.952 58.5216ZM195.84 57.4851L198.026 60.131V60.131L195.84 57.4851ZM197.136 55.5971L198.896 52.6509L195.366 50.5419L193.922 54.392L197.136 55.5971ZM203.022 59.1139L206.204 60.3991L207.304 57.6747L204.782 56.1678L203.022 59.1139ZM200.43 62.4086L202.499 65.1475L200.43 62.4086ZM196.321 64.5187L197.327 67.8001L197.351 67.7927L197.375 67.785L196.321 64.5187ZM186.4 64.0745L184.884 67.1536L184.913 67.1675L184.941 67.1809L186.4 64.0745ZM182.217 60.9649L179.649 63.242L179.672 63.2676L179.695 63.2927L182.217 60.9649ZM179.515 56.5966L176.321 57.8545L176.325 57.8629L176.328 57.8712L179.515 56.5966ZM178.552 51.636H181.984C181.984 50.4653 182.198 49.3177 182.641 48.1735L179.441 46.9346L176.24 45.6956C175.498 47.6117 175.12 49.5984 175.12 51.636H178.552ZM179.441 46.9346L182.63 48.2004C183.089 47.046 183.748 45.9967 184.63 45.0401L182.106 42.7144L179.582 40.3886C178.144 41.9494 177.026 43.7135 176.251 45.6687L179.441 46.9346ZM182.106 42.7144L184.63 45.0401C185.456 44.1433 186.474 43.4097 187.729 42.8481L186.326 39.7158L184.924 36.5835C182.871 37.5026 181.076 38.7681 179.582 40.3886L182.106 42.7144ZM186.326 39.7158L187.75 42.8386C188.923 42.3035 190.316 42.0002 191.99 42.0002V38.5682V35.1362C189.469 35.1362 187.085 35.5979 184.902 36.593L186.326 39.7158ZM191.99 38.5682V42.0002C194.015 42.0002 195.61 42.4232 196.889 43.147L198.579 40.16L200.27 37.173C197.798 35.7744 194.999 35.1362 191.99 35.1362V38.5682ZM198.579 40.16L196.919 43.1638C198.269 43.9098 199.157 44.8296 199.728 45.91L202.763 44.3062L205.797 42.7024C204.542 40.3277 202.641 38.4833 200.24 37.1562L198.579 40.16ZM202.763 44.3062L200.773 41.5097L195.257 45.4337L197.247 48.2302L199.236 51.0268L204.752 47.1027L202.763 44.3062ZM197.247 48.2302L200.464 47.0353C199.96 45.678 199.143 44.4308 197.917 43.4988L195.84 46.2312L193.763 48.9636C193.771 48.9694 193.892 49.0549 194.03 49.4252L197.247 48.2302ZM195.84 46.2312L197.97 43.5404C196.999 42.7712 195.895 42.225 194.683 41.9325L193.878 45.2687L193.073 48.6049C193.292 48.6579 193.497 48.7534 193.71 48.922L195.84 46.2312ZM193.878 45.2687L194.821 41.9688C193.847 41.6906 192.851 41.5406 191.842 41.5406V44.9725V48.4045C192.165 48.4045 192.527 48.4519 192.935 48.5686L193.878 45.2687ZM191.842 44.9725V41.5406C190.337 41.5406 188.847 41.8479 187.489 42.5927L189.14 45.6019L190.79 48.6111C190.962 48.5167 191.274 48.4045 191.842 48.4045V44.9725ZM189.14 45.6019L187.525 42.5736C186.34 43.2052 185.331 44.0704 184.531 45.1509L187.289 47.1937L190.046 49.2365C190.233 48.9843 190.458 48.7883 190.755 48.6301L189.14 45.6019ZM187.289 47.1937L184.482 45.2186C183.793 46.1971 183.279 47.2708 182.931 48.4196L186.215 49.4149L189.5 50.4102C189.645 49.93 189.846 49.523 190.095 49.1688L187.289 47.1937ZM186.215 49.4149L182.904 48.5118C182.605 49.6098 182.45 50.7277 182.45 51.8581H185.882H189.314C189.314 51.3597 189.381 50.8488 189.526 50.3179L186.215 49.4149ZM185.882 51.8581H182.45C182.45 53.1171 182.638 54.3506 183.024 55.5429L186.289 54.4865L189.554 53.4301C189.397 52.9442 189.314 52.4254 189.314 51.8581H185.882ZM186.289 54.4865L183.024 55.5429C183.413 56.7447 183.99 57.8562 184.765 58.8517L187.474 56.7447L190.183 54.6377C189.92 54.3004 189.709 53.9065 189.554 53.4301L186.289 54.4865ZM187.474 56.7447L184.804 58.9011C185.632 59.9263 186.649 60.7431 187.827 61.3321L189.362 58.2625L190.897 55.1928C190.594 55.0415 190.352 54.8464 190.144 54.5882L187.474 56.7447ZM189.362 58.2625L187.867 61.3518C189.144 61.97 190.515 62.2497 191.916 62.2497V58.8178V55.3858C191.442 55.3858 191.109 55.2954 190.857 55.1732L189.362 58.2625ZM191.916 58.8178V62.2497C192.925 62.2497 193.921 62.0997 194.895 61.8215L193.952 58.5216L193.009 55.2217C192.601 55.3384 192.239 55.3858 191.916 55.3858V58.8178ZM193.952 58.5216L195.002 61.789C196.114 61.4317 197.127 60.8731 198.026 60.131L195.84 57.4851L193.654 54.8391C193.417 55.0348 193.172 55.1673 192.902 55.2543L193.952 58.5216ZM195.84 57.4851L198.026 60.131C199.12 59.2271 199.873 58.0708 200.349 56.8021L197.136 55.5971L193.922 54.392C193.806 54.7029 193.695 54.8052 193.654 54.8391L195.84 57.4851ZM197.136 55.5971L195.375 58.5433L201.262 62.0601L203.022 59.1139L204.782 56.1678L198.896 52.6509L197.136 55.5971ZM203.022 59.1139L199.84 57.8288C199.576 58.4816 199.124 59.0947 198.362 59.6698L200.43 62.4086L202.499 65.1475C204.156 63.8964 205.431 62.3129 206.204 60.3991L203.022 59.1139ZM200.43 62.4086L198.362 59.6698C197.478 60.3379 196.455 60.8695 195.268 61.2525L196.321 64.5187L197.375 67.785C199.248 67.1808 200.965 66.3057 202.499 65.1475L200.43 62.4086ZM196.321 64.5187L195.316 61.2374C194.091 61.6127 192.912 61.7901 191.768 61.7901V65.2221V68.6541C193.635 68.6541 195.491 68.3626 197.327 67.8001L196.321 64.5187ZM191.768 65.2221V61.7901C190.28 61.7901 188.994 61.5013 187.859 60.9681L186.4 64.0745L184.941 67.1809C187.064 68.1778 189.357 68.6541 191.768 68.6541V65.2221ZM186.4 64.0745L187.916 60.9954C186.681 60.3876 185.63 59.6028 184.739 58.637L182.217 60.9649L179.695 63.2927C181.173 64.8936 182.911 66.1819 184.884 67.1536L186.4 64.0745ZM182.217 60.9649L184.785 58.6878C183.884 57.6722 183.194 56.5544 182.701 55.322L179.515 56.5966L176.328 57.8712C177.118 59.8471 178.23 61.6415 179.649 63.242L182.217 60.9649ZM179.515 56.5966L182.708 55.3387C182.217 54.0929 181.984 52.8652 181.984 51.636H178.552H175.12C175.12 53.7633 175.529 55.8426 176.321 57.8545L179.515 56.5966ZM226.544 58.7067H229.976V55.2747H226.544V58.7067ZM226.544 65V68.432H229.976V65H226.544ZM207.812 65H204.38V68.432H207.812V65ZM207.812 38.7163V35.2843H204.38V38.7163H207.812ZM226.211 38.7163H229.643V35.2843H226.211V38.7163ZM226.211 45.0096V48.4415H229.643V45.0096H226.211ZM215.031 45.0096V41.5776H211.599V45.0096H215.031ZM215.031 48.7115H211.599V52.1435H215.031V48.7115ZM224.582 48.7115H228.014V45.2795H224.582V48.7115ZM224.582 54.5605V57.9925H228.014V54.5605H224.582ZM215.031 54.5605V51.1286H211.599V54.5605H215.031ZM215.031 58.7067H211.599V62.1387H215.031V58.7067ZM226.544 58.7067H223.112V65H226.544H229.976V58.7067H226.544ZM226.544 65V61.568H207.812V65V68.432H226.544V65ZM207.812 65H211.244V38.7163H207.812H204.38V65H207.812ZM207.812 38.7163V42.1482H226.211V38.7163V35.2843H207.812V38.7163ZM226.211 38.7163H222.779V45.0096H226.211H229.643V38.7163H226.211ZM226.211 45.0096V41.5776H215.031V45.0096V48.4415H226.211V45.0096ZM215.031 45.0096H211.599V48.7115H215.031H218.463V45.0096H215.031ZM215.031 48.7115V52.1435H224.582V48.7115V45.2795H215.031V48.7115ZM224.582 48.7115H221.15V54.5605H224.582H228.014V48.7115H224.582ZM224.582 54.5605V51.1286H215.031V54.5605V57.9925H224.582V54.5605ZM215.031 54.5605H211.599V58.7067H215.031H218.463V54.5605H215.031ZM215.031 58.7067V62.1387H226.544V58.7067V55.2747H215.031V58.7067ZM232.122 65H228.69V68.432H232.122V65ZM232.122 38.7163V35.2843H228.69V38.7163H232.122ZM239.341 38.7163H242.773V35.2843H239.341V38.7163ZM239.341 58.7067H235.909V62.1387H239.341V58.7067ZM251.261 58.7067H254.693V55.2747H251.261V58.7067ZM251.261 65V68.432H254.693V65H251.261ZM232.122 65H235.554V38.7163H232.122H228.69V65H232.122ZM232.122 38.7163V42.1482H239.341V38.7163V35.2843H232.122V38.7163ZM239.341 38.7163H235.909V58.7067H239.341H242.773V38.7163H239.341ZM239.341 58.7067V62.1387H251.261V58.7067V55.2747H239.341V58.7067ZM251.261 58.7067H247.829V65H251.261H254.693V58.7067H251.261ZM251.261 65V61.568H232.122V65V68.432H251.261V65ZM255.998 65H252.566V68.432H255.998V65ZM255.998 38.7163V35.2843H252.566V38.7163H255.998ZM263.217 38.7163H266.649V35.2843H263.217V38.7163ZM263.217 58.7067H259.785V62.1387H263.217V58.7067ZM275.137 58.7067H278.569V55.2747H275.137V58.7067ZM275.137 65V68.432H278.569V65H275.137ZM255.998 65H259.43V38.7163H255.998H252.566V65H255.998ZM255.998 38.7163V42.1482H263.217V38.7163V35.2843H255.998V38.7163ZM263.217 38.7163H259.785V58.7067H263.217H266.649V38.7163H263.217ZM263.217 58.7067V62.1387H275.137V58.7067V55.2747H263.217V58.7067ZM275.137 58.7067H271.705V65H275.137H278.569V58.7067H275.137ZM275.137 65V61.568H255.998V65V68.432H275.137V65ZM298.606 58.7067H302.038V55.2747H298.606V58.7067ZM298.606 65V68.432H302.038V65H298.606ZM279.874 65H276.442V68.432H279.874V65ZM279.874 38.7163V35.2843H276.442V38.7163H279.874ZM298.273 38.7163H301.705V35.2843H298.273V38.7163ZM298.273 45.0096V48.4415H301.705V45.0096H298.273ZM287.093 45.0096V41.5776H283.661V45.0096H287.093ZM287.093 48.7115H283.661V52.1435H287.093V48.7115ZM296.644 48.7115H300.076V45.2795H296.644V48.7115ZM296.644 54.5605V57.9925H300.076V54.5605H296.644ZM287.093 54.5605V51.1286H283.661V54.5605H287.093ZM287.093 58.7067H283.661V62.1387H287.093V58.7067ZM298.606 58.7067H295.174V65H298.606H302.038V58.7067H298.606ZM298.606 65V61.568H279.874V65V68.432H298.606V65ZM279.874 65H283.306V38.7163H279.874H276.442V65H279.874ZM279.874 38.7163V42.1482H298.273V38.7163V35.2843H279.874V38.7163ZM298.273 38.7163H294.841V45.0096H298.273H301.705V38.7163H298.273ZM298.273 45.0096V41.5776H287.093V45.0096V48.4415H298.273V45.0096ZM287.093 45.0096H283.661V48.7115H287.093H290.525V45.0096H287.093ZM287.093 48.7115V52.1435H296.644V48.7115V45.2795H287.093V48.7115ZM296.644 48.7115H293.212V54.5605H296.644H300.076V48.7115H296.644ZM296.644 54.5605V51.1286H287.093V54.5605V57.9925H296.644V54.5605ZM287.093 54.5605H283.661V58.7067H287.093H290.525V54.5605H287.093ZM287.093 58.7067V62.1387H298.606V58.7067V55.2747H287.093V58.7067ZM311.403 52.0802L314.072 49.9233L307.971 42.3722V52.0802H311.403ZM311.403 65V68.432H314.835V65H311.403ZM304.184 65H300.752V68.432H304.184V65ZM304.184 38.7163V35.2843H300.752V38.7163H304.184ZM309.811 38.7163L312.505 36.5897L311.474 35.2843H309.811V38.7163ZM320.362 52.0802L317.668 54.2069L323.794 61.9661V52.0802H320.362ZM320.362 38.7163V35.2843H316.93V38.7163H320.362ZM327.58 38.7163H331.012V35.2843H327.58V38.7163ZM327.58 65V68.432H331.012V65H327.58ZM321.842 65L319.173 67.157L320.203 68.432H321.842V65ZM311.403 52.0802H307.971V65H311.403H314.835V52.0802H311.403ZM311.403 65V61.568H304.184V65V68.432H311.403V65ZM304.184 65H307.616V38.7163H304.184H300.752V65H304.184ZM304.184 38.7163V42.1482H309.811V38.7163V35.2843H304.184V38.7163ZM309.811 38.7163L307.117 40.8429L317.668 54.2069L320.362 52.0802L323.055 49.9536L312.505 36.5897L309.811 38.7163ZM320.362 52.0802H323.794V38.7163H320.362H316.93V52.0802H320.362ZM320.362 38.7163V42.1482H327.58V38.7163V35.2843H320.362V38.7163ZM327.58 38.7163H324.148V65H327.58H331.012V38.7163H327.58ZM327.58 65V61.568H321.842V65V68.432H327.58V65ZM321.842 65L324.512 62.843L314.072 49.9233L311.403 52.0802L308.733 54.2372L319.173 67.157L321.842 65ZM333.759 46.9346L330.569 45.6687L330.564 45.6821L330.559 45.6956L333.759 46.9346ZM336.424 42.7144L333.901 40.3886L336.424 42.7144ZM340.645 39.7158L342.047 42.8481L342.058 42.8434L342.068 42.8386L340.645 39.7158ZM352.898 40.16L351.208 43.147L351.223 43.1555L351.238 43.1638L352.898 40.16ZM357.081 44.3062L359.071 47.1027L361.52 45.3601L360.115 42.7024L357.081 44.3062ZM351.565 48.2302L348.348 49.4252L349.907 53.6219L353.555 51.0268L351.565 48.2302ZM350.159 46.2312L348.028 48.922L348.055 48.9431L348.082 48.9636L350.159 46.2312ZM348.197 45.2687L347.254 48.5686L347.322 48.5882L347.391 48.6049L348.197 45.2687ZM343.458 45.6019L345.073 48.6301L345.091 48.6207L345.108 48.6111L343.458 45.6019ZM341.607 47.1937L338.849 45.1509L338.825 45.1845L338.8 45.2186L341.607 47.1937ZM340.534 49.4149L337.249 48.4196L337.235 48.4655L337.223 48.5118L340.534 49.4149ZM340.608 54.4865L337.342 55.5429V55.5429L340.608 54.4865ZM341.792 56.7447L339.083 58.8517L339.103 58.8766L339.122 58.9011L341.792 56.7447ZM343.68 58.2625L342.145 61.3321L342.165 61.3421L342.185 61.3518L343.68 58.2625ZM348.271 58.5216L349.214 61.8215L349.267 61.8061L349.321 61.789L348.271 58.5216ZM350.159 57.4851L352.344 60.131V60.131L350.159 57.4851ZM351.454 55.5971L353.215 52.6509L349.685 50.5419L348.241 54.392L351.454 55.5971ZM357.34 59.1139L360.523 60.3991L361.623 57.6747L359.101 56.1678L357.34 59.1139ZM354.749 62.4086L356.817 65.1475L354.749 62.4086ZM350.64 64.5187L351.645 67.8001L351.67 67.7927L351.694 67.785L350.64 64.5187ZM340.719 64.0745L339.203 67.1536L339.231 67.1675L339.26 67.1809L340.719 64.0745ZM336.536 60.9649L333.968 63.242L333.99 63.2676L334.014 63.2927L336.536 60.9649ZM333.833 56.5966L330.64 57.8545L330.643 57.8629L330.647 57.8712L333.833 56.5966ZM332.871 51.636H336.303C336.303 50.4653 336.517 49.3177 336.96 48.1735L333.759 46.9346L330.559 45.6956C329.817 47.6117 329.439 49.5984 329.439 51.636H332.871ZM333.759 46.9346L336.949 48.2004C337.407 47.046 338.067 45.9967 338.948 45.0401L336.424 42.7144L333.901 40.3886C332.462 41.9494 331.345 43.7135 330.569 45.6687L333.759 46.9346ZM336.424 42.7144L338.948 45.0401C339.775 44.1433 340.793 43.4097 342.047 42.8481L340.645 39.7158L339.242 36.5835C337.189 37.5026 335.394 38.7681 333.901 40.3886L336.424 42.7144ZM340.645 39.7158L342.068 42.8386C343.242 42.3035 344.635 42.0002 346.309 42.0002V38.5682V35.1362C343.787 35.1362 341.404 35.5979 339.221 36.593L340.645 39.7158ZM346.309 38.5682V42.0002C348.334 42.0002 349.929 42.4232 351.208 43.147L352.898 40.16L354.588 37.173C352.116 35.7744 349.318 35.1362 346.309 35.1362V38.5682ZM352.898 40.16L351.238 43.1638C352.588 43.9098 353.476 44.8296 354.047 45.91L357.081 44.3062L360.115 42.7024C358.86 40.3277 356.959 38.4833 354.558 37.1562L352.898 40.16ZM357.081 44.3062L355.092 41.5097L349.576 45.4337L351.565 48.2302L353.555 51.0268L359.071 47.1027L357.081 44.3062ZM351.565 48.2302L354.783 47.0353C354.278 45.678 353.462 44.4308 352.235 43.4988L350.159 46.2312L348.082 48.9636C348.09 48.9694 348.211 49.0549 348.348 49.4252L351.565 48.2302ZM350.159 46.2312L352.289 43.5404C351.317 42.7712 350.214 42.225 349.002 41.9325L348.197 45.2687L347.391 48.6049C347.611 48.6579 347.815 48.7534 348.028 48.922L350.159 46.2312ZM348.197 45.2687L349.139 41.9688C348.166 41.6906 347.17 41.5406 346.161 41.5406V44.9725V48.4045C346.484 48.4045 346.845 48.4519 347.254 48.5686L348.197 45.2687ZM346.161 44.9725V41.5406C344.656 41.5406 343.166 41.8479 341.808 42.5927L343.458 45.6019L345.108 48.6111C345.28 48.5167 345.592 48.4045 346.161 48.4045V44.9725ZM343.458 45.6019L341.843 42.5736C340.659 43.2052 339.65 44.0704 338.849 45.1509L341.607 47.1937L344.365 49.2365C344.552 48.9843 344.777 48.7883 345.073 48.6301L343.458 45.6019ZM341.607 47.1937L338.8 45.2186C338.112 46.1971 337.597 47.2708 337.249 48.4196L340.534 49.4149L343.818 50.4102C343.964 49.93 344.165 49.523 344.414 49.1688L341.607 47.1937ZM340.534 49.4149L337.223 48.5118C336.923 49.6098 336.768 50.7277 336.768 51.8581H340.2H343.632C343.632 51.3597 343.7 50.8488 343.845 50.3179L340.534 49.4149ZM340.2 51.8581H336.768C336.768 53.1171 336.957 54.3506 337.342 55.5429L340.608 54.4865L343.873 53.4301C343.716 52.9442 343.632 52.4254 343.632 51.8581H340.2ZM340.608 54.4865L337.342 55.5429C337.731 56.7447 338.309 57.8562 339.083 58.8517L341.792 56.7447L344.501 54.6377C344.239 54.3004 344.027 53.9065 343.873 53.4301L340.608 54.4865ZM341.792 56.7447L339.122 58.9011C339.95 59.9263 340.967 60.7431 342.145 61.3321L343.68 58.2625L345.215 55.1928C344.912 55.0415 344.671 54.8464 344.462 54.5882L341.792 56.7447ZM343.68 58.2625L342.185 61.3518C343.463 61.97 344.833 62.2497 346.235 62.2497V58.8178V55.3858C345.76 55.3858 345.428 55.2954 345.175 55.1732L343.68 58.2625ZM346.235 58.8178V62.2497C347.244 62.2497 348.24 62.0997 349.214 61.8215L348.271 58.5216L347.328 55.2217C346.919 55.3384 346.558 55.3858 346.235 55.3858V58.8178ZM348.271 58.5216L349.321 61.789C350.432 61.4317 351.446 60.8731 352.344 60.131L350.159 57.4851L347.973 54.8391C347.736 55.0348 347.491 55.1673 347.22 55.2543L348.271 58.5216ZM350.159 57.4851L352.344 60.131C353.439 59.2271 354.192 58.0708 354.668 56.8021L351.454 55.5971L348.241 54.392C348.124 54.7029 348.014 54.8052 347.973 54.8391L350.159 57.4851ZM351.454 55.5971L349.694 58.5433L355.58 62.0601L357.34 59.1139L359.101 56.1678L353.215 52.6509L351.454 55.5971ZM357.34 59.1139L354.158 57.8288C353.894 58.4816 353.443 59.0947 352.681 59.6698L354.749 62.4086L356.817 65.1475C358.474 63.8964 359.75 62.3129 360.523 60.3991L357.34 59.1139ZM354.749 62.4086L352.681 59.6698C351.796 60.3379 350.774 60.8695 349.586 61.2525L350.64 64.5187L351.694 67.785C353.567 67.1808 355.283 66.3057 356.817 65.1475L354.749 62.4086ZM350.64 64.5187L349.634 61.2374C348.409 61.6127 347.23 61.7901 346.087 61.7901V65.2221V68.6541C347.954 68.6541 349.81 68.3626 351.645 67.8001L350.64 64.5187ZM346.087 65.2221V61.7901C344.598 61.7901 343.313 61.5013 342.178 60.9681L340.719 64.0745L339.26 67.1809C341.382 68.1778 343.675 68.6541 346.087 68.6541V65.2221ZM340.719 64.0745L342.235 60.9954C341 60.3876 339.949 59.6028 339.057 58.637L336.536 60.9649L334.014 63.2927C335.491 64.8936 337.229 66.1819 339.203 67.1536L340.719 64.0745ZM336.536 60.9649L339.103 58.6878C338.203 57.6722 337.513 56.5544 337.02 55.322L333.833 56.5966L330.647 57.8712C331.437 59.8471 332.549 61.6415 333.968 63.242L336.536 60.9649ZM333.833 56.5966L337.026 55.3387C336.535 54.0929 336.303 52.8652 336.303 51.636H332.871H329.439C329.439 53.7633 329.847 55.8426 330.64 57.8545L333.833 56.5966ZM380.863 58.7067H384.295V55.2747H380.863V58.7067ZM380.863 65V68.432H384.295V65H380.863ZM362.131 65H358.699V68.432H362.131V65ZM362.131 38.7163V35.2843H358.699V38.7163H362.131ZM380.53 38.7163H383.962V35.2843H380.53V38.7163ZM380.53 45.0096V48.4415H383.962V45.0096H380.53ZM369.35 45.0096V41.5776H365.918V45.0096H369.35ZM369.35 48.7115H365.918V52.1435H369.35V48.7115ZM378.901 48.7115H382.333V45.2795H378.901V48.7115ZM378.901 54.5605V57.9925H382.333V54.5605H378.901ZM369.35 54.5605V51.1286H365.918V54.5605H369.35ZM369.35 58.7067H365.918V62.1387H369.35V58.7067ZM380.863 58.7067H377.431V65H380.863H384.295V58.7067H380.863ZM380.863 65V61.568H362.131V65V68.432H380.863V65ZM362.131 65H365.563V38.7163H362.131H358.699V65H362.131ZM362.131 38.7163V42.1482H380.53V38.7163V35.2843H362.131V38.7163ZM380.53 38.7163H377.098V45.0096H380.53H383.962V38.7163H380.53ZM380.53 45.0096V41.5776H369.35V45.0096V48.4415H380.53V45.0096ZM369.35 45.0096H365.918V48.7115H369.35H372.782V45.0096H369.35ZM369.35 48.7115V52.1435H378.901V48.7115V45.2795H369.35V48.7115ZM378.901 48.7115H375.469V54.5605H378.901H382.333V48.7115H378.901ZM378.901 54.5605V51.1286H369.35V54.5605V57.9925H378.901V54.5605ZM369.35 54.5605H365.918V58.7067H369.35H372.782V54.5605H369.35ZM369.35 58.7067V62.1387H380.863V58.7067V55.2747H369.35V58.7067Z" fill="white" mask="url(#path-1-outside-1_1132_2)"/>
<defs>
<linearGradient id="paint0_linear_1132_2" x1="-36.5608" y1="-5.96073" x2="-7.09726" y2="150.775" gradientUnits="userSpaceOnUse">
<stop stop-color="#EC6106"/>
<stop offset="1" stop-color="#EB660B"/>
</linearGradient>
</defs>
</svg>
