<svg width="81" height="82" viewBox="0 0 81 82" fill="none" xmlns="http://www.w3.org/2000/svg">
<g clip-path="url(#clip0_1155_21)">
<circle cx="40.4399" cy="41.2427" r="24.2871" stroke="#964A20" stroke-width="0.532093"/>
<circle cx="40.4375" cy="41.2451" r="22.8873" stroke="#964A20" stroke-width="0.532093"/>
<circle cx="40.4396" cy="41.2462" r="36.3922" stroke="#964A20" stroke-width="1.64143"/>
<circle cx="40.4367" cy="41.2453" r="39.3792" stroke="#964A20" stroke-width="1.20088" stroke-linejoin="round" stroke-dasharray="1.2 2.4"/>
<path d="M11.152 54.0189L11.6634 53.7772L12.1441 54.7944L15.454 53.23L15.7503 53.8568L12.4404 55.4212L12.9237 56.4438L12.4124 56.6855L11.152 54.0189Z" fill="#964A20"/>
<path d="M10.5399 50.8332L11.732 50.4898L11.3281 49.0873L11.8715 48.9308L12.2755 50.3333L13.5202 49.9748L13.0658 48.397L13.6092 48.2404L14.2556 50.4844L10.1883 51.6559L9.54196 49.4119L10.0854 49.2554L10.5399 50.8332Z" fill="#964A20"/>
<path d="M11.9547 43.7345L12.1369 45.4948L13.0271 45.7084L13.1016 46.4282L8.73561 45.3576L8.653 44.5591L12.7073 42.6173L12.7824 43.3432L11.9547 43.7345ZM11.4122 43.9863L9.52907 44.872L11.5543 45.3594L11.4122 43.9863Z" fill="#964A20"/>
<path d="M10.4627 40.7292C10.0513 40.6868 9.69206 40.554 9.38492 40.3308C9.07819 40.1036 8.85091 39.8173 8.70307 39.472C8.55162 39.1222 8.49604 38.7517 8.53633 38.3605C8.58244 37.9128 8.73426 37.527 8.99179 37.203C9.2457 36.8746 9.5824 36.6525 10.0019 36.5367L9.91653 37.3655C9.68351 37.4515 9.50258 37.5858 9.37376 37.7681C9.24493 37.9505 9.16743 38.1687 9.14127 38.4228C9.11261 38.701 9.14957 38.9555 9.25216 39.1862C9.35475 39.4168 9.51656 39.6067 9.73759 39.7558C9.95904 39.9009 10.225 39.9894 10.5356 40.0214C10.8461 40.0534 11.1245 40.0209 11.3709 39.924C11.6177 39.8231 11.8168 39.6704 11.9683 39.4659C12.1158 39.261 12.2038 39.0194 12.2325 38.7412C12.2587 38.4871 12.2273 38.2576 12.1383 38.0529C12.0494 37.8481 11.8996 37.6798 11.689 37.5481L11.7744 36.7193C12.1614 36.9181 12.4458 37.2042 12.6274 37.5775C12.8095 37.9467 12.8775 38.3552 12.8314 38.8028C12.7907 39.1981 12.6627 39.5497 12.4476 39.8576C12.2285 40.1652 11.9456 40.3989 11.599 40.5589C11.2528 40.7148 10.874 40.7715 10.4627 40.7292Z" fill="#964A20"/>
<path d="M10.3628 30.1908L14.3892 31.4761L14.1784 32.1365L12.4172 31.5743L11.8125 33.4688L13.5737 34.0309L13.3629 34.6914L9.33646 33.4061L9.54728 32.7457L11.2737 33.2968L11.8784 31.4023L10.152 30.8513L10.3628 30.1908Z" fill="#964A20"/>
<path d="M12.2704 27.1248L13.367 27.7049L14.0495 26.4148L14.5494 26.6792L13.8669 27.9694L15.0119 28.5751L15.7797 27.1237L16.2796 27.3881L15.1877 29.4523L11.4463 27.4732L12.5382 25.409L13.0381 25.6734L12.2704 27.1248Z" fill="#964A20"/>
<path d="M18.6761 23.8041L16.7429 23.544L16.4202 23.9632L17.7599 24.9944L17.3371 25.5438L13.9878 22.9658L14.878 21.8092C15.0759 21.5522 15.2878 21.37 15.5137 21.2625C15.7422 21.1518 15.9653 21.1112 16.1831 21.1407C16.4033 21.167 16.6066 21.2518 16.7929 21.3953C17.0114 21.5634 17.1611 21.781 17.2421 22.048C17.3224 22.3093 17.2932 22.5964 17.1547 22.9093L19.1806 23.1487L18.6761 23.8041ZM15.9817 23.6257L16.4491 23.0185C16.6073 22.8129 16.6746 22.6191 16.651 22.4371C16.6298 22.252 16.5324 22.0926 16.3589 21.9591C16.1854 21.8256 16.0109 21.7731 15.8354 21.8017C15.6567 21.8279 15.487 21.9454 15.3262 22.1542L14.8588 22.7614L15.9817 23.6257Z" fill="#964A20"/>
<path d="M21.5559 20.7078C21.3456 20.8984 21.1237 21.0338 20.8901 21.1142C20.6539 21.1916 20.4264 21.2062 20.2077 21.1582C19.9891 21.1101 19.7981 20.9959 19.6347 20.8157L20.1845 20.3175C20.319 20.4418 20.4723 20.5053 20.6444 20.508C20.8195 20.508 20.9926 20.4304 21.1639 20.2752C21.3411 20.1146 21.4412 19.9473 21.4641 19.7733C21.4843 19.5963 21.4331 19.4403 21.3106 19.3051C21.2153 19.1999 21.1062 19.1429 20.9832 19.134C20.8632 19.1224 20.7403 19.1407 20.6145 19.1891C20.4917 19.2347 20.3302 19.31 20.1298 19.415C19.8765 19.546 19.6608 19.643 19.4826 19.706C19.3047 19.7633 19.1176 19.7742 18.9213 19.7387C18.725 19.7032 18.5384 19.5879 18.3614 19.3926C18.1981 19.2124 18.1002 19.0138 18.0678 18.7969C18.0354 18.5801 18.0677 18.3621 18.1645 18.143C18.2614 17.9239 18.4165 17.7177 18.6298 17.5244C18.9332 17.2494 19.2505 17.1014 19.5816 17.0803C19.913 17.0536 20.209 17.1628 20.4696 17.4081L19.9018 17.9227C19.7893 17.8167 19.6468 17.7681 19.4741 17.7768C19.3015 17.7856 19.1341 17.8634 18.9718 18.0105C18.8246 18.1439 18.7385 18.2903 18.7134 18.4498C18.6884 18.6093 18.7398 18.7597 18.8678 18.9009C18.9549 18.997 19.0556 19.0507 19.1699 19.0621C19.2844 19.0677 19.4031 19.0477 19.5258 19.0021C19.6486 18.9565 19.8072 18.8839 20.0015 18.7844C20.2605 18.6536 20.4805 18.5582 20.6614 18.4982C20.8453 18.4355 21.0368 18.4234 21.2358 18.4619C21.4351 18.4946 21.6246 18.6101 21.8043 18.8084C21.9486 18.9676 22.0412 19.1573 22.082 19.3775C22.1258 19.5949 22.1046 19.822 22.0184 20.0589C21.9324 20.29 21.7782 20.5063 21.5559 20.7078Z" fill="#964A20"/>
<path d="M27.1864 11.8094L27.4399 12.3149L26.4343 12.8194L28.0758 16.0917L27.4562 16.4025L25.8147 13.1302L24.8036 13.6374L24.55 13.1319L27.1864 11.8094Z" fill="#964A20"/>
<path d="M32.9022 14.1718L31.4818 12.8348L30.9754 12.9879L31.4643 14.6062L30.8007 14.8067L29.5783 10.7608L30.9754 10.3387C31.2859 10.2449 31.5643 10.2201 31.8106 10.2643C32.0607 10.3073 32.2658 10.4041 32.4257 10.5549C32.5894 10.7045 32.7053 10.8918 32.7733 11.1169C32.8531 11.3808 32.8482 11.6449 32.7586 11.9091C32.6717 12.1683 32.4809 12.3848 32.1861 12.5585L33.6939 13.9326L32.9022 14.1718ZM30.8153 12.4581L31.5488 12.2365C31.7972 12.1615 31.9647 12.0431 32.0514 11.8814C32.1419 11.7185 32.1555 11.5322 32.0922 11.3227C32.0289 11.1131 31.9176 10.9689 31.7582 10.89C31.5977 10.8072 31.3913 10.8039 31.139 10.8801L30.4055 11.1017L30.8153 12.4581Z" fill="#964A20"/>
<path d="M38.1035 12.3041L36.3436 12.4898L36.1318 13.3805L35.4122 13.4565L36.4737 9.0883L37.272 9.00403L39.2222 13.0543L38.4965 13.1309L38.1035 12.3041ZM37.8506 11.762L36.961 9.88076L36.4777 11.907L37.8506 11.762Z" fill="#964A20"/>
<path d="M41.9162 8.84574L41.7412 13.0687L41.0486 13.04L41.2235 8.81704L41.9162 8.84574Z" fill="#964A20"/>
<path d="M47.2695 13.7855L46.5888 13.6544L45.1374 10.1606L44.5405 13.2599L43.8597 13.1288L44.6602 8.97257L45.3409 9.10367L46.7935 12.5914L47.3892 9.49814L48.07 9.62925L47.2695 13.7855Z" fill="#964A20"/>
<path d="M51.3564 10.6133L49.9523 14.5998L49.2984 14.3695L50.7025 10.383L51.3564 10.6133Z" fill="#964A20"/>
<path d="M55.0271 16.9042L54.4146 16.5795L54.0502 12.8138L52.5717 15.6024L51.9592 15.2776L53.9419 11.5381L54.5544 11.8628L54.9217 15.6231L56.3973 12.84L57.0098 13.1647L55.0271 16.9042Z" fill="#964A20"/>
<path d="M61.1873 17.6715C61.2388 17.4396 61.2239 17.2208 61.1424 17.015C61.0636 16.8061 60.9263 16.6196 60.7306 16.4555C60.5162 16.2758 60.2847 16.1638 60.0362 16.1195C59.7877 16.0752 59.541 16.1012 59.2963 16.1976C59.0546 16.2966 58.8361 16.4626 58.6408 16.6956C58.4455 16.9287 58.3189 17.1744 58.2611 17.4327C58.209 17.6906 58.2264 17.938 58.3135 18.1749C58.4005 18.4119 58.5513 18.6202 58.7657 18.7999C59.0546 19.0421 59.3569 19.1579 59.6726 19.1474C59.9882 19.1369 60.2821 19.0103 60.5543 18.7676L59.3378 17.748L59.6933 17.3239L61.4784 18.82L61.1307 19.2348C60.8856 19.4579 60.6015 19.6138 60.2783 19.7027C59.9583 19.7942 59.6284 19.806 59.2886 19.7381C58.9545 19.6696 58.6461 19.5169 58.3633 19.2799C58.0588 19.0247 57.8393 18.7217 57.7048 18.371C57.5729 18.0171 57.5379 17.6518 57.5997 17.2751C57.6646 16.901 57.8299 16.5555 58.0955 16.2386C58.3611 15.9217 58.6724 15.6986 59.0294 15.5693C59.3895 15.4426 59.754 15.4148 60.1229 15.4859C60.4974 15.5566 60.8354 15.7182 61.1368 15.9708C61.4817 16.2599 61.7162 16.6018 61.8402 16.9967C61.9699 17.391 61.9651 17.7944 61.8258 18.2067L61.1873 17.6715Z" fill="#964A20"/>
<path d="M67.3983 25.1441C67.2179 25.2609 67.0202 25.3285 66.8052 25.347C66.5901 25.3655 66.371 25.3142 66.1477 25.1931C65.9278 25.0698 65.7231 24.8618 65.5336 24.5692L65.1172 23.926L63.6776 24.858L63.3008 24.2761L66.8486 21.979L67.6419 23.2041C67.8182 23.4764 67.9192 23.7369 67.9451 23.9858C67.9767 24.2359 67.9422 24.4586 67.8417 24.6541C67.7435 24.8529 67.5956 25.0163 67.3983 25.1441ZM66.0084 24.2618C66.1516 24.483 66.3078 24.6161 66.477 24.6611C66.6496 24.7039 66.8278 24.6658 67.0116 24.5468C67.3995 24.2956 67.4514 23.9505 67.1671 23.5115L66.7507 22.8683L65.5919 23.6186L66.0084 24.2618Z" fill="#964A20"/>
<path d="M66.7467 30.4725L67.927 28.9194L67.7216 28.4319L66.1636 29.0882L65.8944 28.4493L69.7895 26.8085L70.3561 28.1535C70.482 28.4524 70.5359 28.7267 70.5179 28.9762C70.5014 29.2295 70.4266 29.4436 70.2935 29.6184C70.162 29.797 69.9878 29.932 69.7711 30.0233C69.5171 30.1303 69.2539 30.1531 68.9818 30.0918C68.7149 30.0327 68.4795 29.8657 68.2758 29.5908L67.0678 31.2347L66.7467 30.4725ZM68.2316 28.217L68.529 28.9232C68.6298 29.1623 68.7651 29.3164 68.935 29.3856C69.1065 29.4586 69.2932 29.4525 69.4949 29.3675C69.6967 29.2826 69.8284 29.1567 69.8901 28.9899C69.9556 28.8215 69.9372 28.6159 69.8349 28.3731L69.5374 27.6669L68.2316 28.217Z" fill="#964A20"/>
<path d="M68.144 35.0376C68.0666 34.652 68.0845 34.2783 68.1979 33.9164C68.316 33.5577 68.5169 33.2506 68.8005 32.9952C69.0889 32.7429 69.4358 32.576 69.8413 32.4945C70.2467 32.413 70.6292 32.4334 70.9887 32.5555C71.349 32.6816 71.6509 32.8876 71.8944 33.1737C72.1428 33.4628 72.3057 33.8002 72.3832 34.1858C72.4614 34.5753 72.4415 34.9494 72.3233 35.3081C72.21 35.67 72.0111 35.9767 71.7266 36.2282C71.4422 36.4797 71.0973 36.6462 70.6919 36.7276C70.2864 36.8091 69.902 36.7892 69.5385 36.6679C69.179 36.5457 68.8751 36.3401 68.6268 36.0509C68.3832 35.7649 68.2223 35.4271 68.144 35.0376ZM68.7343 34.919C68.7894 35.1932 68.9001 35.4253 69.0665 35.6152C69.2368 35.8043 69.4492 35.9353 69.7037 36.0082C69.963 36.0843 70.2456 36.0916 70.5517 36.0301C70.8578 35.9686 71.1137 35.8531 71.3195 35.6835C71.526 35.5179 71.6694 35.3155 71.7495 35.0761C71.8296 34.8367 71.842 34.5798 71.7869 34.3056C71.7318 34.0313 71.6211 33.7992 71.4547 33.6094C71.2884 33.4195 71.0776 33.2861 70.8223 33.2092C70.5678 33.1363 70.2875 33.1306 69.9814 33.1921C69.6754 33.2536 69.4171 33.3675 69.2065 33.5339C69.0008 33.7034 68.8558 33.9083 68.7718 34.1485C68.6917 34.3879 68.6792 34.6447 68.7343 34.919Z" fill="#964A20"/>
<path d="M71.8365 42.3372C72.0496 42.2322 72.2109 42.0836 72.3204 41.8913C72.434 41.699 72.4935 41.4752 72.4989 41.2199C72.5048 40.9402 72.4473 40.6896 72.3263 40.468C72.2053 40.2465 72.0306 40.0704 71.8022 39.9399C71.5738 39.8134 71.3075 39.7469 71.0035 39.7404C70.6995 39.734 70.4287 39.7891 70.191 39.9057C69.9573 40.0264 69.7753 40.1949 69.645 40.4111C69.5147 40.6273 69.4466 40.8753 69.4407 41.1549C69.4327 41.5319 69.5315 41.8402 69.7373 42.0797C69.9431 42.3193 70.2258 42.4693 70.5854 42.5296L70.6191 40.9427L71.1724 40.9545L71.123 43.2831L70.5818 43.2716C70.2545 43.2201 69.955 43.0961 69.6834 42.8997C69.4117 42.7074 69.1961 42.4575 69.0363 42.15C68.8806 41.8466 68.8066 41.5105 68.8144 41.1416C68.8229 40.7444 68.9218 40.3836 69.1111 40.0591C69.3046 39.7348 69.5675 39.4788 69.8999 39.2912C70.2323 39.1077 70.6052 39.0203 71.0187 39.0291C71.4321 39.0379 71.8009 39.141 72.1252 39.3385C72.4494 39.54 72.6992 39.8069 72.8746 40.139C73.054 40.4754 73.1396 40.8401 73.1312 41.2333C73.1217 41.6832 73.0017 42.0801 72.7714 42.424C72.545 42.772 72.2275 43.0207 71.8188 43.1702L71.8365 42.3372Z" fill="#964A20"/>
<path d="M68.1233 47.4425L69.985 46.8603L70.1 46.3439L68.4498 45.9764L68.6005 45.2997L72.726 46.2184L72.4087 47.6431C72.3382 47.9596 72.2233 48.2144 72.064 48.4074C71.9039 48.6043 71.7189 48.7355 71.5091 48.8009C71.2984 48.8703 71.0783 48.8795 70.8488 48.8283C70.5797 48.7684 70.352 48.6346 70.1656 48.427C69.9824 48.2242 69.8873 47.9517 69.8804 47.6096L67.9435 48.2498L68.1233 47.4425ZM70.6401 46.4642L70.4736 47.2121C70.4172 47.4654 70.4382 47.6694 70.5366 47.8243C70.6342 47.983 70.7898 48.0862 71.0035 48.1338C71.2172 48.1814 71.3975 48.1551 71.5444 48.0549C71.6953 47.9556 71.7994 47.7773 71.8567 47.5201L72.0232 46.7722L70.6401 46.4642Z" fill="#964A20"/>
<path d="M67.2059 52.8969L67.9032 51.2704L67.2293 50.6507L67.5144 49.9855L70.808 53.045L70.4917 53.7828L66.0048 53.5068L66.2924 52.8361L67.2059 52.8969ZM67.8024 52.9409L69.8785 53.0833L68.3463 51.6721L67.8024 52.9409Z" fill="#964A20"/>
<path d="M66.0419 61.3197L62.6037 58.8616L63.0069 58.2976L65.3617 59.9812L63.7568 57.2489L64.0362 56.858L67.1443 57.4879L64.7895 55.8043L65.1927 55.2404L68.6309 57.6985L68.1959 58.307L64.6368 57.5865L66.4734 60.7162L66.0419 61.3197Z" fill="#964A20"/>
<mask id="path-28-inside-1_1155_21" fill="white">
<path d="M44.2842 28.3652C46.5692 28.3652 48.4219 30.2179 48.4219 32.5029C48.4218 33.5607 48.0234 34.5244 47.3702 35.2558C48.576 36.2955 49.3398 37.8337 49.3399 39.5508L49.3331 39.8418C49.2521 41.4409 48.5073 42.8641 47.3702 43.8447C48.024 44.5762 48.4218 45.5413 48.4219 46.5996C48.4219 48.8846 46.5692 50.7373 44.2842 50.7373H39.9942C33.8165 50.7373 28.8079 45.7294 28.8077 39.5517C28.8077 33.3739 33.8163 28.3652 39.9942 28.3652H44.2842ZM39.9942 31.123C35.3396 31.123 31.5655 34.8972 31.5655 39.5517C31.5657 44.2061 35.3398 47.9795 39.9942 47.9795H44.2842C45.0459 47.9795 45.6631 47.3613 45.6631 46.5996C45.6629 45.8381 45.0457 45.2207 44.2842 45.2207H39.9942C39.8986 45.2207 39.8035 45.2176 39.709 45.2129H39.7012C39.6056 45.208 39.5104 45.2009 39.4161 45.1914C39.3994 45.1897 39.3829 45.1864 39.3663 45.1846C39.2946 45.1767 39.2233 45.1677 39.1524 45.1572C39.101 45.1496 39.0501 45.1399 38.9991 45.1308C38.961 45.1241 38.9227 45.1188 38.8848 45.1113C38.8373 45.1019 38.7903 45.0907 38.7432 45.0801C38.6978 45.0698 38.6525 45.0601 38.6075 45.0488C38.576 45.0409 38.545 45.0318 38.5137 45.0234C38.4535 45.0072 38.3935 44.9908 38.334 44.9726C38.3039 44.9634 38.2741 44.9531 38.2442 44.9433C38.1925 44.9266 38.1409 44.9098 38.0899 44.8916C38.0566 44.8797 38.0233 44.8679 37.9903 44.8555C37.9339 44.8341 37.8779 44.8121 37.8223 44.789C37.7952 44.7778 37.7682 44.7665 37.7413 44.7549C37.6881 44.7318 37.6354 44.7082 37.5831 44.6836C37.5553 44.6705 37.5276 44.6571 37.5001 44.6435C37.4349 44.6116 37.3705 44.5783 37.3067 44.5439C37.2981 44.5393 37.2899 44.534 37.2813 44.5293C37.2213 44.4965 37.1622 44.4625 37.1036 44.4277C37.0756 44.4111 37.0473 44.395 37.0196 44.3779C36.9718 44.3484 36.9248 44.3179 36.878 44.2871C36.8525 44.2703 36.827 44.2535 36.8018 44.2363C36.7481 44.1997 36.695 44.1624 36.6426 44.124C36.6248 44.1109 36.6066 44.0983 36.5889 44.0849C36.091 43.7105 35.6571 43.2558 35.3057 42.7402C35.2908 42.7183 35.2764 42.696 35.2618 42.6738C35.2258 42.6194 35.1905 42.5645 35.1563 42.5088C35.1439 42.4885 35.1324 42.4677 35.1202 42.4473C35.0869 42.3914 35.0539 42.3354 35.0225 42.2783C35.0115 42.2583 35.0011 42.2379 34.9903 42.2178C34.9576 42.1566 34.9261 42.0947 34.8956 42.0322C34.8865 42.0136 34.8771 41.9952 34.8682 41.9765C34.8401 41.9172 34.8133 41.8573 34.7872 41.7969C34.7754 41.7696 34.7634 41.7423 34.752 41.7148C34.7307 41.6632 34.7103 41.611 34.6905 41.5586C34.6771 41.5233 34.6641 41.4878 34.6514 41.4521C34.6322 41.3982 34.6143 41.3437 34.5967 41.289C34.5891 41.2653 34.5807 41.2417 34.5733 41.2178C34.5526 41.1503 34.5339 41.0821 34.5157 41.0137C34.509 40.9887 34.5025 40.9636 34.4962 40.9385C34.4826 40.8844 34.4701 40.83 34.4581 40.7754C34.4503 40.7399 34.4418 40.7046 34.4346 40.6689C34.4212 40.6017 34.4096 40.5339 34.3985 40.4658C34.3953 40.4462 34.3907 40.4269 34.3878 40.4072C34.3596 40.2216 34.3408 40.0328 34.3311 39.8418L34.3233 39.5508C34.3233 38.2845 34.7389 37.1155 35.4405 36.1719C35.4485 36.161 35.4568 36.1504 35.4649 36.1396C35.566 36.0056 35.6729 35.8763 35.7852 35.7519C35.7939 35.7424 35.8029 35.7331 35.8116 35.7236C35.9206 35.6046 36.0346 35.4902 36.1534 35.3808C36.1708 35.3648 36.1885 35.3489 36.2061 35.333C36.3241 35.227 36.4458 35.1252 36.5723 35.0293C36.5875 35.0178 36.6029 35.0065 36.6182 34.9951C36.9686 34.7352 37.3501 34.5153 37.7559 34.3408C37.7702 34.3346 37.7845 34.3283 37.7989 34.3223C37.8624 34.2956 37.9266 34.2705 37.9913 34.2461C38.0141 34.2375 38.0367 34.228 38.0596 34.2197C38.1247 34.1961 38.1907 34.1746 38.2569 34.1533C38.2774 34.1467 38.2978 34.1401 38.3184 34.1338C38.3872 34.1125 38.4566 34.0929 38.5264 34.0742C38.546 34.069 38.5653 34.0626 38.585 34.0576C38.9445 33.9657 39.3179 33.9081 39.7012 33.8887L39.9932 33.8808H43.671L43.7071 33.8818H44.2842C45.0458 33.8818 45.6629 33.2644 45.6631 32.5029C45.6631 31.7413 45.0459 31.123 44.2842 31.123H39.9942ZM39.9942 36.6396C38.3863 36.6396 37.0821 37.9438 37.0821 39.5517C37.0822 40.5306 37.5676 41.3941 38.3087 41.9219C38.613 42.1384 38.9595 42.2979 39.335 42.3848C39.3735 42.3937 39.4122 42.4018 39.4512 42.4092C39.5795 42.4333 39.7102 42.4512 39.8438 42.458L39.9932 42.4619H43.671C45.2786 42.4616 46.5819 41.1584 46.5821 39.5508C46.582 37.9555 45.2986 36.6598 43.7081 36.6396H39.9942ZM39.9913 38.4765C40.5835 38.4765 41.0643 38.9566 41.0645 39.5488C41.0645 40.1412 40.5837 40.6221 39.9913 40.6221C39.3989 40.622 38.919 40.1412 38.919 39.5488C38.9192 38.9567 39.3991 38.4766 39.9913 38.4765ZM43.6719 38.4765C44.2642 38.4765 44.745 38.9566 44.7452 39.5488C44.7452 40.1412 44.2643 40.6221 43.6719 40.6221C43.0797 40.6219 42.5997 40.1411 42.5997 39.5488C42.5999 38.9567 43.0798 38.4767 43.6719 38.4765Z"/>
</mask>
<path d="M48.4219 32.5029L49.2427 32.503V32.5029H48.4219ZM47.3702 35.2558L46.7581 34.7091L46.2017 35.3321L46.8343 35.8774L47.3702 35.2558ZM49.3399 39.5508L50.1604 39.57L50.1606 39.5604V39.5507L49.3399 39.5508ZM49.3331 39.8418L50.1527 39.8833L50.1533 39.8722L50.1536 39.8611L49.3331 39.8418ZM47.3702 43.8447L46.8342 43.2232L46.2016 43.7687L46.7582 44.3916L47.3702 43.8447ZM48.4219 46.5996H49.2427V46.5995L48.4219 46.5996ZM28.8077 39.5517H27.987V39.5518L28.8077 39.5517ZM31.5655 39.5517H30.7448L30.7448 39.5518L31.5655 39.5517ZM45.6631 46.5996H46.4839V46.5993L45.6631 46.5996ZM39.709 45.2129L39.7497 44.3932L39.7294 44.3922H39.709V45.2129ZM39.7012 45.2129L39.6597 46.0325L39.6804 46.0336H39.7012V45.2129ZM39.4161 45.1914L39.3334 46.0079L39.3336 46.0079L39.4161 45.1914ZM39.3663 45.1846L39.4562 44.3688L39.456 44.3688L39.3663 45.1846ZM39.1524 45.1572L39.0316 45.969L39.0317 45.969L39.1524 45.1572ZM38.9991 45.1308L39.1422 44.3227L39.1421 44.3227L38.9991 45.1308ZM38.8848 45.1113L38.7251 45.9163L38.7253 45.9164L38.8848 45.1113ZM38.7432 45.0801L38.9236 44.2794L38.9234 44.2794L38.7432 45.0801ZM38.6075 45.0488L38.4074 45.8448L38.4075 45.8448L38.6075 45.0488ZM38.5137 45.0234L38.7276 44.231L38.7274 44.231L38.5137 45.0234ZM38.334 44.9726L38.094 45.7575L38.0942 45.7575L38.334 44.9726ZM38.2442 44.9433L38.4974 44.1626L38.4972 44.1626L38.2442 44.9433ZM38.0899 44.8916L37.8143 45.6646L37.8144 45.6647L38.0899 44.8916ZM37.9903 44.8555L38.2804 44.0877L38.2803 44.0877L37.9903 44.8555ZM37.8223 44.789L37.5077 45.5471L37.5078 45.5471L37.8223 44.789ZM37.7413 44.7549L38.0677 44.0019L38.0676 44.0018L37.7413 44.7549ZM37.5831 44.6836L37.2336 45.4262L37.2337 45.4262L37.5831 44.6836ZM37.5001 44.6435L37.8616 43.9067L37.8615 43.9067L37.5001 44.6435ZM37.3067 44.5439L36.9171 45.2663L36.9172 45.2663L37.3067 44.5439ZM37.2813 44.5293L37.6746 43.809L37.6746 43.8089L37.2813 44.5293ZM37.1036 44.4277L36.6845 45.1334L36.6845 45.1334L37.1036 44.4277ZM37.0196 44.3779L37.4508 43.6796L37.4507 43.6796L37.0196 44.3779ZM36.878 44.2871L36.4263 44.9723L36.4263 44.9724L36.878 44.2871ZM36.8018 44.2363L37.2645 43.5585L37.2645 43.5584L36.8018 44.2363ZM36.6426 44.124L36.157 44.7856L36.157 44.7856L36.6426 44.124ZM36.5889 44.0849L37.0823 43.4291L37.0822 43.429L36.5889 44.0849ZM35.3057 42.7402L34.6276 43.2025L34.6276 43.2025L35.3057 42.7402ZM35.2618 42.6738L35.9464 42.2211L35.9464 42.2211L35.2618 42.6738ZM35.1563 42.5088L34.4565 42.9376L34.4565 42.9376L35.1563 42.5088ZM35.1202 42.4473L35.8253 42.0273L35.8253 42.0273L35.1202 42.4473ZM35.0225 42.2783L34.3033 42.6737L34.3033 42.6737L35.0225 42.2783ZM34.9903 42.2178L35.7142 41.8311L35.7142 41.8311L34.9903 42.2178ZM34.8956 42.0322L34.1579 42.3919L34.1579 42.3919L34.8956 42.0322ZM34.8682 41.9765L35.6098 41.625L35.6098 41.625L34.8682 41.9765ZM34.7872 41.7969L34.0337 42.1223L34.0337 42.1223L34.7872 41.7969ZM34.752 41.7148L35.5105 41.4014L35.5105 41.4014L34.752 41.7148ZM34.6905 41.5586L33.923 41.8493L33.923 41.8493L34.6905 41.5586ZM34.6514 41.4521L35.4246 41.177L35.4246 41.1769L34.6514 41.4521ZM34.5967 41.289L33.8155 41.5404L33.8155 41.5405L34.5967 41.289ZM34.5733 41.2178L35.3579 40.9768L35.3578 40.9768L34.5733 41.2178ZM34.5157 41.0137L33.7226 41.2248L33.7226 41.2249L34.5157 41.0137ZM34.4962 40.9385L35.2921 40.7382L35.2921 40.7382L34.4962 40.9385ZM34.4581 40.7754L33.6565 40.9518L33.6566 40.9519L34.4581 40.7754ZM34.4346 40.6689L35.2394 40.508L35.2394 40.5079L34.4346 40.6689ZM34.3985 40.4658L33.5884 40.5972L33.5884 40.5973L34.3985 40.4658ZM34.3878 40.4072L35.1992 40.2843L35.1992 40.2843L34.3878 40.4072ZM34.3311 39.8418L33.5107 39.8638L33.511 39.8735L33.5114 39.8833L34.3311 39.8418ZM34.3233 39.5508L33.5026 39.5507V39.5618L33.5029 39.5728L34.3233 39.5508ZM35.4405 36.1719L36.0991 36.6616L36.0991 36.6615L35.4405 36.1719ZM35.4649 36.1396L34.8098 35.6453L34.8098 35.6453L35.4649 36.1396ZM35.7852 35.7519L36.3942 36.3021L36.3942 36.3021L35.7852 35.7519ZM35.8116 35.7236L35.2064 35.1693L35.2063 35.1693L35.8116 35.7236ZM36.1534 35.3808L36.7094 35.9845L36.7095 35.9844L36.1534 35.3808ZM36.2061 35.333L35.6577 34.7224L35.6576 34.7225L36.2061 35.333ZM36.5723 35.0293L37.0679 35.6835L37.068 35.6834L36.5723 35.0293ZM36.6182 34.9951L36.1292 34.336L36.1291 34.336L36.6182 34.9951ZM37.7559 34.3408L38.0801 35.0948L38.0802 35.0947L37.7559 34.3408ZM37.7989 34.3223L37.481 33.5656L37.4809 33.5657L37.7989 34.3223ZM37.9913 34.2461L38.2811 35.0139L38.2813 35.0138L37.9913 34.2461ZM38.0596 34.2197L37.7798 33.4482L37.7796 33.4482L38.0596 34.2197ZM38.2569 34.1533L38.508 34.9347L38.5082 34.9346L38.2569 34.1533ZM38.3184 34.1338L38.0763 33.3496L38.0761 33.3496L38.3184 34.1338ZM38.5264 34.0742L38.7382 34.8671L38.7384 34.8671L38.5264 34.0742ZM38.585 34.0576L38.3819 33.2624L38.3817 33.2625L38.585 34.0576ZM39.7012 33.8887L39.6793 33.0682L39.6695 33.0685L39.6597 33.069L39.7012 33.8887ZM39.9932 33.8808V33.0601H39.9822L39.9713 33.0604L39.9932 33.8808ZM43.671 33.8808L43.6931 33.0604L43.682 33.0601H43.671V33.8808ZM43.7071 33.8818L43.6849 34.7022L43.696 34.7025H43.7071V33.8818ZM45.6631 32.5029L46.4839 32.5031V32.5029H45.6631ZM37.0821 39.5517H36.2614V39.5519L37.0821 39.5517ZM38.3087 41.9219L37.8326 42.5904L37.8329 42.5906L38.3087 41.9219ZM39.335 42.3848L39.5203 41.5852L39.5199 41.5851L39.335 42.3848ZM39.4512 42.4092L39.2989 43.2156L39.2993 43.2157L39.4512 42.4092ZM39.8438 42.458L39.8024 43.2777L39.8124 43.2782L39.8224 43.2784L39.8438 42.458ZM39.9932 42.4619L39.9718 43.2823L39.9825 43.2826H39.9932V42.4619ZM43.671 42.4619V43.2826H43.6711L43.671 42.4619ZM46.5821 39.5508L47.4028 39.5508V39.5507L46.5821 39.5508ZM43.7081 36.6396L43.7185 35.8189H43.7081V36.6396ZM39.9913 38.4765V37.6558H39.9912L39.9913 38.4765ZM41.0645 39.5488H41.8852V39.5485L41.0645 39.5488ZM39.9913 40.6221L39.9912 41.4428H39.9913V40.6221ZM38.919 39.5488L38.0983 39.5485V39.5488H38.919ZM43.6719 38.4765V37.6558H43.6717L43.6719 38.4765ZM44.7452 39.5488H45.5659V39.5485L44.7452 39.5488ZM43.6719 40.6221L43.6717 41.4428H43.6719V40.6221ZM42.5997 39.5488L41.779 39.5485V39.5488H42.5997ZM44.2842 28.3652V29.1859C46.1159 29.1859 47.6012 30.6712 47.6012 32.5029H48.4219H49.2427C49.2427 29.7647 47.0225 27.5445 44.2842 27.5445V28.3652ZM48.4219 32.5029L47.6012 32.5028C47.6011 33.3503 47.2828 34.1216 46.7581 34.7091L47.3702 35.2558L47.9823 35.8025C48.764 34.9273 49.2425 33.771 49.2427 32.503L48.4219 32.5029ZM47.3702 35.2558L46.8343 35.8774C47.8672 36.768 48.5191 38.0827 48.5192 39.5508L49.3399 39.5508L50.1606 39.5507C50.1605 37.5847 49.2848 35.823 47.9061 34.6343L47.3702 35.2558ZM49.3399 39.5508L48.5194 39.5315L48.5126 39.8225L49.3331 39.8418L50.1536 39.8611L50.1604 39.57L49.3399 39.5508ZM49.3331 39.8418L48.5134 39.8003C48.4443 41.166 47.8087 42.3828 46.8342 43.2232L47.3702 43.8447L47.9062 44.4662C49.2058 43.3455 50.06 41.7158 50.1527 39.8833L49.3331 39.8418ZM47.3702 43.8447L46.7582 44.3916C47.283 44.9788 47.6011 45.7511 47.6012 46.5997L48.4219 46.5996L49.2427 46.5995C49.2425 45.3316 48.7649 44.1737 47.9821 43.2978L47.3702 43.8447ZM48.4219 46.5996H47.6012C47.6012 48.4313 46.1159 49.9166 44.2842 49.9166V50.7373V51.558C47.0225 51.558 49.2427 49.3378 49.2427 46.5996H48.4219ZM44.2842 50.7373V49.9166H39.9942V50.7373V51.558H44.2842V50.7373ZM39.9942 50.7373V49.9166C34.2697 49.9166 29.6286 45.2761 29.6284 39.5517L28.8077 39.5517L27.987 39.5518C27.9872 46.1828 33.3633 51.558 39.9942 51.558V50.7373ZM28.8077 39.5517H29.6284C29.6284 33.8271 34.2696 29.1859 39.9942 29.1859V28.3652V27.5445C33.363 27.5445 27.987 32.9206 27.987 39.5517H28.8077ZM39.9942 28.3652V29.1859H44.2842V28.3652V27.5445H39.9942V28.3652ZM39.9942 31.123V30.3023C34.8864 30.3023 30.7448 34.4439 30.7448 39.5517H31.5655H32.3862C32.3862 35.3504 35.7929 31.9437 39.9942 31.9437V31.123ZM31.5655 39.5517L30.7448 39.5518C30.7451 44.6595 34.8866 48.8002 39.9942 48.8002V47.9795V47.1588C35.793 47.1588 32.3864 43.7527 32.3862 39.5517L31.5655 39.5517ZM39.9942 47.9795V48.8002H44.2842V47.9795V47.1588H39.9942V47.9795ZM44.2842 47.9795V48.8002C45.4999 48.8002 46.4839 47.8138 46.4839 46.5996H45.6631H44.8424C44.8424 46.9087 44.5919 47.1588 44.2842 47.1588V47.9795ZM45.6631 46.5996L46.4839 46.5993C46.4835 45.3851 45.4993 44.4 44.2842 44.4V45.2207V46.0414C44.5922 46.0414 44.8423 46.2912 44.8424 46.5998L45.6631 46.5996ZM44.2842 45.2207V44.4H39.9942V45.2207V46.0414H44.2842V45.2207ZM39.9942 45.2207V44.4C39.9162 44.4 39.8354 44.3974 39.7497 44.3932L39.709 45.2129L39.6684 46.0326C39.7717 46.0377 39.881 46.0414 39.9942 46.0414V45.2207ZM39.709 45.2129V44.3922H39.7012V45.2129V46.0336H39.709V45.2129ZM39.7012 45.2129L39.7428 44.3932C39.6601 44.389 39.5786 44.3829 39.4986 44.3748L39.4161 45.1914L39.3336 46.0079C39.4423 46.0189 39.551 46.027 39.6597 46.0325L39.7012 45.2129ZM39.4161 45.1914L39.4988 44.3749C39.5076 44.3757 39.514 44.3766 39.5165 44.377C39.5186 44.3773 39.5196 44.3774 39.5154 44.3768C39.5128 44.3764 39.5042 44.375 39.4953 44.3738C39.4857 44.3724 39.4721 44.3705 39.4562 44.3688L39.3663 45.1846L39.2764 46.0003C39.2687 45.9995 39.2634 45.9987 39.2622 45.9986C39.2616 45.9985 39.2612 45.9984 39.267 45.9993C39.271 45.9999 39.2802 46.0013 39.2906 46.0028C39.3015 46.0043 39.3162 46.0062 39.3334 46.0079L39.4161 45.1914ZM39.3663 45.1846L39.456 44.3688C39.3923 44.3617 39.3316 44.3541 39.2731 44.3454L39.1524 45.1572L39.0317 45.969C39.115 45.9814 39.1969 45.9916 39.2766 46.0004L39.3663 45.1846ZM39.1524 45.1572L39.2732 44.3454C39.2367 44.34 39.2068 44.3341 39.1422 44.3227L38.9991 45.1308L38.8559 45.939C38.8933 45.9456 38.9653 45.9591 39.0316 45.969L39.1524 45.1572ZM38.9991 45.1308L39.1421 44.3227C39.0531 44.3069 39.0812 44.3135 39.0444 44.3063L38.8848 45.1113L38.7253 45.9164C38.7588 45.923 38.7894 45.9281 38.8101 45.9314C38.8347 45.9354 38.8444 45.9369 38.8561 45.939L38.9991 45.1308ZM38.8848 45.1113L39.0445 44.3063C39.0108 44.2996 38.9842 44.2931 38.9236 44.2794L38.7432 45.0801L38.5629 45.8807C38.5964 45.8883 38.6638 45.9042 38.7251 45.9163L38.8848 45.1113ZM38.7432 45.0801L38.9234 44.2794C38.8673 44.2667 38.8393 44.2608 38.8074 44.2528L38.6075 45.0488L38.4075 45.8448C38.4656 45.8594 38.5284 45.873 38.563 45.8808L38.7432 45.0801ZM38.6075 45.0488L38.8076 44.2529C38.7833 44.2468 38.7819 44.2457 38.7276 44.231L38.5137 45.0234L38.2999 45.8158C38.308 45.818 38.3688 45.8351 38.4074 45.8448L38.6075 45.0488ZM38.5137 45.0234L38.7274 44.231C38.6672 44.2148 38.619 44.2015 38.5739 44.1878L38.334 44.9726L38.0942 45.7575C38.168 45.7801 38.2397 45.7996 38.3001 45.8158L38.5137 45.0234ZM38.334 44.9726L38.574 44.1878C38.5499 44.1804 38.5527 44.1806 38.4974 44.1626L38.2442 44.9433L37.991 45.724C37.9956 45.7255 38.0579 45.7464 38.094 45.7575L38.334 44.9726ZM38.2442 44.9433L38.4972 44.1626C38.445 44.1457 38.4039 44.1322 38.3654 44.1185L38.0899 44.8916L37.8144 45.6647C37.878 45.6873 37.94 45.7075 37.9912 45.7241L38.2442 44.9433ZM38.0899 44.8916L38.3655 44.1185C38.3291 44.1055 38.3045 44.0968 38.2804 44.0877L37.9903 44.8555L37.7002 45.6232C37.7421 45.639 37.7841 45.6539 37.8143 45.6646L38.0899 44.8916ZM37.9903 44.8555L38.2803 44.0877C38.231 44.069 38.1832 44.0502 38.1368 44.031L37.8223 44.789L37.5078 45.5471C37.5725 45.574 37.6368 45.5992 37.7003 45.6232L37.9903 44.8555ZM37.8223 44.789L38.1369 44.031C38.1098 44.0198 38.0881 44.0107 38.0677 44.0019L37.7413 44.7549L37.4149 45.5079C37.4482 45.5224 37.4806 45.5358 37.5077 45.5471L37.8223 44.789ZM37.7413 44.7549L38.0676 44.0018C38.0207 43.9815 37.9758 43.9613 37.9324 43.9409L37.5831 44.6836L37.2337 45.4262C37.2949 45.455 37.3555 45.4822 37.415 45.5079L37.7413 44.7549ZM37.5831 44.6836L37.9325 43.941C37.9106 43.9307 37.8876 43.9195 37.8616 43.9067L37.5001 44.6435L37.1386 45.3804C37.1677 45.3946 37.1999 45.4103 37.2336 45.4262L37.5831 44.6836ZM37.5001 44.6435L37.8615 43.9067C37.8064 43.8797 37.7514 43.8513 37.6962 43.8215L37.3067 44.5439L36.9172 45.2663C36.9896 45.3053 37.0634 45.3435 37.1386 45.3804L37.5001 44.6435ZM37.3067 44.5439L37.6963 43.8216C37.7037 43.8256 37.7092 43.8287 37.7118 43.8303C37.7141 43.8316 37.7157 43.8325 37.7134 43.8311C37.7122 43.8305 37.7068 43.8272 37.701 43.8239C37.6948 43.8202 37.6857 43.815 37.6746 43.809L37.2813 44.5293L36.888 45.2496C36.8813 45.2459 36.8763 45.2431 36.8743 45.2419C36.8728 45.241 36.8716 45.2403 36.8746 45.2421C36.8765 45.2432 36.8823 45.2466 36.8888 45.2504C36.8957 45.2544 36.9054 45.26 36.9171 45.2663L37.3067 44.5439ZM37.2813 44.5293L37.6746 43.8089C37.6251 43.7819 37.5748 43.753 37.5226 43.722L37.1036 44.4277L36.6845 45.1334C36.7496 45.172 36.8175 45.2111 36.8881 45.2497L37.2813 44.5293ZM37.1036 44.4277L37.5227 43.7221C37.475 43.6938 37.472 43.6927 37.4508 43.6796L37.0196 44.3779L36.5884 45.0762C36.6226 45.0973 36.6761 45.1284 36.6845 45.1334L37.1036 44.4277ZM37.0196 44.3779L37.4507 43.6796C37.4128 43.6561 37.3733 43.6306 37.3296 43.6018L36.878 44.2871L36.4263 44.9724C36.4763 45.0053 36.5309 45.0407 36.5885 45.0763L37.0196 44.3779ZM36.878 44.2871L37.3297 43.6019C37.3029 43.5842 37.2832 43.5712 37.2645 43.5585L36.8018 44.2363L36.3391 44.9142C36.3708 44.9358 36.4021 44.9564 36.4263 44.9723L36.878 44.2871ZM36.8018 44.2363L37.2645 43.5584C37.2162 43.5255 37.1711 43.4938 37.1282 43.4624L36.6426 44.124L36.157 44.7856C36.2189 44.831 36.28 44.8738 36.3392 44.9142L36.8018 44.2363ZM36.6426 44.124L37.1283 43.4624C37.0816 43.4281 37.1017 43.4437 37.0823 43.4291L36.5889 44.0849L36.0956 44.7408C36.1118 44.753 36.1267 44.7638 36.1364 44.7708C36.1481 44.7791 36.1522 44.7821 36.157 44.7856L36.6426 44.124ZM36.5889 44.0849L37.0822 43.429C36.6563 43.1087 36.2848 42.7194 35.9839 42.278L35.3057 42.7402L34.6276 43.2025C35.0295 43.7921 35.5258 44.3123 36.0956 44.7409L36.5889 44.0849ZM35.3057 42.7402L35.9839 42.278C35.9729 42.2618 35.9692 42.2557 35.9464 42.2211L35.2618 42.6738L34.5772 43.1265C34.5836 43.1362 34.6087 43.1748 34.6276 43.2025L35.3057 42.7402ZM35.2618 42.6738L35.9464 42.2211C35.914 42.1722 35.884 42.1255 35.8561 42.08L35.1563 42.5088L34.4565 42.9376C34.4969 43.0035 34.5376 43.0666 34.5772 43.1265L35.2618 42.6738ZM35.1563 42.5088L35.8561 42.08C35.8561 42.08 35.8561 42.0799 35.856 42.0798C35.8559 42.0796 35.8558 42.0794 35.8556 42.0792C35.8553 42.0786 35.8548 42.0778 35.8542 42.0767C35.8528 42.0744 35.8511 42.0714 35.8484 42.0668C35.8443 42.0597 35.8347 42.0431 35.8253 42.0273L35.1202 42.4473L34.415 42.8672C34.4178 42.8718 34.4201 42.8759 34.4279 42.8893C34.4342 42.9003 34.4446 42.9181 34.4565 42.9376L35.1563 42.5088ZM35.1202 42.4473L35.8253 42.0273C35.7927 41.9726 35.7658 41.9268 35.7417 41.8829L35.0225 42.2783L34.3033 42.6737C34.342 42.744 34.3811 42.8102 34.415 42.8672L35.1202 42.4473ZM35.0225 42.2783L35.7417 41.8829C35.7327 41.8666 35.7346 41.8693 35.7142 41.8311L34.9903 42.2178L34.2664 42.6044C34.2675 42.6066 34.2903 42.65 34.3033 42.6737L35.0225 42.2783ZM34.9903 42.2178L35.7142 41.8311C35.6864 41.7789 35.6594 41.7261 35.6333 41.6725L34.8956 42.0322L34.1579 42.3919C34.1927 42.4634 34.2289 42.5342 34.2664 42.6044L34.9903 42.2178ZM34.8956 42.0322L35.6333 41.6725C35.6125 41.6299 35.6183 41.6428 35.6098 41.625L34.8682 41.9765L34.1266 42.3281C34.1344 42.3445 34.1417 42.3593 34.1467 42.3694C34.1527 42.3814 34.155 42.3861 34.1579 42.3919L34.8956 42.0322ZM34.8682 41.9765L35.6098 41.625C35.5868 41.5763 35.5639 41.5254 35.5406 41.4714L34.7872 41.7969L34.0337 42.1223C34.0626 42.1892 34.0935 42.2582 34.1266 42.3281L34.8682 41.9765ZM34.7872 41.7969L35.5406 41.4714C35.5256 41.4367 35.5186 41.4209 35.5105 41.4014L34.752 41.7148L33.9935 42.0283C34.0082 42.0638 34.0251 42.1024 34.0337 42.1223L34.7872 41.7969ZM34.752 41.7148L35.5105 41.4014C35.4933 41.3598 35.4762 41.3158 35.458 41.2679L34.6905 41.5586L33.923 41.8493C33.9445 41.9062 33.968 41.9665 33.9935 42.0283L34.752 41.7148ZM34.6905 41.5586L35.458 41.2679C35.4467 41.2381 35.4356 41.2078 35.4246 41.177L34.6514 41.4521L33.8782 41.7273C33.8926 41.7677 33.9075 41.8084 33.923 41.8493L34.6905 41.5586ZM34.6514 41.4521L35.4246 41.1769C35.4097 41.1349 35.3948 41.0899 35.378 41.0376L34.5967 41.289L33.8155 41.5405C33.8339 41.5976 33.8548 41.6614 33.8782 41.7273L34.6514 41.4521ZM34.5967 41.289L35.378 41.0377C35.3721 41.0193 35.3656 41.0003 35.3629 40.9921C35.3592 40.981 35.3582 40.9778 35.3579 40.9768L34.5733 41.2178L33.7888 41.4587C33.7958 41.4817 33.8027 41.5022 33.8069 41.5148C33.8121 41.5304 33.8137 41.535 33.8155 41.5404L34.5967 41.289ZM34.5733 41.2178L35.3578 40.9768C35.3418 40.9245 35.3263 40.8683 35.3088 40.8024L34.5157 41.0137L33.7226 41.2249C33.7416 41.296 33.7634 41.3761 33.7888 41.4587L34.5733 41.2178ZM34.5157 41.0137L35.3088 40.8025C35.3027 40.7798 35.2972 40.7586 35.2921 40.7382L34.4962 40.9385L33.7002 41.1387C33.7078 41.1686 33.7153 41.1975 33.7226 41.2248L34.5157 41.0137ZM34.4962 40.9385L35.2921 40.7382C35.2812 40.6952 35.2707 40.6495 35.2596 40.5989L34.4581 40.7754L33.6566 40.9519C33.6695 41.0106 33.6839 41.0737 33.7002 41.1387L34.4962 40.9385ZM34.4581 40.7754L35.2596 40.5989C35.2469 40.5414 35.2447 40.5346 35.2394 40.508L34.4346 40.6689L33.6298 40.8299C33.6388 40.8746 33.6536 40.9385 33.6565 40.9518L34.4581 40.7754ZM34.4346 40.6689L35.2394 40.5079C35.2288 40.4548 35.219 40.3982 35.2086 40.3343L34.3985 40.4658L33.5884 40.5973C33.6001 40.6696 33.6136 40.7485 33.6299 40.8299L34.4346 40.6689ZM34.3985 40.4658L35.2086 40.3344C35.2063 40.32 35.204 40.3075 35.2023 40.2984C35.2007 40.29 35.199 40.2814 35.1983 40.2782C35.1974 40.2735 35.1973 40.2729 35.1974 40.2734C35.1976 40.2743 35.1983 40.2783 35.1992 40.2843L34.3878 40.4072L33.5763 40.5301C33.5808 40.5599 33.586 40.586 33.5878 40.5949C33.589 40.6014 33.5893 40.6026 33.5895 40.6039C33.5896 40.6045 33.5891 40.6018 33.5884 40.5972L34.3985 40.4658ZM34.3878 40.4072L35.1992 40.2843C35.1753 40.1264 35.1591 39.9648 35.1508 39.8003L34.3311 39.8418L33.5114 39.8833C33.5225 40.1008 33.544 40.3168 33.5763 40.5302L34.3878 40.4072ZM34.3311 39.8418L35.1515 39.8198L35.1437 39.5287L34.3233 39.5508L33.5029 39.5728L33.5107 39.8638L34.3311 39.8418ZM34.3233 39.5508L35.144 39.5508C35.1441 38.4671 35.499 37.4686 36.0991 36.6616L35.4405 36.1719L34.7819 35.6822C33.9787 36.7624 33.5026 38.1019 33.5026 39.5507L34.3233 39.5508ZM35.4405 36.1719L36.0991 36.6615C36.1068 36.6511 36.1014 36.6586 36.12 36.634L35.4649 36.1396L34.8098 35.6453C34.8072 35.6487 34.8051 35.6514 34.7998 35.6583C34.7954 35.6642 34.7889 35.6727 34.7819 35.6822L35.4405 36.1719ZM35.4649 36.1396L36.12 36.634C36.2067 36.5192 36.2981 36.4085 36.3942 36.3021L35.7852 35.7519L35.1762 35.2017C35.0476 35.3441 34.9254 35.4921 34.8098 35.6453L35.4649 36.1396ZM35.7852 35.7519L36.3942 36.3021C36.3922 36.3043 36.3913 36.3052 36.3958 36.3005C36.3973 36.2988 36.4007 36.2953 36.4039 36.2918C36.4074 36.2882 36.4118 36.2834 36.4169 36.2779L35.8116 35.7236L35.2063 35.1693C35.2068 35.1688 35.207 35.1686 35.201 35.175C35.1966 35.1797 35.1869 35.19 35.1762 35.2018L35.7852 35.7519ZM35.8116 35.7236L36.4168 36.2779C36.5102 36.176 36.6078 36.0781 36.7094 35.9845L36.1534 35.3808L35.5973 34.7772C35.4615 34.9023 35.3311 35.0331 35.2064 35.1693L35.8116 35.7236ZM36.1534 35.3808L36.7095 35.9844C36.7231 35.9719 36.7376 35.9588 36.7546 35.9435L36.2061 35.333L35.6576 34.7225C35.6393 34.7389 35.6186 34.7576 35.5973 34.7773L36.1534 35.3808ZM36.2061 35.333L36.7546 35.9435C36.8584 35.8503 36.9624 35.7634 37.0679 35.6835L36.5723 35.0293L36.0767 34.3751C35.9291 34.487 35.7897 34.6038 35.6577 34.7224L36.2061 35.333ZM36.5723 35.0293L37.068 35.6834C37.0788 35.6752 37.0875 35.6689 37.1073 35.6542L36.6182 34.9951L36.1291 34.336C36.1183 34.3441 36.0962 34.3603 36.0766 34.3752L36.5723 35.0293ZM36.6182 34.9951L37.1072 35.6542C37.4065 35.4322 37.7327 35.2441 38.0801 35.0948L37.7559 34.3408L37.4318 33.5868C36.9675 33.7864 36.5306 34.0382 36.1292 34.336L36.6182 34.9951ZM37.7559 34.3408L38.0802 35.0947C38.1093 35.0822 38.1046 35.084 38.1169 35.0788L37.7989 34.3223L37.4809 33.5657C37.4688 33.5707 37.4578 33.5755 37.4499 33.5789C37.4407 33.5829 37.4367 33.5847 37.4316 33.5869L37.7559 34.3408ZM37.7989 34.3223L38.1167 35.0789C38.1678 35.0575 38.222 35.0362 38.2811 35.0139L37.9913 34.2461L37.7014 33.4782C37.6313 33.5047 37.557 33.5337 37.481 33.5656L37.7989 34.3223ZM37.9913 34.2461L38.2813 35.0138C38.2995 35.007 38.3181 34.9996 38.3259 34.9965C38.331 34.9945 38.3341 34.9933 38.3366 34.9923C38.339 34.9914 38.3398 34.9911 38.3396 34.9912L38.0596 34.2197L37.7796 33.4482C37.7571 33.4564 37.7369 33.4643 37.7249 33.4691C37.71 33.4749 37.7059 33.4766 37.7013 33.4783L37.9913 34.2461ZM38.0596 34.2197L38.3395 34.9913C38.3892 34.9732 38.4427 34.9556 38.508 34.9347L38.2569 34.1533L38.0058 33.3719C37.9387 33.3935 37.8603 33.419 37.7798 33.4482L38.0596 34.2197ZM38.2569 34.1533L38.5082 34.9346C38.5296 34.9277 38.5454 34.9226 38.5607 34.9179L38.3184 34.1338L38.0761 33.3496C38.0503 33.3576 38.0252 33.3657 38.0056 33.372L38.2569 34.1533ZM38.3184 34.1338L38.5605 34.918C38.6173 34.9004 38.6764 34.8836 38.7382 34.8671L38.5264 34.0742L38.3147 33.2813C38.2368 33.3021 38.157 33.3247 38.0763 33.3496L38.3184 34.1338ZM38.5264 34.0742L38.7384 34.8671C38.7504 34.8639 38.761 34.8609 38.769 34.8586C38.7763 34.8564 38.784 34.8541 38.7874 34.8531C38.7974 34.8502 38.7944 34.8512 38.7884 34.8527L38.585 34.0576L38.3817 33.2625C38.356 33.2691 38.3334 33.2757 38.324 33.2785C38.3104 33.2825 38.3121 33.282 38.3145 33.2813L38.5264 34.0742ZM38.585 34.0576L38.7882 34.8528C39.0954 34.7743 39.4146 34.725 39.7428 34.7083L39.7012 33.8887L39.6597 33.069C39.2212 33.0912 38.7937 33.1572 38.3819 33.2624L38.585 34.0576ZM39.7012 33.8887L39.7232 34.7091L40.0152 34.7013L39.9932 33.8808L39.9713 33.0604L39.6793 33.0682L39.7012 33.8887ZM39.9932 33.8808V34.7016H43.671V33.8808V33.0601H39.9932V33.8808ZM43.671 33.8808L43.6488 34.7013L43.6849 34.7022L43.7071 33.8818L43.7293 33.0614L43.6931 33.0604L43.671 33.8808ZM43.7071 33.8818V34.7025H44.2842V33.8818V33.0611H43.7071V33.8818ZM44.2842 33.8818V34.7025C45.4993 34.7025 46.4835 33.7175 46.4839 32.5031L45.6631 32.5029L44.8424 32.5027C44.8423 32.8113 44.5923 33.0611 44.2842 33.0611V33.8818ZM45.6631 32.5029H46.4839C46.4839 31.2887 45.4999 30.3023 44.2842 30.3023V31.123V31.9437C44.5919 31.9437 44.8424 32.1938 44.8424 32.5029H45.6631ZM44.2842 31.123V30.3023H39.9942V31.123V31.9437H44.2842V31.123ZM39.9942 36.6396V35.8189C37.933 35.8189 36.2614 37.4905 36.2614 39.5517H37.0821H37.9028C37.9028 38.3971 38.8395 37.4603 39.9942 37.4603V36.6396ZM37.0821 39.5517L36.2614 39.5519C36.2616 40.8094 36.8863 41.9165 37.8326 42.5904L38.3087 41.9219L38.7847 41.2533C38.2489 40.8717 37.9029 40.2519 37.9028 39.5516L37.0821 39.5517ZM38.3087 41.9219L37.8329 42.5906C38.2221 42.8675 38.6669 43.0726 39.1501 43.1844L39.335 42.3848L39.5199 41.5851C39.2521 41.5232 39.0039 41.4093 38.7844 41.2531L38.3087 41.9219ZM39.335 42.3848L39.1498 43.1843C39.1993 43.1958 39.249 43.2062 39.2989 43.2156L39.4512 42.4092L39.6035 41.6027C39.5754 41.5974 39.5477 41.5916 39.5203 41.5852L39.335 42.3848ZM39.4512 42.4092L39.2993 43.2157C39.4543 43.2449 39.623 43.2686 39.8024 43.2777L39.8438 42.458L39.8852 41.6383C39.7975 41.6339 39.7047 41.6218 39.6032 41.6026L39.4512 42.4092ZM39.8438 42.458L39.8224 43.2784L39.9718 43.2823L39.9932 42.4619L40.0147 41.6415L39.8653 41.6376L39.8438 42.458ZM39.9932 42.4619V43.2826H43.671V42.4619V41.6412H39.9932V42.4619ZM43.671 42.4619L43.6711 43.2826C45.7318 43.2823 47.4026 41.6118 47.4028 39.5508L46.5821 39.5508L45.7614 39.5507C45.7613 40.7051 44.8253 41.641 43.6708 41.6412L43.671 42.4619ZM46.5821 39.5508L47.4028 39.5507C47.4027 37.5056 45.7576 35.8448 43.7185 35.819L43.7081 36.6396L43.6977 37.4603C44.8397 37.4747 45.7613 38.4053 45.7614 39.5508L46.5821 39.5508ZM43.7081 36.6396V35.8189H39.9942V36.6396V37.4603H43.7081V36.6396ZM39.9913 38.4765V39.2973C40.1309 39.2973 40.2437 39.4106 40.2438 39.5491L41.0645 39.5488L41.8852 39.5485C41.8848 38.5026 41.0361 37.6558 39.9913 37.6558V38.4765ZM41.0645 39.5488H40.2438C40.2438 39.6879 40.1304 39.8013 39.9913 39.8013V40.6221V41.4428C41.0369 41.4428 41.8852 40.5945 41.8852 39.5488H41.0645ZM39.9913 40.6221L39.9914 39.8013C39.8531 39.8013 39.7397 39.6888 39.7397 39.5488H38.919H38.0983C38.0983 40.5936 38.9448 41.4426 39.9912 41.4428L39.9913 40.6221ZM38.919 39.5488L39.7397 39.5491C39.7398 39.4098 39.8526 39.2973 39.9914 39.2973L39.9913 38.4765L39.9912 37.6558C38.9456 37.656 38.0987 38.5035 38.0983 39.5485L38.919 39.5488ZM43.6719 38.4765V39.2973C43.8116 39.2973 43.9244 39.4106 43.9245 39.5491L44.7452 39.5488L45.5659 39.5485C45.5655 38.5026 44.7168 37.6558 43.6719 37.6558V38.4765ZM44.7452 39.5488H43.9245C43.9245 39.6879 43.8111 39.8013 43.6719 39.8013V40.6221V41.4428C44.7176 41.4428 45.5659 40.5945 45.5659 39.5488H44.7452ZM43.6719 40.6221L43.6722 39.8013C43.5337 39.8013 43.4204 39.6885 43.4204 39.5488H42.5997H41.779C41.779 40.5937 42.6257 41.4424 43.6717 41.4428L43.6719 40.6221ZM42.5997 39.5488L43.4204 39.5491C43.4204 39.41 43.5332 39.2973 43.6722 39.2973L43.6719 38.4765L43.6717 37.6558C42.6265 37.6562 41.7793 38.5034 41.779 39.5485L42.5997 39.5488Z" fill="#964A20" mask="url(#path-28-inside-1_1155_21)"/>
</g>
<defs>
<clipPath id="clip0_1155_21">
<rect width="81" height="82" fill="white"/>
</clipPath>
</defs>
</svg>
