<svg width="51" height="51" viewBox="0 0 51 51" fill="none" xmlns="http://www.w3.org/2000/svg">
<path fill-rule="evenodd" clip-rule="evenodd" d="M27.3906 8.16953H36.2129C37.779 8.16953 39.0486 9.43913 39.0486 11.0053C39.0486 12.5714 37.779 13.841 36.2129 13.841H35.0156L34.9524 13.8408H27.3904C20.9519 13.8408 15.7324 19.0603 15.7324 25.4989C15.7324 28.6899 17.0144 31.5815 19.0916 33.6866C21.2055 35.8291 24.143 37.1571 27.3906 37.1571H36.2129C37.779 37.1571 39.0486 38.4267 39.0486 39.9928C39.0486 41.559 37.779 42.8286 36.2129 42.8286H27.3906C17.8198 42.8286 10.0611 35.0699 10.0611 25.499C10.0611 15.9282 17.8198 8.16953 27.3906 8.16953ZM42.5624 34.3308C43.9044 35.8348 44.7201 37.8185 44.7201 39.9928C44.7201 44.6912 40.9113 48.5 36.2129 48.5H27.3906C14.6875 48.5 4.38959 38.2022 4.38959 25.499C4.38959 12.7959 14.6875 2.49805 27.3906 2.49805H36.2129C40.9113 2.49805 44.7201 6.30686 44.7201 11.0053C44.7201 13.1795 43.9045 15.1632 42.5625 16.6671C45.0413 18.805 46.6104 21.9687 46.6104 25.4989C46.6104 29.0292 45.0413 32.1929 42.5624 34.3308ZM23.3521 29.9183C24.4167 30.8917 25.8342 31.4854 27.3904 31.4854H34.9524C38.2587 31.4854 40.9389 28.8052 40.9389 25.4989C40.9389 22.2078 38.2833 19.537 34.9979 19.5125H27.3906C24.0843 19.5125 21.404 22.1928 21.404 25.499C21.404 27.0489 21.993 28.4611 22.9592 29.5243C23.084 29.6616 23.2151 29.7931 23.3521 29.9183ZM29.5918 25.4964C29.5918 26.7145 28.6043 27.702 27.3862 27.702C26.1681 27.702 25.1806 26.7145 25.1806 25.4964C25.1806 24.2783 26.1681 23.2908 27.3862 23.2908C28.6043 23.2908 29.5918 24.2783 29.5918 25.4964ZM34.9521 27.702C36.1702 27.702 37.1577 26.7145 37.1577 25.4964C37.1577 24.2783 36.1702 23.2908 34.9521 23.2908C33.734 23.2908 32.7466 24.2783 32.7466 25.4964C32.7466 26.7145 33.734 27.702 34.9521 27.702Z" fill="url(#paint0_linear_863_229)"/>
<defs>
<linearGradient id="paint0_linear_863_229" x1="52.0037" y1="-0.85073" x2="-6.24279" y2="51.6943" gradientUnits="userSpaceOnUse">
<stop stop-color="#FF9900"/>
<stop offset="1" stop-color="#F06445"/>
</linearGradient>
</defs>
</svg>
