<svg width="16" height="17" viewBox="0 0 16 17" fill="none" xmlns="http://www.w3.org/2000/svg">
<path d="M7.53587 8.49833C7.53587 8.62147 7.48695 8.73957 7.39988 8.82664C7.31281 8.91371 7.19471 8.96263 7.07157 8.96263H4.28579C4.16265 8.96263 4.04455 8.91371 3.95748 8.82664C3.87041 8.73957 3.82149 8.62147 3.82149 8.49833C3.82149 8.37519 3.87041 8.2571 3.95748 8.17002C4.04455 8.08295 4.16265 8.03403 4.28579 8.03403H7.07157C7.19471 8.03403 7.31281 8.08295 7.39988 8.17002C7.48695 8.2571 7.53587 8.37519 7.53587 8.49833ZM7.07157 6.17684H4.28579C4.16265 6.17684 4.04455 6.22576 3.95748 6.31283C3.87041 6.3999 3.82149 6.518 3.82149 6.64114C3.82149 6.76428 3.87041 6.88238 3.95748 6.96945C4.04455 7.05652 4.16265 7.10544 4.28579 7.10544H7.07157C7.19471 7.10544 7.31281 7.05652 7.39988 6.96945C7.48695 6.88238 7.53587 6.76428 7.53587 6.64114C7.53587 6.518 7.48695 6.3999 7.39988 6.31283C7.31281 6.22576 7.19471 6.17684 7.07157 6.17684ZM13.5717 9.97654V13.6056C13.5725 13.6875 13.5516 13.7681 13.5111 13.8392C13.4707 13.9104 13.4121 13.9696 13.3414 14.0108C13.2707 14.0521 13.1903 14.0739 13.1085 14.0741C13.0266 14.0743 12.9462 14.0528 12.8753 14.0119L11.4824 13.2144L10.0895 14.0119C10.0186 14.0528 9.93817 14.0743 9.85631 14.0741C9.77446 14.0739 9.6941 14.0521 9.62339 14.0108C9.55269 13.9696 9.49414 13.9104 9.45369 13.8392C9.41324 13.7681 9.39232 13.6875 9.39306 13.6056V12.2127H2.4286C2.18232 12.2127 1.94612 12.1149 1.77198 11.9407C1.59783 11.7666 1.5 11.5304 1.5 11.2841V3.85535C1.5 3.60907 1.59783 3.37288 1.77198 3.19874C1.94612 3.02459 2.18232 2.92676 2.4286 2.92676H12.6431C12.8894 2.92676 13.1256 3.02459 13.2998 3.19874C13.4739 3.37288 13.5717 3.60907 13.5717 3.85535V5.62723C13.8652 5.90829 14.0988 6.24586 14.2584 6.6196C14.4179 6.99334 14.5002 7.39551 14.5002 7.80188C14.5002 8.20826 14.4179 8.61043 14.2584 8.98417C14.0988 9.3579 13.8652 9.69547 13.5717 9.97654ZM9.39306 11.2841V9.97654C8.8871 9.48858 8.56734 8.83931 8.48895 8.14077C8.41057 7.44223 8.57848 6.73824 8.96371 6.15028C9.34894 5.56232 9.92733 5.12727 10.5991 4.92021C11.2708 4.71315 11.9937 4.74706 12.6431 5.0161V3.85535H2.4286V11.2841H9.39306ZM12.6431 10.5877C12.2754 10.7413 11.8809 10.8204 11.4824 10.8204C11.0839 10.8204 10.6894 10.7413 10.3217 10.5877V12.8059L11.2503 12.2742C11.3204 12.2341 11.3998 12.213 11.4807 12.213C11.5615 12.213 11.6409 12.2341 11.7111 12.2742L12.6397 12.8059L12.6431 10.5877ZM13.5717 7.80188C13.5717 7.38865 13.4492 6.9847 13.2196 6.64111C12.99 6.29752 12.6637 6.02972 12.282 5.87159C11.9002 5.71345 11.4801 5.67207 11.0748 5.75269C10.6695 5.83331 10.2972 6.0323 10.005 6.3245C9.71282 6.6167 9.51382 6.98898 9.43321 7.39427C9.35259 7.79957 9.39397 8.21966 9.5521 8.60144C9.71024 8.98322 9.97803 9.30953 10.3216 9.53911C10.6652 9.76869 11.0692 9.89122 11.4824 9.89122C11.7568 9.89122 12.0285 9.83718 12.282 9.73218C12.5354 9.62718 12.7658 9.47328 12.9598 9.27927C13.1538 9.08526 13.3077 8.85493 13.4127 8.60144C13.5177 8.34795 13.5717 8.07626 13.5717 7.80188Z" fill="black"/>
</svg>
