<svg width="16" height="17" viewBox="0 0 16 17" fill="none" xmlns="http://www.w3.org/2000/svg">
<path d="M15.5009 8.50008C15.5041 9.69081 15.1178 10.8499 14.4009 11.8007C14.3614 11.8532 14.312 11.8975 14.2554 11.9309C14.1989 11.9643 14.1362 11.9863 14.0712 11.9955C14.0061 12.0047 13.9399 12.001 13.8763 11.9847C13.8126 11.9683 13.7528 11.9396 13.7003 11.9001C13.6478 11.8606 13.6035 11.8112 13.5701 11.7546C13.5367 11.698 13.5147 11.6354 13.5055 11.5703C13.4963 11.5053 13.5 11.439 13.5163 11.3754C13.5327 11.3118 13.5614 11.252 13.6009 11.1995C14.1877 10.4221 14.5038 9.47402 14.5009 8.50008C14.5009 7.3066 14.0268 6.16201 13.1829 5.3181C12.339 4.47418 11.1944 4.00008 10.0009 4.00008C8.80745 4.00008 7.66285 4.47418 6.81894 5.3181C5.97502 6.16201 5.50092 7.3066 5.50092 8.50008C5.50092 8.63269 5.44824 8.75986 5.35447 8.85363C5.2607 8.9474 5.13353 9.00008 5.00092 9.00008C4.86831 9.00008 4.74113 8.9474 4.64737 8.85363C4.5536 8.75986 4.50092 8.63269 4.50092 8.50008C4.50067 7.9955 4.56986 7.49329 4.70654 7.00758C4.63842 7.00008 4.56967 7.00008 4.50092 7.00008C3.70527 7.00008 2.94221 7.31615 2.3796 7.87876C1.81699 8.44137 1.50092 9.20443 1.50092 10.0001C1.50092 10.7957 1.81699 11.5588 2.3796 12.1214C2.94221 12.684 3.70527 13.0001 4.50092 13.0001H6.00092C6.13353 13.0001 6.2607 13.0528 6.35447 13.1465C6.44824 13.2403 6.50092 13.3675 6.50092 13.5001C6.50092 13.6327 6.44824 13.7599 6.35447 13.8536C6.2607 13.9474 6.13353 14.0001 6.00092 14.0001H4.50092C3.95103 14.0002 3.40702 13.887 2.90286 13.6674C2.39871 13.4478 1.94524 13.1267 1.57078 12.724C1.19632 12.3213 0.908903 11.8457 0.726492 11.327C0.544081 10.8082 0.470589 10.2574 0.510606 9.70899C0.550623 9.16056 0.703289 8.62627 0.95907 8.13948C1.21485 7.6527 1.56825 7.22389 1.9972 6.87982C2.42615 6.53576 2.92144 6.28383 3.45212 6.13977C3.98281 5.99572 4.5375 5.96263 5.08154 6.04258C5.63554 4.93455 6.54738 4.046 7.66937 3.52085C8.79136 2.9957 10.0578 2.8647 11.2635 3.14908C12.4692 3.43346 13.5436 4.11656 14.3127 5.08773C15.0818 6.05891 15.5004 7.26127 15.5009 8.50008ZM11.1472 11.1463L10.0009 12.2932V8.50008C10.0009 8.36747 9.94824 8.24029 9.85447 8.14653C9.7607 8.05276 9.63353 8.00008 9.50092 8.00008C9.36831 8.00008 9.24113 8.05276 9.14737 8.14653C9.0536 8.24029 9.00092 8.36747 9.00092 8.50008V12.2932L7.85467 11.1463C7.76085 11.0525 7.6336 10.9998 7.50092 10.9998C7.36824 10.9998 7.24099 11.0525 7.14717 11.1463C7.05335 11.2401 7.00064 11.3674 7.00064 11.5001C7.00064 11.6328 7.05335 11.76 7.14717 11.8538L9.14717 13.8538C9.19361 13.9003 9.24875 13.9372 9.30945 13.9624C9.37015 13.9875 9.43521 14.0005 9.50092 14.0005C9.56663 14.0005 9.63169 13.9875 9.69239 13.9624C9.75309 13.9372 9.80823 13.9003 9.85467 13.8538L11.8547 11.8538C11.9485 11.76 12.0012 11.6328 12.0012 11.5001C12.0012 11.3674 11.9485 11.2401 11.8547 11.1463C11.7608 11.0525 11.6336 10.9998 11.5009 10.9998C11.3682 10.9998 11.241 11.0525 11.1472 11.1463Z" fill="black"/>
</svg>
