<svg width="20" height="20" viewBox="0 0 20 20" fill="none" xmlns="http://www.w3.org/2000/svg">
<g clip-path="url(#clip0_1126_101)">
<path d="M13.7509 8.75H11.8759C11.7102 8.75 11.5512 8.68415 11.434 8.56694C11.3168 8.44973 11.2509 8.29076 11.2509 8.125C11.2509 7.95924 11.3168 7.80027 11.434 7.68306C11.5512 7.56585 11.7102 7.5 11.8759 7.5H13.7509C13.9167 7.5 14.0756 7.56585 14.1929 7.68306C14.3101 7.80027 14.3759 7.95924 14.3759 8.125C14.3759 8.29076 14.3101 8.44973 14.1929 8.56694C14.0756 8.68415 13.9167 8.75 13.7509 8.75ZM8.12591 7.5H7.50091V6.875C7.50091 6.70924 7.43506 6.55027 7.31785 6.43306C7.20064 6.31585 7.04167 6.25 6.87591 6.25C6.71015 6.25 6.55118 6.31585 6.43397 6.43306C6.31676 6.55027 6.25091 6.70924 6.25091 6.875V7.5H5.62591C5.46015 7.5 5.30118 7.56585 5.18397 7.68306C5.06676 7.80027 5.00091 7.95924 5.00091 8.125C5.00091 8.29076 5.06676 8.44973 5.18397 8.56694C5.30118 8.68415 5.46015 8.75 5.62591 8.75H6.25091V9.375C6.25091 9.54076 6.31676 9.69973 6.43397 9.81694C6.55118 9.93415 6.71015 10 6.87591 10C7.04167 10 7.20064 9.93415 7.31785 9.81694C7.43506 9.69973 7.50091 9.54076 7.50091 9.375V8.75H8.12591C8.29167 8.75 8.45064 8.68415 8.56785 8.56694C8.68506 8.44973 8.75091 8.29076 8.75091 8.125C8.75091 7.95924 8.68506 7.80027 8.56785 7.68306C8.45064 7.56585 8.29167 7.5 8.12591 7.5ZM18.8665 15.6758C18.631 16.0121 18.3246 16.2929 17.969 16.4982C17.6134 16.7035 17.2171 16.8285 16.808 16.8643C16.399 16.9001 15.987 16.8459 15.6011 16.7055C15.2152 16.5651 14.8648 16.3419 14.5744 16.0516C14.565 16.0422 14.5556 16.0328 14.547 16.0227L11.4447 12.5H8.55404L5.45482 16.0227L5.42748 16.0516C4.89951 16.5784 4.18426 16.8745 3.43841 16.875C3.02782 16.8748 2.62224 16.7848 2.25016 16.6112C1.87808 16.4375 1.54853 16.1846 1.28465 15.87C1.02078 15.5554 0.828984 15.1869 0.72274 14.7903C0.616496 14.3936 0.598379 13.9786 0.669663 13.5742C0.669287 13.5706 0.669287 13.5669 0.669663 13.5633L1.94857 6.99375C2.13891 5.91021 2.70502 4.92841 3.54744 4.22087C4.38986 3.51333 5.45469 3.12531 6.55482 3.125H13.4384C14.5352 3.12675 15.5968 3.51255 16.4388 4.21541C17.2808 4.91827 17.8501 5.89381 18.0478 6.97266C18.0478 6.97734 18.0478 6.98203 18.0478 6.98672L19.3267 13.5625C19.3271 13.5661 19.3271 13.5698 19.3267 13.5734C19.3929 13.9369 19.3863 14.3098 19.3073 14.6707C19.2283 15.0316 19.0785 15.3732 18.8665 15.6758ZM13.4384 11.25C14.3501 11.25 15.2244 10.8878 15.8691 10.2432C16.5137 9.59852 16.8759 8.72418 16.8759 7.8125C16.8759 6.90082 16.5137 6.02648 15.8691 5.38182C15.2244 4.73716 14.3501 4.375 13.4384 4.375H6.55482C5.74775 4.37572 4.96679 4.66104 4.34933 5.18076C3.73187 5.70048 3.31747 6.4213 3.17904 7.21641V7.22656L1.89935 13.7961C1.84279 14.1218 1.89098 14.457 2.03699 14.7536C2.183 15.0502 2.41932 15.2928 2.71194 15.4466C3.00457 15.6004 3.33842 15.6574 3.6655 15.6094C3.99257 15.5615 4.29601 15.411 4.53216 15.1797L7.80716 11.4617C7.8658 11.3952 7.93793 11.3419 8.01875 11.3054C8.09957 11.2689 8.18723 11.25 8.27591 11.25H13.4384ZM18.1025 13.7961L17.4197 10.2805C16.9997 10.9586 16.4137 11.5183 15.717 11.9067C15.0203 12.2951 14.236 12.4993 13.4384 12.5H13.1103L15.4697 15.1805C15.6476 15.3535 15.8639 15.4819 16.101 15.5551C16.3382 15.6283 16.5893 15.6442 16.8337 15.6016C17.241 15.5297 17.6031 15.2993 17.8408 14.9608C18.0785 14.6224 18.1723 14.2036 18.1017 13.7961H18.1025Z" fill="white"/>
</g>
<defs>
<clipPath id="clip0_1126_101">
<rect width="20" height="20" fill="white"/>
</clipPath>
</defs>
</svg>
