<svg width="21" height="21" viewBox="0 0 21 21" fill="none" xmlns="http://www.w3.org/2000/svg">
<path d="M11.418 14.6804C11.418 14.874 11.3606 15.0632 11.2531 15.2242C11.1455 15.3851 10.9927 15.5106 10.8138 15.5846C10.635 15.6587 10.4382 15.6781 10.2484 15.6403C10.0585 15.6026 9.88411 15.5094 9.74724 15.3725C9.61036 15.2356 9.51714 15.0612 9.47938 14.8714C9.44162 14.6815 9.461 14.4847 9.53508 14.3059C9.60915 14.127 9.7346 13.9742 9.89555 13.8666C10.0565 13.7591 10.2457 13.7017 10.4393 13.7017C10.6989 13.7017 10.9478 13.8048 11.1314 13.9884C11.3149 14.1719 11.418 14.4209 11.418 14.6804ZM10.4393 5.87192C8.64008 5.87192 7.17689 7.18912 7.17689 8.80809V9.13433C7.17689 9.30738 7.24563 9.47334 7.368 9.5957C7.49036 9.71807 7.65632 9.78681 7.82937 9.78681C8.00242 9.78681 8.16838 9.71807 8.29074 9.5957C8.41311 9.47334 8.48185 9.30738 8.48185 9.13433V8.80809C8.48185 7.91093 9.36026 7.17688 10.4393 7.17688C11.5183 7.17688 12.3967 7.91093 12.3967 8.80809C12.3967 9.70525 11.5183 10.4393 10.4393 10.4393C10.2662 10.4393 10.1003 10.508 9.97792 10.6304C9.85556 10.7528 9.78682 10.9187 9.78682 11.0918V11.7443C9.78682 11.9173 9.85556 12.0833 9.97792 12.2056C10.1003 12.328 10.2662 12.3967 10.4393 12.3967C10.6123 12.3967 10.7783 12.328 10.9007 12.2056C11.023 12.0833 11.0918 11.9173 11.0918 11.7443V11.6855C12.5794 11.4123 13.7017 10.2256 13.7017 8.80809C13.7017 7.18912 12.2385 5.87192 10.4393 5.87192ZM18.9216 10.4393C18.9216 12.1169 18.4241 13.7569 17.492 15.1518C16.56 16.5467 15.2352 17.6339 13.6853 18.2759C12.1354 18.9179 10.4299 19.0859 8.78449 18.7586C7.13909 18.4313 5.6277 17.6234 4.44143 16.4372C3.25517 15.2509 2.44731 13.7395 2.12002 12.0941C1.79273 10.4487 1.96071 8.7432 2.60271 7.19327C3.24471 5.64334 4.3319 4.31859 5.7268 3.38655C7.12171 2.45451 8.76166 1.95703 10.4393 1.95703C12.6882 1.95941 14.8443 2.85383 16.4345 4.44405C18.0248 6.03427 18.9192 8.19039 18.9216 10.4393ZM17.6166 10.4393C17.6166 9.01976 17.1957 7.6321 16.407 6.4518C15.6184 5.2715 14.4974 4.35157 13.1859 3.80833C11.8745 3.2651 10.4313 3.12297 9.03908 3.3999C7.64682 3.67684 6.36794 4.36041 5.36418 5.36418C4.36042 6.36794 3.67685 7.64681 3.39991 9.03907C3.12297 10.4313 3.2651 11.8744 3.80834 13.1859C4.35157 14.4974 5.2715 15.6183 6.4518 16.407C7.6321 17.1957 9.01976 17.6166 10.4393 17.6166C12.3422 17.6144 14.1665 16.8576 15.512 15.512C16.8576 14.1665 17.6144 12.3422 17.6166 10.4393Z" fill="white"/>
</svg>
