<svg width="21" height="21" viewBox="0 0 21 21" fill="none" xmlns="http://www.w3.org/2000/svg">
<g clip-path="url(#clip0_843_2662)">
<path d="M9.72149 8.07266C9.69552 7.99479 9.68515 7.91257 9.69097 7.83069C9.69678 7.74881 9.71867 7.66888 9.75538 7.59546C9.79209 7.52205 9.8429 7.45658 9.90491 7.4028C9.96693 7.34902 10.0389 7.30798 10.1168 7.28203L11.0543 6.96953C11.1483 6.93821 11.2483 6.92967 11.3462 6.9446C11.4441 6.95954 11.5371 6.99753 11.6174 7.05544C11.6978 7.11335 11.7632 7.18952 11.8083 7.27768C11.8534 7.36584 11.877 7.46346 11.877 7.5625V10.6875C11.877 10.8533 11.8111 11.0122 11.6939 11.1294C11.5767 11.2467 11.4177 11.3125 11.252 11.3125C11.0862 11.3125 10.9272 11.2467 10.81 11.1294C10.6928 11.0122 10.627 10.8533 10.627 10.6875V8.42969L10.5121 8.46797C10.4342 8.49393 10.352 8.5043 10.2701 8.49848C10.1883 8.49267 10.1083 8.47078 10.0349 8.43407C9.9615 8.39736 9.89603 8.34655 9.84225 8.28454C9.78847 8.22253 9.74744 8.15053 9.72149 8.07266ZM20.3145 16.3125C20.3145 16.4783 20.2486 16.6372 20.1314 16.7544C20.0142 16.8717 19.8552 16.9375 19.6895 16.9375H2.18945C2.02369 16.9375 1.86472 16.8717 1.74751 16.7544C1.6303 16.6372 1.56445 16.4783 1.56445 16.3125C1.56445 16.1467 1.6303 15.9878 1.74751 15.8706C1.86472 15.7533 2.02369 15.6875 2.18945 15.6875H2.81445V8.1875C2.81445 7.85598 2.94615 7.53804 3.18057 7.30362C3.41499 7.0692 3.73293 6.9375 4.06445 6.9375H7.18945V4.4375C7.18945 4.10598 7.32115 3.78804 7.55557 3.55362C7.78999 3.3192 8.10793 3.1875 8.43945 3.1875H13.4395C13.771 3.1875 14.0889 3.3192 14.3233 3.55362C14.5578 3.78804 14.6895 4.10598 14.6895 4.4375V10.0625H17.8145C18.146 10.0625 18.4639 10.1942 18.6983 10.4286C18.9328 10.663 19.0645 10.981 19.0645 11.3125V15.6875H19.6895C19.8552 15.6875 20.0142 15.7533 20.1314 15.8706C20.2486 15.9878 20.3145 16.1467 20.3145 16.3125ZM14.6895 11.3125V15.6875H17.8145V11.3125H14.6895ZM8.43945 15.6875H13.4395V4.4375H8.43945V15.6875ZM4.06445 15.6875H7.18945V8.1875H4.06445V15.6875Z" fill="#CF8800"/>
</g>
<defs>
<clipPath id="clip0_843_2662">
<rect width="20" height="20" fill="white" transform="translate(0.939453 0.0625)"/>
</clipPath>
</defs>
</svg>
