<svg width="19" height="19" viewBox="0 0 19 19" fill="none" xmlns="http://www.w3.org/2000/svg">
<g clip-path="url(#clip0_914_369)">
<path d="M16.8808 2.94839C16.7394 2.80701 16.5628 2.70591 16.3692 2.65548C16.1757 2.60506 15.9722 2.60714 15.7798 2.66152H15.7692L2.27342 6.75651C2.05432 6.81966 1.85958 6.94789 1.71501 7.12421C1.57044 7.30053 1.48285 7.51662 1.46387 7.74384C1.44488 7.97106 1.49539 8.19869 1.6087 8.39656C1.722 8.59443 1.89276 8.7532 2.09834 8.85183L8.06928 11.76L10.9732 17.7274C11.0635 17.9201 11.2071 18.083 11.387 18.1967C11.5669 18.3105 11.7756 18.3704 11.9885 18.3693C12.0208 18.3693 12.0532 18.3679 12.0855 18.3651C12.3126 18.3467 12.5286 18.2593 12.7045 18.1147C12.8805 17.97 13.008 17.775 13.0699 17.5558L17.1621 4.06003C17.1621 4.05652 17.1621 4.053 17.1621 4.04948C17.2172 3.8575 17.2202 3.65432 17.1707 3.46081C17.1213 3.2673 17.0212 3.09044 16.8808 2.94839ZM11.9948 17.2338L11.9913 17.2436V17.2387L9.17459 11.452L12.5496 8.07698C12.6506 7.97064 12.7061 7.82903 12.7042 7.68235C12.7024 7.53567 12.6433 7.39553 12.5395 7.2918C12.4358 7.18808 12.2957 7.12897 12.149 7.1271C12.0023 7.12522 11.8607 7.18071 11.7544 7.28175L8.37936 10.6567L2.59053 7.84003H2.58561H2.59545L16.0849 3.74433L11.9948 17.2338Z" fill="black"/>
</g>
<defs>
<clipPath id="clip0_914_369">
<rect width="18" height="18" fill="white" transform="translate(0.897461 0.931641)"/>
</clipPath>
</defs>
</svg>
