<svg width="16" height="17" viewBox="0 0 16 17" fill="none" xmlns="http://www.w3.org/2000/svg">
<path d="M15.7348 6.05867L8.23484 2.05867C8.1625 2.02015 8.0818 2 7.99984 2C7.91789 2 7.83719 2.02015 7.76484 2.05867L0.264844 6.05867C0.184847 6.1013 0.117944 6.16488 0.0712938 6.2426C0.0246433 6.32033 0 6.40927 0 6.49992C0 6.59057 0.0246433 6.67951 0.0712938 6.75723C0.117944 6.83495 0.184847 6.89853 0.264844 6.94117L1.99984 7.86679V10.893C1.99932 11.1386 2.08971 11.3757 2.25359 11.5587C3.07234 12.4705 4.90672 13.9999 7.99984 13.9999C9.02544 14.0084 10.0434 13.8226 10.9998 13.4524V15.4999C10.9998 15.6325 11.0525 15.7597 11.1463 15.8535C11.2401 15.9472 11.3672 15.9999 11.4998 15.9999C11.6325 15.9999 11.7596 15.9472 11.8534 15.8535C11.9472 15.7597 11.9998 15.6325 11.9998 15.4999V12.9693C12.6518 12.5929 13.241 12.117 13.7461 11.5587C13.91 11.3757 14.0004 11.1386 13.9998 10.893V7.86679L15.7348 6.94117C15.8148 6.89853 15.8817 6.83495 15.9284 6.75723C15.975 6.67951 15.9997 6.59057 15.9997 6.49992C15.9997 6.40927 15.975 6.32033 15.9284 6.2426C15.8817 6.16488 15.8148 6.1013 15.7348 6.05867ZM7.99984 12.9999C5.29547 12.9999 3.70484 11.6787 2.99984 10.893V8.39992L7.76484 10.9412C7.83719 10.9797 7.91789 10.9998 7.99984 10.9998C8.0818 10.9998 8.1625 10.9797 8.23484 10.9412L10.9998 9.46679V12.363C10.2123 12.7305 9.21984 12.9999 7.99984 12.9999ZM12.9998 10.8905C12.7001 11.2231 12.3648 11.5218 11.9998 11.7812V8.93304L12.9998 8.39992V10.8905ZM11.7498 7.93367L11.7361 7.92554L8.23609 6.05867C8.11932 5.99902 7.98379 5.98764 7.8587 6.02696C7.73361 6.06629 7.62898 6.15318 7.56734 6.26891C7.50571 6.38464 7.492 6.51996 7.52917 6.6457C7.56635 6.77145 7.65143 6.87755 7.76609 6.94117L10.6873 8.49992L7.99984 9.93304L1.56234 6.49992L7.99984 3.06679L14.4373 6.49992L11.7498 7.93367Z" fill="black"/>
</svg>
