<svg width="16" height="17" viewBox="0 0 16 17" fill="none" xmlns="http://www.w3.org/2000/svg">
<path d="M14.1163 6.92625C13.8806 6.68 13.6369 6.42625 13.545 6.20312C13.46 5.99875 13.455 5.66 13.45 5.33187C13.4406 4.72187 13.4306 4.03062 12.95 3.55C12.4694 3.06937 11.7781 3.05937 11.1681 3.05C10.84 3.045 10.5013 3.04 10.2969 2.955C10.0744 2.86312 9.82 2.61937 9.57375 2.38375C9.1425 1.96937 8.6525 1.5 8 1.5C7.3475 1.5 6.85812 1.96937 6.42625 2.38375C6.18 2.61937 5.92625 2.86312 5.70312 2.955C5.5 3.04 5.16 3.045 4.83187 3.05C4.22187 3.05937 3.53062 3.06937 3.05 3.55C2.56937 4.03062 2.5625 4.72187 2.55 5.33187C2.545 5.66 2.54 5.99875 2.455 6.20312C2.36312 6.42562 2.11937 6.68 1.88375 6.92625C1.46937 7.3575 1 7.8475 1 8.5C1 9.1525 1.46937 9.64187 1.88375 10.0737C2.11937 10.32 2.36312 10.5737 2.455 10.7969C2.54 11.0013 2.545 11.34 2.55 11.6681C2.55937 12.2781 2.56937 12.9694 3.05 13.45C3.53062 13.9306 4.22187 13.9406 4.83187 13.95C5.16 13.955 5.49875 13.96 5.70312 14.045C5.92562 14.1369 6.18 14.3806 6.42625 14.6163C6.8575 15.0306 7.3475 15.5 8 15.5C8.6525 15.5 9.14187 15.0306 9.57375 14.6163C9.82 14.3806 10.0737 14.1369 10.2969 14.045C10.5013 13.96 10.84 13.955 11.1681 13.95C11.7781 13.9406 12.4694 13.9306 12.95 13.45C13.4306 12.9694 13.4406 12.2781 13.45 11.6681C13.455 11.34 13.46 11.0013 13.545 10.7969C13.6369 10.5744 13.8806 10.32 14.1163 10.0737C14.5306 9.6425 15 9.1525 15 8.5C15 7.8475 14.5306 7.35812 14.1163 6.92625ZM13.3944 9.38188C13.095 9.69438 12.785 10.0175 12.6206 10.4144C12.4631 10.7956 12.4563 11.2312 12.45 11.6531C12.4437 12.0906 12.4369 12.5487 12.2425 12.7425C12.0481 12.9363 11.5931 12.9437 11.1531 12.95C10.7312 12.9563 10.2956 12.9631 9.91438 13.1206C9.5175 13.285 9.19438 13.595 8.88188 13.8944C8.56938 14.1937 8.25 14.5 8 14.5C7.75 14.5 7.42812 14.1925 7.11812 13.8944C6.80813 13.5962 6.4825 13.285 6.08563 13.1206C5.70438 12.9631 5.26875 12.9563 4.84688 12.95C4.40938 12.9437 3.95125 12.9369 3.7575 12.7425C3.56375 12.5481 3.55625 12.0931 3.55 11.6531C3.54375 11.2312 3.53688 10.7956 3.37937 10.4144C3.215 10.0175 2.905 9.69438 2.60562 9.38188C2.30625 9.06938 2 8.75 2 8.5C2 8.25 2.3075 7.92812 2.60562 7.61812C2.90375 7.30813 3.215 6.9825 3.37937 6.58563C3.53688 6.20438 3.54375 5.76875 3.55 5.34688C3.55625 4.90938 3.56312 4.45125 3.7575 4.2575C3.95187 4.06375 4.40688 4.05625 4.84688 4.05C5.26875 4.04375 5.70438 4.03688 6.08563 3.87937C6.4825 3.715 6.80562 3.405 7.11812 3.10562C7.43062 2.80625 7.75 2.5 8 2.5C8.25 2.5 8.57188 2.8075 8.88188 3.10562C9.19188 3.40375 9.5175 3.715 9.91438 3.87937C10.2956 4.03688 10.7312 4.04375 11.1531 4.05C11.5906 4.05625 12.0487 4.06312 12.2425 4.2575C12.4363 4.45187 12.4437 4.90688 12.45 5.34688C12.4563 5.76875 12.4631 6.20438 12.6206 6.58563C12.785 6.9825 13.095 7.30562 13.3944 7.61812C13.6937 7.93062 14 8.25 14 8.5C14 8.75 13.6925 9.07188 13.3944 9.38188ZM8.75 11.75C8.75 11.8983 8.70601 12.0433 8.6236 12.1667C8.54119 12.29 8.42406 12.3861 8.28701 12.4429C8.14997 12.4997 7.99917 12.5145 7.85368 12.4856C7.7082 12.4566 7.57456 12.3852 7.46967 12.2803C7.36478 12.1754 7.29335 12.0418 7.26441 11.8963C7.23547 11.7508 7.25032 11.6 7.30709 11.463C7.36386 11.3259 7.45999 11.2088 7.58332 11.1264C7.70666 11.044 7.85166 11 8 11C8.19891 11 8.38968 11.079 8.53033 11.2197C8.67098 11.3603 8.75 11.5511 8.75 11.75ZM10.5 7.25C10.5 8.33625 9.64 9.24563 8.5 9.455V9.5C8.5 9.63261 8.44732 9.75979 8.35355 9.85355C8.25979 9.94732 8.13261 10 8 10C7.86739 10 7.74021 9.94732 7.64645 9.85355C7.55268 9.75979 7.5 9.63261 7.5 9.5V9C7.5 8.86739 7.55268 8.74021 7.64645 8.64645C7.74021 8.55268 7.86739 8.5 8 8.5C8.82687 8.5 9.5 7.9375 9.5 7.25C9.5 6.5625 8.82687 6 8 6C7.17313 6 6.5 6.5625 6.5 7.25V7.5C6.5 7.63261 6.44732 7.75979 6.35355 7.85355C6.25979 7.94732 6.13261 8 6 8C5.86739 8 5.74021 7.94732 5.64645 7.85355C5.55268 7.75979 5.5 7.63261 5.5 7.5V7.25C5.5 6.00938 6.62125 5 8 5C9.37875 5 10.5 6.00938 10.5 7.25Z" fill="black"/>
</svg>
